<?xml version="1.0" encoding="utf-8" standalone="no"?>
<!DOCTYPE svg PUBLIC "-//W3C//DTD SVG 1.1//EN"
  "http://www.w3.org/Graphics/SVG/1.1/DTD/svg11.dtd">
<svg xmlns:xlink="http://www.w3.org/1999/xlink" width="1013.2336pt" height="881.119563pt" viewBox="0 0 1013.2336 881.119563" xmlns="http://www.w3.org/2000/svg" version="1.1">
 <metadata>
  <rdf:RDF xmlns:dc="http://purl.org/dc/elements/1.1/" xmlns:cc="http://creativecommons.org/ns#" xmlns:rdf="http://www.w3.org/1999/02/22-rdf-syntax-ns#">
   <cc:Work>
    <dc:type rdf:resource="http://purl.org/dc/dcmitype/StillImage"/>
    <dc:date>2026-02-12T23:01:03.959136</dc:date>
    <dc:format>image/svg+xml</dc:format>
    <dc:creator>
     <cc:Agent>
      <dc:title>Matplotlib v3.10.8, https://matplotlib.org/</dc:title>
     </cc:Agent>
    </dc:creator>
   </cc:Work>
  </rdf:RDF>
 </metadata>
 <defs>
  <style type="text/css">*{stroke-linejoin: round; stroke-linecap: butt}</style>
 </defs>
 <g id="figure_1">
  <g id="patch_1">
   <path d="M 0 881.119563 
L 1013.2336 881.119563 
L 1013.2336 0 
L 0 0 
z
" style="fill: #ffffff"/>
  </g>
  <g id="axes_1">
   <g id="FillBetweenPolyCollection_1">
    <defs>
     <path id="mb97025db83" d="M 676.4224 -425.464 
L 550.9432 -425.464 
L 550.60949 -434.609275 
L 549.610134 -443.705906 
L 547.950448 -452.705509 
L 545.639259 -461.560215 
L 542.688862 -470.222926 
L 539.114948 -478.647565 
L 534.936528 -486.789323 
L 530.175826 -494.604893 
L 524.858165 -502.052704 
L 519.011829 -509.093141 
L 512.667914 -515.688758 
L 505.860164 -521.804471 
L 498.624789 -527.407752 
L 491.000274 -532.468797 
L 483.027172 -536.960685 
L 474.747894 -540.859526 
L 466.206476 -544.144581 
L 457.448349 -546.798377 
L 448.520099 -548.806798 
L 439.469214 -550.159163 
L 430.343835 -550.848277 
L 421.192501 -550.870475 
L 412.063887 -550.225639 
L 403.006548 -548.9172 
L 394.068659 -546.952115 
L 385.297761 -544.340839 
L 376.740507 -541.09726 
L 368.442411 -537.238631 
L 360.447612 -532.785475 
L 352.798634 -527.761479 
L 345.53616 -522.193365 
L 338.698821 -516.11075 
L 332.322983 -509.545988 
L 326.442561 -502.533995 
L 321.08883 -495.11207 
L 316.290269 -487.319688 
L 312.0724 -479.198297 
L 308.457658 -470.791094 
L 305.465269 -462.142799 
L 303.111151 -453.299409 
L 301.407825 -444.307964 
L 300.36435 -435.216288 
L 299.986277 -426.07274 
L 300.275616 -416.925954 
L 301.23083 -407.824582 
L 302.846837 -398.817033 
L 305.115041 -389.951219 
L 308.023378 -381.274296 
L 311.556379 -372.832418 
L 197.648758 -320.200835 
L 197.648758 -320.200835 
L 190.582756 -337.084593 
L 184.766081 -354.438438 
L 180.229673 -372.170066 
L 176.99766 -390.185163 
L 175.087233 -408.387908 
L 174.508553 -426.68148 
L 175.264699 -444.968576 
L 177.351649 -463.151927 
L 180.758302 -481.134818 
L 185.466539 -498.821597 
L 191.451315 -516.118189 
L 198.6808 -532.932593 
L 207.116538 -549.175375 
L 216.713661 -564.760139 
L 227.421121 -579.603991 
L 239.181967 -593.627976 
L 251.933642 -606.757501 
L 265.60832 -618.92273 
L 280.133267 -630.058958 
L 295.431224 -640.10695 
L 311.420823 -649.013261 
L 328.017014 -656.73052 
L 345.131523 -663.217678 
L 362.673318 -668.440231 
L 380.549096 -672.370399 
L 398.663774 -674.987278 
L 416.921003 -676.27695 
L 435.223671 -676.232553 
L 453.474428 -674.854326 
L 471.576198 -672.149597 
L 489.432699 -668.132754 
L 506.948951 -662.825162 
L 524.031788 -656.255052 
L 540.590344 -648.457371 
L 556.536547 -639.473593 
L 571.785578 -629.351504 
L 586.256329 -618.144942 
L 599.871829 -605.913516 
L 612.559658 -592.722283 
L 624.252331 -578.641407 
L 634.887653 -563.745785 
L 644.409056 -548.114646 
L 652.765896 -531.831131 
L 659.913723 -514.981852 
L 665.814518 -497.656429 
L 670.436895 -479.947017 
L 673.756267 -461.947811 
L 675.754979 -443.754549 
L 676.4224 -425.464 
z
" style="stroke: #d62728; stroke-opacity: 0.8"/>
    </defs>
    <g clip-path="url(#pe0b4a2ecd0)">
     <use xlink:href="#mb97025db83" x="0" y="881.119563" style="fill: #d62728; fill-opacity: 0.8; stroke: #d62728; stroke-opacity: 0.8"/>
    </g>
   </g>
   <g id="FillBetweenPolyCollection_2">
    <defs>
     <path id="m3147062388" d="M 197.648758 -320.200835 
L 311.556379 -372.832418 
L 314.630156 -366.634682 
L 318.040834 -360.61577 
L 321.778045 -354.793976 
L 325.830429 -349.186997 
L 330.185669 -343.811877 
L 334.830525 -338.684954 
L 339.750879 -333.821812 
L 344.931775 -329.237235 
L 350.357464 -324.945157 
L 356.011453 -320.958625 
L 361.876557 -317.289758 
L 367.934947 -313.949707 
L 374.168207 -310.948624 
L 380.557391 -308.295634 
L 387.083077 -305.998798 
L 393.725429 -304.065101 
L 400.464257 -302.500418 
L 407.279076 -301.309507 
L 414.149172 -300.495987 
L 421.053661 -300.062331 
L 427.971557 -300.009858 
L 434.88183 -300.338726 
L 441.763476 -301.047937 
L 448.595576 -302.135334 
L 455.357364 -303.597612 
L 462.028285 -305.430327 
L 468.588062 -307.627907 
L 475.016755 -310.183672 
L 481.294823 -313.089853 
L 487.403183 -316.337618 
L 493.323266 -319.917093 
L 499.037079 -323.817398 
L 504.527251 -328.026677 
L 509.777096 -332.532136 
L 514.770656 -337.320079 
L 519.49275 -342.375952 
L 523.929026 -347.684387 
L 528.065999 -353.229248 
L 531.891094 -358.993681 
L 535.392683 -364.960162 
L 538.560122 -371.110557 
L 541.383785 -377.42617 
L 543.855087 -383.887802 
L 545.966516 -390.475814 
L 547.711656 -397.170179 
L 549.0852 -403.950548 
L 550.082973 -410.796311 
L 550.701944 -417.68666 
L 550.94023 -424.60065 
L 676.41646 -423.737299 
L 676.41646 -423.737299 
L 675.939888 -409.90932 
L 674.701947 -396.128623 
L 672.706399 -382.437096 
L 669.959311 -368.876357 
L 666.469033 -355.487628 
L 662.246174 -342.311605 
L 657.30357 -329.38834 
L 651.656245 -316.757115 
L 645.321365 -304.456325 
L 638.318187 -292.523361 
L 630.667999 -280.994496 
L 622.394053 -269.904774 
L 613.5215 -259.287903 
L 604.077311 -249.176157 
L 594.090193 -239.600271 
L 583.590503 -230.589354 
L 572.610157 -222.170796 
L 561.182532 -214.370186 
L 549.342365 -207.211236 
L 537.125646 -200.715707 
L 524.56951 -194.903343 
L 511.712124 -189.791813 
L 498.59257 -185.396654 
L 485.250728 -181.731225 
L 471.727153 -178.806668 
L 458.062951 -176.631874 
L 444.29966 -175.213453 
L 430.479113 -174.555716 
L 416.643322 -174.660662 
L 402.834344 -175.527974 
L 389.094152 -177.155014 
L 375.464514 -179.536836 
L 361.986858 -182.666201 
L 348.702154 -186.533597 
L 335.650782 -191.127267 
L 322.872414 -196.433249 
L 310.405893 -202.435413 
L 298.289113 -209.115516 
L 286.558906 -216.453251 
L 275.250927 -224.426314 
L 264.39955 -233.01047 
L 254.037759 -242.179625 
L 244.19705 -251.905908 
L 234.907337 -262.159754 
L 226.196858 -272.909994 
L 218.092089 -284.123952 
L 210.617667 -295.76754 
L 203.796312 -307.805364 
L 197.648758 -320.200835 
z
" style="stroke: #ff7f0e; stroke-opacity: 0.8"/>
    </defs>
    <g clip-path="url(#pe0b4a2ecd0)">
     <use xlink:href="#m3147062388" x="0" y="881.119563" style="fill: #ff7f0e; fill-opacity: 0.8; stroke: #ff7f0e; stroke-opacity: 0.8"/>
    </g>
   </g>
   <g id="FillBetweenPolyCollection_3">
    <defs>
     <path id="m412be44626" d="M 676.41646 -423.737299 
L 550.94023 -424.60065 
L 550.940233 -424.601158 
L 550.940237 -424.601666 
L 550.94024 -424.602174 
L 550.940244 -424.602683 
L 550.940247 -424.603191 
L 550.940251 -424.603699 
L 550.940254 -424.604207 
L 550.940258 -424.604716 
L 550.940261 -424.605224 
L 550.940265 -424.605732 
L 550.940268 -424.60624 
L 550.940272 -424.606749 
L 550.940275 -424.607257 
L 550.940279 -424.607765 
L 550.940282 -424.608273 
L 550.940286 -424.608782 
L 550.940289 -424.60929 
L 550.940292 -424.609798 
L 550.940296 -424.610306 
L 550.940299 -424.610815 
L 550.940303 -424.611323 
L 550.940306 -424.611831 
L 550.94031 -424.612339 
L 550.940313 -424.612847 
L 550.940317 -424.613356 
L 550.94032 -424.613864 
L 550.940324 -424.614372 
L 550.940327 -424.61488 
L 550.94033 -424.615389 
L 550.940334 -424.615897 
L 550.940337 -424.616405 
L 550.940341 -424.616913 
L 550.940344 -424.617422 
L 550.940348 -424.61793 
L 550.940351 -424.618438 
L 550.940354 -424.618946 
L 550.940358 -424.619455 
L 550.940361 -424.619963 
L 550.940365 -424.620471 
L 550.940368 -424.620979 
L 550.940372 -424.621488 
L 550.940375 -424.621996 
L 550.940378 -424.622504 
L 550.940382 -424.623012 
L 550.940385 -424.623521 
L 550.940389 -424.624029 
L 550.940392 -424.624537 
L 550.940395 -424.625045 
L 550.940399 -424.625554 
L 676.416797 -423.787107 
L 676.416797 -423.787107 
L 676.416791 -423.786091 
L 676.416784 -423.785074 
L 676.416777 -423.784058 
L 676.41677 -423.783041 
L 676.416763 -423.782025 
L 676.416757 -423.781008 
L 676.41675 -423.779992 
L 676.416743 -423.778975 
L 676.416736 -423.777959 
L 676.416729 -423.776942 
L 676.416723 -423.775926 
L 676.416716 -423.774909 
L 676.416709 -423.773893 
L 676.416702 -423.772876 
L 676.416695 -423.77186 
L 676.416688 -423.770843 
L 676.416681 -423.769827 
L 676.416675 -423.76881 
L 676.416668 -423.767794 
L 676.416661 -423.766777 
L 676.416654 -423.765761 
L 676.416647 -423.764744 
L 676.41664 -423.763728 
L 676.416633 -423.762711 
L 676.416626 -423.761695 
L 676.416619 -423.760678 
L 676.416613 -423.759662 
L 676.416606 -423.758645 
L 676.416599 -423.757629 
L 676.416592 -423.756613 
L 676.416585 -423.755596 
L 676.416578 -423.75458 
L 676.416571 -423.753563 
L 676.416564 -423.752547 
L 676.416557 -423.75153 
L 676.41655 -423.750514 
L 676.416543 -423.749497 
L 676.416536 -423.748481 
L 676.416529 -423.747464 
L 676.416522 -423.746448 
L 676.416516 -423.745431 
L 676.416509 -423.744415 
L 676.416502 -423.743398 
L 676.416495 -423.742382 
L 676.416488 -423.741365 
L 676.416481 -423.740349 
L 676.416474 -423.739332 
L 676.416467 -423.738316 
L 676.41646 -423.737299 
z
" style="stroke: #2ca02c; stroke-opacity: 0.8"/>
    </defs>
    <g clip-path="url(#pe0b4a2ecd0)">
     <use xlink:href="#m412be44626" x="0" y="881.119563" style="fill: #2ca02c; fill-opacity: 0.8; stroke: #2ca02c; stroke-opacity: 0.8"/>
    </g>
   </g>
   <g id="FillBetweenPolyCollection_4">
    <defs>
     <path id="m65605dc727" d="M 676.416797 -423.787107 
L 550.940399 -424.625554 
L 550.940512 -424.642664 
L 550.940623 -424.659775 
L 550.940731 -424.676886 
L 550.940837 -424.693997 
L 550.940941 -424.711108 
L 550.941043 -424.728219 
L 550.941142 -424.74533 
L 550.941239 -424.762441 
L 550.941333 -424.779552 
L 550.941425 -424.796663 
L 550.941515 -424.813774 
L 550.941603 -424.830885 
L 550.941688 -424.847996 
L 550.941771 -424.865108 
L 550.941851 -424.882219 
L 550.941929 -424.89933 
L 550.942005 -424.916441 
L 550.942079 -424.933552 
L 550.94215 -424.950663 
L 550.942219 -424.967774 
L 550.942285 -424.984885 
L 550.942349 -425.001997 
L 550.942411 -425.019108 
L 550.942471 -425.036219 
L 550.942528 -425.05333 
L 550.942583 -425.070441 
L 550.942635 -425.087552 
L 550.942685 -425.104664 
L 550.942733 -425.121775 
L 550.942779 -425.138886 
L 550.942822 -425.155997 
L 550.942863 -425.173109 
L 550.942901 -425.19022 
L 550.942937 -425.207331 
L 550.942971 -425.224442 
L 550.943003 -425.241553 
L 550.943032 -425.258665 
L 550.943059 -425.275776 
L 550.943083 -425.292887 
L 550.943105 -425.309999 
L 550.943125 -425.32711 
L 550.943143 -425.344221 
L 550.943158 -425.361332 
L 550.943171 -425.378444 
L 550.943181 -425.395555 
L 550.943189 -425.412666 
L 550.943195 -425.429777 
L 550.943199 -425.446889 
L 550.9432 -425.464 
L 676.4224 -425.464 
L 676.4224 -425.464 
L 676.422398 -425.429777 
L 676.422391 -425.395555 
L 676.422379 -425.361332 
L 676.422363 -425.32711 
L 676.422342 -425.292887 
L 676.422316 -425.258665 
L 676.422286 -425.224442 
L 676.422251 -425.19022 
L 676.422211 -425.155997 
L 676.422167 -425.121775 
L 676.422118 -425.087552 
L 676.422064 -425.053329 
L 676.422006 -425.019107 
L 676.421943 -424.984884 
L 676.421875 -424.950662 
L 676.421803 -424.91644 
L 676.421726 -424.882217 
L 676.421644 -424.847995 
L 676.421558 -424.813772 
L 676.421467 -424.77955 
L 676.421371 -424.745327 
L 676.421271 -424.711105 
L 676.421166 -424.676882 
L 676.421056 -424.64266 
L 676.420942 -424.608438 
L 676.420823 -424.574215 
L 676.420699 -424.539993 
L 676.420571 -424.505771 
L 676.420438 -424.471548 
L 676.4203 -424.437326 
L 676.420158 -424.403104 
L 676.420011 -424.368882 
L 676.419859 -424.334659 
L 676.419703 -424.300437 
L 676.419542 -424.266215 
L 676.419376 -424.231993 
L 676.419206 -424.197771 
L 676.419031 -424.163549 
L 676.418851 -424.129327 
L 676.418667 -424.095104 
L 676.418478 -424.060882 
L 676.418284 -424.02666 
L 676.418086 -423.992438 
L 676.417883 -423.958217 
L 676.417675 -423.923995 
L 676.417462 -423.889773 
L 676.417245 -423.855551 
L 676.417024 -423.821329 
L 676.416797 -423.787107 
z
" style="stroke: #1f77b4; stroke-opacity: 0.8"/>
    </defs>
    <g clip-path="url(#pe0b4a2ecd0)">
     <use xlink:href="#m65605dc727" x="0" y="881.119563" style="fill: #1f77b4; fill-opacity: 0.8; stroke: #1f77b4; stroke-opacity: 0.8"/>
    </g>
   </g>
   <g id="FillBetweenPolyCollection_5">
    <defs>
     <path id="mac84bf1186" d="M 801.9016 -425.464 
L 676.4224 -425.464 
L 676.229993 -435.289234 
L 675.653068 -445.099402 
L 674.692508 -454.879462 
L 673.349787 -464.614417 
L 671.626964 -474.289339 
L 669.52668 -483.889394 
L 667.052156 -493.399861 
L 664.207187 -502.806156 
L 660.996134 -512.093857 
L 657.423922 -521.248722 
L 653.496028 -530.256712 
L 649.218475 -539.104016 
L 644.597822 -547.777067 
L 639.641155 -556.262566 
L 634.356073 -564.547501 
L 628.750681 -572.619169 
L 622.833574 -580.465193 
L 616.613825 -588.073542 
L 610.100971 -595.432548 
L 603.304999 -602.530929 
L 596.23633 -609.3578 
L 588.905803 -615.902692 
L 581.324658 -622.15557 
L 573.50452 -628.106846 
L 565.45738 -633.747394 
L 557.195577 -639.068565 
L 548.73178 -644.0622 
L 540.078967 -648.720641 
L 531.250407 -653.036746 
L 584.14361 -766.823119 
L 584.14361 -766.823119 
L 597.386451 -760.348962 
L 610.36567 -753.3613 
L 623.061365 -745.870848 
L 635.454069 -737.889091 
L 647.524779 -729.428269 
L 659.254987 -720.501356 
L 670.626705 -711.122039 
L 681.622495 -701.3047 
L 692.225499 -691.064394 
L 702.419457 -680.416823 
L 712.188737 -669.378312 
L 721.518361 -657.96579 
L 730.394021 -646.196754 
L 738.80211 -634.089252 
L 746.729732 -621.661849 
L 754.164734 -608.933601 
L 761.095713 -595.924024 
L 767.512043 -582.653069 
L 773.403884 -569.141083 
L 778.762202 -555.408786 
L 783.578781 -541.477235 
L 787.846235 -527.367792 
L 791.55802 -513.102091 
L 794.708446 -498.702009 
L 797.29268 -484.189625 
L 799.306762 -469.587193 
L 800.747601 -454.917104 
L 801.61299 -440.201851 
L 801.9016 -425.464 
z
" style="stroke: #d62728; stroke-opacity: 0.4"/>
    </defs>
    <g clip-path="url(#pe0b4a2ecd0)">
     <use xlink:href="#mac84bf1186" x="0" y="881.119563" style="fill: #d62728; fill-opacity: 0.4; stroke: #d62728; stroke-opacity: 0.4"/>
    </g>
   </g>
   <g id="FillBetweenPolyCollection_6">
    <defs>
     <path id="m9fe2993a7e" d="M 584.14361 -766.823119 
L 531.250407 -653.036746 
L 524.31316 -656.134679 
L 517.285316 -659.021197 
L 510.173316 -661.693656 
L 502.983678 -664.149605 
L 495.722992 -666.386794 
L 488.397912 -668.403172 
L 481.015151 -670.196891 
L 473.581477 -671.766308 
L 466.103702 -673.109983 
L 458.588681 -674.226686 
L 451.043299 -675.115393 
L 443.474474 -675.775289 
L 435.889142 -676.205769 
L 428.294254 -676.40644 
L 420.696773 -676.377117 
L 413.103661 -676.117826 
L 405.521878 -675.628806 
L 397.958372 -674.910505 
L 390.420076 -673.963581 
L 382.913898 -672.788902 
L 375.446718 -671.387545 
L 368.025379 -669.760794 
L 360.656685 -667.910139 
L 353.347388 -665.837278 
L 346.104187 -663.54411 
L 338.933721 -661.032736 
L 331.842562 -658.305459 
L 324.837209 -655.364777 
L 317.924082 -652.213387 
L 264.154123 -765.588081 
L 264.154123 -765.588081 
L 274.523813 -770.315166 
L 285.031843 -774.726188 
L 295.668582 -778.817104 
L 306.424281 -782.584165 
L 317.289082 -786.023917 
L 328.253028 -789.133209 
L 339.306069 -791.909191 
L 350.438076 -794.349318 
L 361.638846 -796.451354 
L 372.898113 -798.213372 
L 384.205558 -799.633758 
L 395.550817 -800.711209 
L 406.923492 -801.444739 
L 418.31316 -801.833675 
L 429.709382 -801.87766 
L 441.101712 -801.576654 
L 452.479711 -800.930933 
L 463.832949 -799.941089 
L 475.151021 -798.608029 
L 486.423554 -796.932975 
L 497.640216 -794.917462 
L 508.790727 -792.563337 
L 519.864867 -789.872758 
L 530.852488 -786.848191 
L 541.743517 -783.492408 
L 552.527974 -779.808484 
L 563.195974 -775.799796 
L 573.73774 -771.470018 
L 584.14361 -766.823119 
z
" style="stroke: #d62728; stroke-opacity: 0.4"/>
    </defs>
    <g clip-path="url(#pe0b4a2ecd0)">
     <use xlink:href="#m9fe2993a7e" x="0" y="881.119563" style="fill: #d62728; fill-opacity: 0.4; stroke: #d62728; stroke-opacity: 0.4"/>
    </g>
   </g>
   <g id="FillBetweenPolyCollection_7">
    <defs>
     <path id="m502c2ef57a" d="M 264.154123 -765.588081 
L 317.924082 -652.213387 
L 313.451156 -650.037465 
L 309.022235 -647.77332 
L 304.639057 -645.421841 
L 300.303346 -642.983951 
L 296.016803 -640.460609 
L 291.781114 -637.852805 
L 287.597942 -635.161565 
L 283.468931 -632.387945 
L 279.395703 -629.533035 
L 275.379857 -626.597957 
L 271.422972 -623.583863 
L 267.526601 -620.491938 
L 263.692277 -617.323397 
L 259.921504 -614.079483 
L 256.215764 -610.761472 
L 252.576514 -607.370668 
L 249.005182 -603.908401 
L 245.503172 -600.376032 
L 242.07186 -596.77495 
L 238.712593 -593.106568 
L 235.426691 -589.372327 
L 232.215445 -585.573696 
L 229.080117 -581.712165 
L 226.021938 -577.789252 
L 223.04211 -573.806499 
L 220.141803 -569.765469 
L 217.322157 -565.667751 
L 214.584279 -561.514953 
L 211.929245 -557.308708 
L 105.161868 -623.231063 
L 105.161868 -623.231063 
L 109.144419 -629.54043 
L 113.251236 -635.769626 
L 117.480705 -641.916204 
L 121.831165 -647.977749 
L 126.300907 -653.951879 
L 130.888176 -659.836248 
L 135.591168 -665.628543 
L 140.408037 -671.326491 
L 145.336889 -676.927851 
L 150.37579 -682.430424 
L 155.522758 -687.832048 
L 160.775773 -693.130601 
L 166.132771 -698.324001 
L 171.591647 -703.410209 
L 177.150256 -708.387225 
L 182.806415 -713.253095 
L 188.557902 -718.005907 
L 194.402457 -722.643795 
L 200.337785 -727.164935 
L 206.361554 -731.567552 
L 212.471397 -735.849917 
L 218.664914 -740.010347 
L 224.939671 -744.047208 
L 231.293205 -747.958913 
L 237.723018 -751.743927 
L 244.226586 -755.400761 
L 250.801352 -758.92798 
L 257.444735 -762.324198 
L 264.154123 -765.588081 
z
" style="stroke: #d62728; stroke-opacity: 0.4"/>
    </defs>
    <g clip-path="url(#pe0b4a2ecd0)">
     <use xlink:href="#m502c2ef57a" x="0" y="881.119563" style="fill: #d62728; fill-opacity: 0.4; stroke: #d62728; stroke-opacity: 0.4"/>
    </g>
   </g>
   <g id="FillBetweenPolyCollection_8">
    <defs>
     <path id="ma7848e6bb6" d="M 105.161868 -623.231063 
L 211.929245 -557.308708 
L 210.152911 -554.387441 
L 208.416539 -551.442245 
L 206.720451 -548.473667 
L 205.064962 -545.482259 
L 203.450379 -542.468575 
L 201.877002 -539.433176 
L 200.345123 -536.376623 
L 198.855027 -533.299485 
L 197.406989 -530.202332 
L 196.001279 -527.08574 
L 194.638157 -523.950287 
L 193.317877 -520.796555 
L 192.040683 -517.625129 
L 190.806813 -514.436597 
L 189.616495 -511.231553 
L 188.469951 -508.010589 
L 187.367394 -504.774306 
L 186.309027 -501.523302 
L 185.295047 -498.258181 
L 184.325644 -494.97955 
L 183.400995 -491.688016 
L 182.521274 -488.384191 
L 181.686643 -485.068689 
L 180.897258 -481.742123 
L 180.153264 -478.405112 
L 179.4548 -475.058276 
L 178.801996 -471.702234 
L 178.194972 -468.337611 
L 177.633842 -464.96503 
L 53.718763 -484.715546 
L 53.718763 -484.715546 
L 54.560459 -489.774417 
L 55.470994 -494.821351 
L 56.4502 -499.855414 
L 57.497896 -504.875669 
L 58.613887 -509.881185 
L 59.797965 -514.871033 
L 61.049911 -519.844287 
L 62.369493 -524.800024 
L 63.756465 -529.737324 
L 65.210571 -534.655271 
L 66.73154 -539.552952 
L 68.31909 -544.429458 
L 69.972927 -549.283884 
L 71.692743 -554.115329 
L 73.478219 -558.922896 
L 75.329025 -563.705693 
L 77.244815 -568.462832 
L 79.225235 -573.193431 
L 81.269918 -577.89661 
L 83.378483 -582.571498 
L 85.55054 -587.217227 
L 87.785685 -591.832934 
L 90.083503 -596.417763 
L 92.443569 -600.970863 
L 94.865443 -605.491389 
L 97.348676 -609.978501 
L 99.892809 -614.431367 
L 102.497367 -618.849161 
L 105.161868 -623.231063 
z
" style="stroke: #d62728; stroke-opacity: 0.4"/>
    </defs>
    <g clip-path="url(#pe0b4a2ecd0)">
     <use xlink:href="#ma7848e6bb6" x="0" y="881.119563" style="fill: #d62728; fill-opacity: 0.4; stroke: #d62728; stroke-opacity: 0.4"/>
    </g>
   </g>
   <g id="FillBetweenPolyCollection_9">
    <defs>
     <path id="mc3ee43527c" d="M 53.718763 -484.715546 
L 177.633842 -464.96503 
L 177.241699 -462.420837 
L 176.875673 -459.872754 
L 176.535804 -457.321051 
L 176.222126 -454.765997 
L 175.934674 -452.207859 
L 175.673477 -449.646907 
L 175.438562 -447.083411 
L 175.229955 -444.517639 
L 175.047677 -441.949863 
L 174.891748 -439.380353 
L 174.762183 -436.809378 
L 174.658997 -434.237209 
L 174.582201 -431.664118 
L 174.531802 -429.090374 
L 174.507806 -426.516248 
L 174.510215 -423.942012 
L 174.53903 -421.367936 
L 174.594246 -418.79429 
L 174.675859 -416.221347 
L 174.783859 -413.649376 
L 174.918235 -411.078648 
L 175.078974 -408.509434 
L 175.266058 -405.942004 
L 175.479467 -403.376628 
L 175.71918 -400.813575 
L 175.98517 -398.253117 
L 176.277411 -395.695522 
L 176.59587 -393.141058 
L 176.940515 -390.589996 
L 52.678773 -373.152994 
L 52.678773 -373.152994 
L 52.161805 -376.979588 
L 51.684116 -380.811282 
L 51.245756 -384.647675 
L 50.84677 -388.488363 
L 50.487201 -392.332941 
L 50.167087 -396.181006 
L 49.886461 -400.032151 
L 49.645353 -403.885972 
L 49.443788 -407.742064 
L 49.281788 -411.60002 
L 49.159369 -415.459436 
L 49.076544 -419.319903 
L 49.033323 -423.181018 
L 49.029709 -427.042372 
L 49.065703 -430.903561 
L 49.141301 -434.764177 
L 49.256496 -438.623814 
L 49.411275 -442.482067 
L 49.605621 -446.338529 
L 49.839515 -450.192795 
L 50.112932 -454.044459 
L 50.425843 -457.893116 
L 50.778215 -461.73836 
L 51.170011 -465.579788 
L 51.60119 -469.416995 
L 52.071706 -473.249577 
L 52.58151 -477.077131 
L 53.130548 -480.899255 
L 53.718763 -484.715546 
z
" style="stroke: #d62728; stroke-opacity: 0.4"/>
    </defs>
    <g clip-path="url(#pe0b4a2ecd0)">
     <use xlink:href="#mc3ee43527c" x="0" y="881.119563" style="fill: #d62728; fill-opacity: 0.4; stroke: #d62728; stroke-opacity: 0.4"/>
    </g>
   </g>
   <g id="FillBetweenPolyCollection_10">
    <defs>
     <path id="m329f4a6835" d="M 83.741136 -267.569253 
L 197.648758 -320.200835 
L 203.580469 -308.212913 
L 210.142443 -296.558044 
L 217.316038 -285.269333 
L 225.08088 -274.378846 
L 233.414911 -263.917517 
L 242.294459 -253.915063 
L 251.694302 -244.399894 
L 261.587738 -235.399039 
L 271.946667 -226.938065 
L 282.741662 -219.041005 
L 293.942061 -211.730292 
L 305.516049 -205.02669 
L 317.43075 -198.949242 
L 329.652321 -193.515211 
L 342.146045 -188.740032 
L 354.876434 -184.63727 
L 367.807328 -181.218577 
L 380.901996 -178.493665 
L 394.123242 -176.470274 
L 407.433513 -175.154152 
L 420.794999 -174.549036 
L 434.169747 -174.656647 
L 447.519767 -175.476677 
L 460.807137 -177.006798 
L 473.994115 -179.242664 
L 487.043242 -182.177923 
L 499.917453 -185.804237 
L 512.580179 -190.111307 
L 524.995451 -195.086899 
L 574.761176 -79.898348 
L 574.761176 -79.898348 
L 556.138269 -72.434961 
L 537.14418 -65.974356 
L 517.832863 -60.534884 
L 498.259172 -56.131995 
L 478.478705 -52.778197 
L 458.54765 -50.483015 
L 438.522621 -49.25297 
L 418.460498 -49.091555 
L 398.418269 -49.999228 
L 378.452864 -51.973411 
L 358.620994 -55.008498 
L 338.978992 -59.095865 
L 319.582651 -64.223904 
L 300.487067 -70.378049 
L 281.746481 -77.540817 
L 263.414125 -85.691863 
L 245.542074 -94.808035 
L 228.181091 -104.863437 
L 211.380493 -115.829508 
L 195.188 -127.675097 
L 179.649608 -140.366558 
L 164.809453 -153.867841 
L 150.709689 -168.140594 
L 137.390367 -183.144276 
L 124.88932 -198.836269 
L 113.242058 -215.172 
L 102.481664 -232.105066 
L 92.638704 -249.58737 
L 83.741136 -267.569253 
z
" style="stroke: #ff7f0e; stroke-opacity: 0.4"/>
    </defs>
    <g clip-path="url(#pe0b4a2ecd0)">
     <use xlink:href="#m329f4a6835" x="0" y="881.119563" style="fill: #ff7f0e; fill-opacity: 0.4; stroke: #ff7f0e; stroke-opacity: 0.4"/>
    </g>
   </g>
   <g id="FillBetweenPolyCollection_11">
    <defs>
     <path id="m236b6b0997" d="M 574.761176 -79.898348 
L 524.995451 -195.086899 
L 530.133546 -197.37541 
L 535.219061 -199.7785 
L 540.249443 -202.294959 
L 545.222163 -204.923525 
L 550.134724 -207.662877 
L 554.984658 -210.511639 
L 559.76953 -213.468379 
L 564.486934 -216.531613 
L 569.134502 -219.699802 
L 573.709899 -222.971353 
L 578.210826 -226.344625 
L 582.635023 -229.817921 
L 586.980267 -233.389498 
L 591.244375 -237.057562 
L 595.425205 -240.820269 
L 599.520657 -244.67573 
L 603.528674 -248.622007 
L 607.447242 -252.657119 
L 611.274394 -256.779039 
L 615.008205 -260.985695 
L 618.646802 -265.274975 
L 622.188355 -269.644724 
L 625.631086 -274.092747 
L 628.973266 -278.61681 
L 632.213215 -283.214639 
L 635.349306 -287.883926 
L 638.379964 -292.622324 
L 641.303666 -297.427454 
L 644.118944 -302.296901 
L 753.446415 -240.713352 
L 753.446415 -240.713352 
L 749.223499 -233.409181 
L 744.837946 -226.201486 
L 740.291959 -219.093889 
L 735.587822 -212.089959 
L 730.727898 -205.193214 
L 725.714629 -198.407121 
L 720.550532 -191.735086 
L 715.238202 -185.180463 
L 709.780308 -178.746543 
L 704.17959 -172.436558 
L 698.438864 -166.253679 
L 692.561011 -160.201011 
L 686.548986 -154.281595 
L 680.405807 -148.498404 
L 674.134562 -142.854343 
L 667.7384 -137.352248 
L 661.220534 -131.994882 
L 654.584239 -126.784937 
L 647.832848 -121.72503 
L 640.969753 -116.817702 
L 633.998401 -112.06542 
L 626.922295 -107.470569 
L 619.744988 -103.035458 
L 612.470086 -98.762316 
L 605.101244 -94.653288 
L 597.642164 -90.710439 
L 590.096592 -86.935749 
L 582.468318 -83.331115 
L 574.761176 -79.898348 
z
" style="stroke: #ff7f0e; stroke-opacity: 0.4"/>
    </defs>
    <g clip-path="url(#pe0b4a2ecd0)">
     <use xlink:href="#m236b6b0997" x="0" y="881.119563" style="fill: #ff7f0e; fill-opacity: 0.4; stroke: #ff7f0e; stroke-opacity: 0.4"/>
    </g>
   </g>
   <g id="FillBetweenPolyCollection_12">
    <defs>
     <path id="m7e8e0cbcf7" d="M 753.446415 -240.713352 
L 644.118944 -302.296901 
L 646.230227 -306.122509 
L 648.274584 -309.984295 
L 650.251394 -313.88109 
L 652.160059 -317.811712 
L 654 -321.774969 
L 655.770659 -325.76966 
L 657.471499 -329.794574 
L 659.102004 -333.848491 
L 660.661681 -337.930181 
L 662.150056 -342.038408 
L 663.566679 -346.171926 
L 664.911119 -350.329482 
L 666.182969 -354.509815 
L 667.381844 -358.711659 
L 668.507381 -362.933738 
L 669.559237 -367.174775 
L 670.537094 -371.433481 
L 671.440656 -375.708568 
L 672.269649 -379.998738 
L 673.023821 -384.302691 
L 673.702945 -388.619123 
L 674.306812 -392.946724 
L 674.835242 -397.284183 
L 675.288074 -401.630185 
L 675.66517 -405.983413 
L 675.966415 -410.342546 
L 676.19172 -414.706263 
L 676.341015 -419.073241 
L 676.414255 -423.442157 
L 801.889383 -422.431235 
L 801.889383 -422.431235 
L 801.779523 -415.877862 
L 801.55558 -409.327394 
L 801.217623 -402.781818 
L 800.765754 -396.243119 
L 800.200111 -389.713278 
L 799.520863 -383.194275 
L 798.728219 -376.688086 
L 797.822417 -370.196684 
L 796.803732 -363.722037 
L 795.672474 -357.266107 
L 794.428985 -350.830852 
L 793.073642 -344.418222 
L 791.606855 -338.030162 
L 790.029071 -331.668608 
L 788.340767 -325.335488 
L 786.542454 -319.032723 
L 784.634678 -312.762223 
L 782.618018 -306.525889 
L 780.493084 -300.325612 
L 778.260521 -294.163272 
L 775.921006 -288.040736 
L 773.475248 -281.959861 
L 770.923988 -275.92249 
L 768.268 -269.930453 
L 765.508089 -263.985568 
L 762.645092 -258.089635 
L 759.679876 -252.244443 
L 756.613341 -246.451763 
L 753.446415 -240.713352 
z
" style="stroke: #ff7f0e; stroke-opacity: 0.4"/>
    </defs>
    <g clip-path="url(#pe0b4a2ecd0)">
     <use xlink:href="#m7e8e0cbcf7" x="0" y="881.119563" style="fill: #ff7f0e; fill-opacity: 0.4; stroke: #ff7f0e; stroke-opacity: 0.4"/>
    </g>
   </g>
   <g id="FillBetweenPolyCollection_13">
    <defs>
     <path id="mc296b9513a" d="M 801.889383 -422.431235 
L 676.414255 -423.442157 
L 676.414337 -423.452334 
L 676.414419 -423.462512 
L 676.4145 -423.472689 
L 676.41458 -423.482866 
L 676.41466 -423.493043 
L 676.41474 -423.503221 
L 676.414819 -423.513398 
L 676.414898 -423.523575 
L 676.414977 -423.533753 
L 676.415055 -423.54393 
L 676.415132 -423.554107 
L 676.41521 -423.564284 
L 676.415286 -423.574462 
L 676.415363 -423.584639 
L 676.415439 -423.594816 
L 676.415514 -423.604994 
L 676.41559 -423.615171 
L 676.415664 -423.625348 
L 676.415739 -423.635526 
L 676.415813 -423.645703 
L 676.415886 -423.65588 
L 676.415959 -423.666058 
L 676.416032 -423.676235 
L 676.416104 -423.686412 
L 676.416176 -423.69659 
L 676.416248 -423.706767 
L 676.416319 -423.716945 
L 676.416389 -423.727122 
L 676.41646 -423.737299 
L 801.89269 -422.873949 
L 801.89269 -422.873949 
L 801.892584 -422.858683 
L 801.892478 -422.843417 
L 801.892372 -422.828151 
L 801.892264 -422.812885 
L 801.892157 -422.797619 
L 801.892048 -422.782353 
L 801.891939 -422.767087 
L 801.891829 -422.751821 
L 801.891719 -422.736555 
L 801.891608 -422.721289 
L 801.891497 -422.706023 
L 801.891385 -422.690757 
L 801.891272 -422.675491 
L 801.891158 -422.660225 
L 801.891044 -422.644959 
L 801.89093 -422.629693 
L 801.890814 -422.614427 
L 801.890699 -422.599161 
L 801.890582 -422.583895 
L 801.890465 -422.568629 
L 801.890347 -422.553363 
L 801.890229 -422.538097 
L 801.89011 -422.522831 
L 801.88999 -422.507565 
L 801.88987 -422.492299 
L 801.889749 -422.477033 
L 801.889628 -422.461767 
L 801.889506 -422.446501 
L 801.889383 -422.431235 
z
" style="stroke: #ff7f0e; stroke-opacity: 0.4"/>
    </defs>
    <g clip-path="url(#pe0b4a2ecd0)">
     <use xlink:href="#mc296b9513a" x="0" y="881.119563" style="fill: #ff7f0e; fill-opacity: 0.4; stroke: #ff7f0e; stroke-opacity: 0.4"/>
    </g>
   </g>
   <g id="text_1">
    <!-- Contraindicated -->
    <g style="fill: #262626" transform="translate(350.796899 269.407017) scale(0.09 -0.09)">
     <defs>
      <path id="Arial-BoldMT-43" d="M 3397 1684 
L 4294 1400 
Q 4088 650 3608 286 
Q 3128 -78 2391 -78 
Q 1478 -78 890 545 
Q 303 1169 303 2250 
Q 303 3394 893 4026 
Q 1484 4659 2447 4659 
Q 3288 4659 3813 4163 
Q 4125 3869 4281 3319 
L 3366 3100 
Q 3284 3456 3026 3662 
Q 2769 3869 2400 3869 
Q 1891 3869 1573 3503 
Q 1256 3138 1256 2319 
Q 1256 1450 1568 1081 
Q 1881 713 2381 713 
Q 2750 713 3015 947 
Q 3281 1181 3397 1684 
z
" transform="scale(0.015625)"/>
      <path id="Arial-BoldMT-6f" d="M 256 1706 
Q 256 2144 472 2553 
Q 688 2963 1083 3178 
Q 1478 3394 1966 3394 
Q 2719 3394 3200 2905 
Q 3681 2416 3681 1669 
Q 3681 916 3195 420 
Q 2709 -75 1972 -75 
Q 1516 -75 1102 131 
Q 688 338 472 736 
Q 256 1134 256 1706 
z
M 1156 1659 
Q 1156 1166 1390 903 
Q 1625 641 1969 641 
Q 2313 641 2545 903 
Q 2778 1166 2778 1666 
Q 2778 2153 2545 2415 
Q 2313 2678 1969 2678 
Q 1625 2678 1390 2415 
Q 1156 2153 1156 1659 
z
" transform="scale(0.015625)"/>
      <path id="Arial-BoldMT-6e" d="M 3478 0 
L 2600 0 
L 2600 1694 
Q 2600 2231 2544 2389 
Q 2488 2547 2361 2634 
Q 2234 2722 2056 2722 
Q 1828 2722 1647 2597 
Q 1466 2472 1398 2265 
Q 1331 2059 1331 1503 
L 1331 0 
L 453 0 
L 453 3319 
L 1269 3319 
L 1269 2831 
Q 1703 3394 2363 3394 
Q 2653 3394 2893 3289 
Q 3134 3184 3257 3021 
Q 3381 2859 3429 2653 
Q 3478 2447 3478 2063 
L 3478 0 
z
" transform="scale(0.015625)"/>
      <path id="Arial-BoldMT-74" d="M 1981 3319 
L 1981 2619 
L 1381 2619 
L 1381 1281 
Q 1381 875 1398 808 
Q 1416 741 1477 697 
Q 1538 653 1625 653 
Q 1747 653 1978 738 
L 2053 56 
Q 1747 -75 1359 -75 
Q 1122 -75 931 4 
Q 741 84 652 211 
Q 563 338 528 553 
Q 500 706 500 1172 
L 500 2619 
L 97 2619 
L 97 3319 
L 500 3319 
L 500 3978 
L 1381 4491 
L 1381 3319 
L 1981 3319 
z
" transform="scale(0.015625)"/>
      <path id="Arial-BoldMT-72" d="M 1300 0 
L 422 0 
L 422 3319 
L 1238 3319 
L 1238 2847 
Q 1447 3181 1614 3287 
Q 1781 3394 1994 3394 
Q 2294 3394 2572 3228 
L 2300 2463 
Q 2078 2606 1888 2606 
Q 1703 2606 1575 2504 
Q 1447 2403 1373 2137 
Q 1300 1872 1300 1025 
L 1300 0 
z
" transform="scale(0.015625)"/>
      <path id="Arial-BoldMT-61" d="M 1116 2306 
L 319 2450 
Q 453 2931 781 3162 
Q 1109 3394 1756 3394 
Q 2344 3394 2631 3255 
Q 2919 3116 3036 2902 
Q 3153 2688 3153 2116 
L 3144 1091 
Q 3144 653 3186 445 
Q 3228 238 3344 0 
L 2475 0 
Q 2441 88 2391 259 
Q 2369 338 2359 363 
Q 2134 144 1878 34 
Q 1622 -75 1331 -75 
Q 819 -75 523 203 
Q 228 481 228 906 
Q 228 1188 362 1408 
Q 497 1628 739 1745 
Q 981 1863 1438 1950 
Q 2053 2066 2291 2166 
L 2291 2253 
Q 2291 2506 2166 2614 
Q 2041 2722 1694 2722 
Q 1459 2722 1328 2630 
Q 1197 2538 1116 2306 
z
M 2291 1594 
Q 2122 1538 1756 1459 
Q 1391 1381 1278 1306 
Q 1106 1184 1106 997 
Q 1106 813 1243 678 
Q 1381 544 1594 544 
Q 1831 544 2047 700 
Q 2206 819 2256 991 
Q 2291 1103 2291 1419 
L 2291 1594 
z
" transform="scale(0.015625)"/>
      <path id="Arial-BoldMT-69" d="M 459 3769 
L 459 4581 
L 1338 4581 
L 1338 3769 
L 459 3769 
z
M 459 0 
L 459 3319 
L 1338 3319 
L 1338 0 
L 459 0 
z
" transform="scale(0.015625)"/>
      <path id="Arial-BoldMT-64" d="M 3503 0 
L 2688 0 
L 2688 488 
Q 2484 203 2207 64 
Q 1931 -75 1650 -75 
Q 1078 -75 670 386 
Q 263 847 263 1672 
Q 263 2516 659 2955 
Q 1056 3394 1663 3394 
Q 2219 3394 2625 2931 
L 2625 4581 
L 3503 4581 
L 3503 0 
z
M 1159 1731 
Q 1159 1200 1306 963 
Q 1519 619 1900 619 
Q 2203 619 2415 876 
Q 2628 1134 2628 1647 
Q 2628 2219 2422 2470 
Q 2216 2722 1894 2722 
Q 1581 2722 1370 2473 
Q 1159 2225 1159 1731 
z
" transform="scale(0.015625)"/>
      <path id="Arial-BoldMT-63" d="M 3353 2338 
L 2488 2181 
Q 2444 2441 2289 2572 
Q 2134 2703 1888 2703 
Q 1559 2703 1364 2476 
Q 1169 2250 1169 1719 
Q 1169 1128 1367 884 
Q 1566 641 1900 641 
Q 2150 641 2309 783 
Q 2469 925 2534 1272 
L 3397 1125 
Q 3263 531 2881 228 
Q 2500 -75 1859 -75 
Q 1131 -75 698 384 
Q 266 844 266 1656 
Q 266 2478 700 2936 
Q 1134 3394 1875 3394 
Q 2481 3394 2839 3133 
Q 3197 2872 3353 2338 
z
" transform="scale(0.015625)"/>
      <path id="Arial-BoldMT-65" d="M 2381 1056 
L 3256 909 
Q 3088 428 2723 176 
Q 2359 -75 1813 -75 
Q 947 -75 531 491 
Q 203 944 203 1634 
Q 203 2459 634 2926 
Q 1066 3394 1725 3394 
Q 2466 3394 2894 2905 
Q 3322 2416 3303 1406 
L 1103 1406 
Q 1113 1016 1316 798 
Q 1519 581 1822 581 
Q 2028 581 2168 693 
Q 2309 806 2381 1056 
z
M 2431 1944 
Q 2422 2325 2234 2523 
Q 2047 2722 1778 2722 
Q 1491 2722 1303 2513 
Q 1116 2303 1119 1944 
L 2431 1944 
z
" transform="scale(0.015625)"/>
     </defs>
     <use xlink:href="#Arial-BoldMT-43"/>
     <use xlink:href="#Arial-BoldMT-6f" transform="translate(72.216797 0)"/>
     <use xlink:href="#Arial-BoldMT-6e" transform="translate(133.300781 0)"/>
     <use xlink:href="#Arial-BoldMT-74" transform="translate(194.384766 0)"/>
     <use xlink:href="#Arial-BoldMT-72" transform="translate(227.685547 0)"/>
     <use xlink:href="#Arial-BoldMT-61" transform="translate(266.601562 0)"/>
     <use xlink:href="#Arial-BoldMT-69" transform="translate(322.216797 0)"/>
     <use xlink:href="#Arial-BoldMT-6e" transform="translate(350 0)"/>
     <use xlink:href="#Arial-BoldMT-64" transform="translate(411.083984 0)"/>
     <use xlink:href="#Arial-BoldMT-69" transform="translate(472.167969 0)"/>
     <use xlink:href="#Arial-BoldMT-63" transform="translate(499.951172 0)"/>
     <use xlink:href="#Arial-BoldMT-61" transform="translate(555.566406 0)"/>
     <use xlink:href="#Arial-BoldMT-74" transform="translate(611.181641 0)"/>
     <use xlink:href="#Arial-BoldMT-65" transform="translate(644.482422 0)"/>
     <use xlink:href="#Arial-BoldMT-64" transform="translate(700.097656 0)"/>
    </g>
    <!-- 56.9% -->
    <g style="fill: #262626" transform="translate(372.288618 278.913548) scale(0.09 -0.09)">
     <defs>
      <path id="Arial-BoldMT-35" d="M 284 1178 
L 1159 1269 
Q 1197 972 1381 798 
Q 1566 625 1806 625 
Q 2081 625 2272 848 
Q 2463 1072 2463 1522 
Q 2463 1944 2273 2155 
Q 2084 2366 1781 2366 
Q 1403 2366 1103 2031 
L 391 2134 
L 841 4519 
L 3163 4519 
L 3163 3697 
L 1506 3697 
L 1369 2919 
Q 1663 3066 1969 3066 
Q 2553 3066 2959 2641 
Q 3366 2216 3366 1538 
Q 3366 972 3038 528 
Q 2591 -78 1797 -78 
Q 1163 -78 763 262 
Q 363 603 284 1178 
z
" transform="scale(0.015625)"/>
      <path id="Arial-BoldMT-36" d="M 3247 3459 
L 2397 3366 
Q 2366 3628 2234 3753 
Q 2103 3878 1894 3878 
Q 1616 3878 1423 3628 
Q 1231 3378 1181 2588 
Q 1509 2975 1997 2975 
Q 2547 2975 2939 2556 
Q 3331 2138 3331 1475 
Q 3331 772 2918 347 
Q 2506 -78 1859 -78 
Q 1166 -78 719 461 
Q 272 1000 272 2228 
Q 272 3488 737 4044 
Q 1203 4600 1947 4600 
Q 2469 4600 2811 4308 
Q 3153 4016 3247 3459 
z
M 1256 1544 
Q 1256 1116 1453 883 
Q 1650 650 1903 650 
Q 2147 650 2309 840 
Q 2472 1031 2472 1466 
Q 2472 1913 2297 2120 
Q 2122 2328 1859 2328 
Q 1606 2328 1431 2129 
Q 1256 1931 1256 1544 
z
" transform="scale(0.015625)"/>
      <path id="Arial-BoldMT-2e" d="M 459 0 
L 459 878 
L 1338 878 
L 1338 0 
L 459 0 
z
" transform="scale(0.015625)"/>
      <path id="Arial-BoldMT-39" d="M 291 1059 
L 1141 1153 
Q 1172 894 1303 769 
Q 1434 644 1650 644 
Q 1922 644 2112 894 
Q 2303 1144 2356 1931 
Q 2025 1547 1528 1547 
Q 988 1547 595 1964 
Q 203 2381 203 3050 
Q 203 3747 617 4173 
Q 1031 4600 1672 4600 
Q 2369 4600 2816 4061 
Q 3263 3522 3263 2288 
Q 3263 1031 2797 475 
Q 2331 -81 1584 -81 
Q 1047 -81 715 205 
Q 384 491 291 1059 
z
M 2278 2978 
Q 2278 3403 2083 3637 
Q 1888 3872 1631 3872 
Q 1388 3872 1227 3680 
Q 1066 3488 1066 3050 
Q 1066 2606 1241 2398 
Q 1416 2191 1678 2191 
Q 1931 2191 2104 2391 
Q 2278 2591 2278 2978 
z
" transform="scale(0.015625)"/>
      <path id="Arial-BoldMT-25" d="M 278 3450 
Q 278 4066 548 4362 
Q 819 4659 1281 4659 
Q 1759 4659 2029 4364 
Q 2300 4069 2300 3450 
Q 2300 2834 2029 2537 
Q 1759 2241 1297 2241 
Q 819 2241 548 2536 
Q 278 2831 278 3450 
z
M 963 3456 
Q 963 3009 1066 2856 
Q 1144 2744 1281 2744 
Q 1422 2744 1500 2856 
Q 1600 3009 1600 3456 
Q 1600 3903 1500 4053 
Q 1422 4169 1281 4169 
Q 1144 4169 1066 4056 
Q 963 3903 963 3456 
z
M 1950 -175 
L 1300 -175 
L 3741 4659 
L 4372 4659 
L 1950 -175 
z
M 3369 1028 
Q 3369 1644 3639 1941 
Q 3909 2238 4378 2238 
Q 4850 2238 5120 1941 
Q 5391 1644 5391 1028 
Q 5391 409 5120 112 
Q 4850 -184 4388 -184 
Q 3909 -184 3639 112 
Q 3369 409 3369 1028 
z
M 4053 1031 
Q 4053 584 4156 434 
Q 4234 319 4372 319 
Q 4513 319 4588 431 
Q 4691 584 4691 1031 
Q 4691 1478 4591 1631 
Q 4513 1744 4372 1744 
Q 4231 1744 4156 1631 
Q 4053 1478 4053 1031 
z
" transform="scale(0.015625)"/>
     </defs>
     <use xlink:href="#Arial-BoldMT-35"/>
     <use xlink:href="#Arial-BoldMT-36" transform="translate(55.615234 0)"/>
     <use xlink:href="#Arial-BoldMT-2e" transform="translate(111.230469 0)"/>
     <use xlink:href="#Arial-BoldMT-39" transform="translate(139.013672 0)"/>
     <use xlink:href="#Arial-BoldMT-25" transform="translate(194.628906 0)"/>
    </g>
   </g>
   <g id="text_2">
    <!-- Major -->
    <g style="fill: #262626" transform="translate(453.246887 637.142407) scale(0.09 -0.09)">
     <defs>
      <path id="Arial-BoldMT-4d" d="M 453 0 
L 453 4581 
L 1838 4581 
L 2669 1456 
L 3491 4581 
L 4878 4581 
L 4878 0 
L 4019 0 
L 4019 3606 
L 3109 0 
L 2219 0 
L 1313 3606 
L 1313 0 
L 453 0 
z
" transform="scale(0.015625)"/>
      <path id="Arial-BoldMT-6a" d="M 441 3769 
L 441 4581 
L 1319 4581 
L 1319 3769 
L 441 3769 
z
M 1319 3319 
L 1319 103 
Q 1319 -531 1236 -792 
Q 1153 -1053 917 -1200 
Q 681 -1347 316 -1347 
Q 184 -1347 32 -1323 
Q -119 -1300 -294 -1253 
L -141 -503 
Q -78 -516 -23 -523 
Q 31 -531 78 -531 
Q 213 -531 298 -473 
Q 384 -416 412 -334 
Q 441 -253 441 153 
L 441 3319 
L 1319 3319 
z
" transform="scale(0.015625)"/>
     </defs>
     <use xlink:href="#Arial-BoldMT-4d"/>
     <use xlink:href="#Arial-BoldMT-61" transform="translate(83.300781 0)"/>
     <use xlink:href="#Arial-BoldMT-6a" transform="translate(138.916016 0)"/>
     <use xlink:href="#Arial-BoldMT-6f" transform="translate(166.699219 0)"/>
     <use xlink:href="#Arial-BoldMT-72" transform="translate(227.783203 0)"/>
    </g>
    <!-- 43.0% -->
    <g style="fill: #262626" transform="translate(452.488918 646.767063) scale(0.09 -0.09)">
     <defs>
      <path id="Arial-BoldMT-34" d="M 1994 0 
L 1994 922 
L 119 922 
L 119 1691 
L 2106 4600 
L 2844 4600 
L 2844 1694 
L 3413 1694 
L 3413 922 
L 2844 922 
L 2844 0 
L 1994 0 
z
M 1994 1694 
L 1994 3259 
L 941 1694 
L 1994 1694 
z
" transform="scale(0.015625)"/>
      <path id="Arial-BoldMT-33" d="M 241 1216 
L 1091 1319 
Q 1131 994 1309 822 
Q 1488 650 1741 650 
Q 2013 650 2198 856 
Q 2384 1063 2384 1413 
Q 2384 1744 2206 1937 
Q 2028 2131 1772 2131 
Q 1603 2131 1369 2066 
L 1466 2781 
Q 1822 2772 2009 2936 
Q 2197 3100 2197 3372 
Q 2197 3603 2059 3740 
Q 1922 3878 1694 3878 
Q 1469 3878 1309 3722 
Q 1150 3566 1116 3266 
L 306 3403 
Q 391 3819 561 4067 
Q 731 4316 1036 4458 
Q 1341 4600 1719 4600 
Q 2366 4600 2756 4188 
Q 3078 3850 3078 3425 
Q 3078 2822 2419 2463 
Q 2813 2378 3048 2084 
Q 3284 1791 3284 1375 
Q 3284 772 2843 347 
Q 2403 -78 1747 -78 
Q 1125 -78 715 280 
Q 306 638 241 1216 
z
" transform="scale(0.015625)"/>
      <path id="Arial-BoldMT-30" d="M 1756 4600 
Q 2422 4600 2797 4125 
Q 3244 3563 3244 2259 
Q 3244 959 2794 391 
Q 2422 -78 1756 -78 
Q 1088 -78 678 436 
Q 269 950 269 2269 
Q 269 3563 719 4131 
Q 1091 4600 1756 4600 
z
M 1756 3872 
Q 1597 3872 1472 3770 
Q 1347 3669 1278 3406 
Q 1188 3066 1188 2259 
Q 1188 1453 1269 1151 
Q 1350 850 1473 750 
Q 1597 650 1756 650 
Q 1916 650 2041 751 
Q 2166 853 2234 1116 
Q 2325 1453 2325 2259 
Q 2325 3066 2244 3367 
Q 2163 3669 2039 3770 
Q 1916 3872 1756 3872 
z
" transform="scale(0.015625)"/>
     </defs>
     <use xlink:href="#Arial-BoldMT-34"/>
     <use xlink:href="#Arial-BoldMT-33" transform="translate(55.615234 0)"/>
     <use xlink:href="#Arial-BoldMT-2e" transform="translate(111.230469 0)"/>
     <use xlink:href="#Arial-BoldMT-30" transform="translate(139.013672 0)"/>
     <use xlink:href="#Arial-BoldMT-25" transform="translate(194.628906 0)"/>
    </g>
   </g>
   <g id="text_3">
    <!-- bleeding -->
    <g style="fill: #262626" transform="translate(681.324981 276.741526) rotate(-302.534401) scale(0.07 -0.07)">
     <defs>
      <path id="ArialMT-62" d="M 941 0 
L 419 0 
L 419 4581 
L 981 4581 
L 981 2947 
Q 1338 3394 1891 3394 
Q 2197 3394 2470 3270 
Q 2744 3147 2920 2923 
Q 3097 2700 3197 2384 
Q 3297 2069 3297 1709 
Q 3297 856 2875 390 
Q 2453 -75 1863 -75 
Q 1275 -75 941 416 
L 941 0 
z
M 934 1684 
Q 934 1088 1097 822 
Q 1363 388 1816 388 
Q 2184 388 2453 708 
Q 2722 1028 2722 1663 
Q 2722 2313 2464 2622 
Q 2206 2931 1841 2931 
Q 1472 2931 1203 2611 
Q 934 2291 934 1684 
z
" transform="scale(0.015625)"/>
      <path id="ArialMT-6c" d="M 409 0 
L 409 4581 
L 972 4581 
L 972 0 
L 409 0 
z
" transform="scale(0.015625)"/>
      <path id="ArialMT-65" d="M 2694 1069 
L 3275 997 
Q 3138 488 2766 206 
Q 2394 -75 1816 -75 
Q 1088 -75 661 373 
Q 234 822 234 1631 
Q 234 2469 665 2931 
Q 1097 3394 1784 3394 
Q 2450 3394 2872 2941 
Q 3294 2488 3294 1666 
Q 3294 1616 3291 1516 
L 816 1516 
Q 847 969 1125 678 
Q 1403 388 1819 388 
Q 2128 388 2347 550 
Q 2566 713 2694 1069 
z
M 847 1978 
L 2700 1978 
Q 2663 2397 2488 2606 
Q 2219 2931 1791 2931 
Q 1403 2931 1139 2672 
Q 875 2413 847 1978 
z
" transform="scale(0.015625)"/>
      <path id="ArialMT-64" d="M 2575 0 
L 2575 419 
Q 2259 -75 1647 -75 
Q 1250 -75 917 144 
Q 584 363 401 755 
Q 219 1147 219 1656 
Q 219 2153 384 2558 
Q 550 2963 881 3178 
Q 1213 3394 1622 3394 
Q 1922 3394 2156 3267 
Q 2391 3141 2538 2938 
L 2538 4581 
L 3097 4581 
L 3097 0 
L 2575 0 
z
M 797 1656 
Q 797 1019 1065 703 
Q 1334 388 1700 388 
Q 2069 388 2326 689 
Q 2584 991 2584 1609 
Q 2584 2291 2321 2609 
Q 2059 2928 1675 2928 
Q 1300 2928 1048 2622 
Q 797 2316 797 1656 
z
" transform="scale(0.015625)"/>
      <path id="ArialMT-69" d="M 425 3934 
L 425 4581 
L 988 4581 
L 988 3934 
L 425 3934 
z
M 425 0 
L 425 3319 
L 988 3319 
L 988 0 
L 425 0 
z
" transform="scale(0.015625)"/>
      <path id="ArialMT-6e" d="M 422 0 
L 422 3319 
L 928 3319 
L 928 2847 
Q 1294 3394 1984 3394 
Q 2284 3394 2536 3286 
Q 2788 3178 2913 3003 
Q 3038 2828 3088 2588 
Q 3119 2431 3119 2041 
L 3119 0 
L 2556 0 
L 2556 2019 
Q 2556 2363 2490 2533 
Q 2425 2703 2258 2804 
Q 2091 2906 1866 2906 
Q 1506 2906 1245 2678 
Q 984 2450 984 1813 
L 984 0 
L 422 0 
z
" transform="scale(0.015625)"/>
      <path id="ArialMT-67" d="M 319 -275 
L 866 -356 
Q 900 -609 1056 -725 
Q 1266 -881 1628 -881 
Q 2019 -881 2231 -725 
Q 2444 -569 2519 -288 
Q 2563 -116 2559 434 
Q 2191 0 1641 0 
Q 956 0 581 494 
Q 206 988 206 1678 
Q 206 2153 378 2554 
Q 550 2956 876 3175 
Q 1203 3394 1644 3394 
Q 2231 3394 2613 2919 
L 2613 3319 
L 3131 3319 
L 3131 450 
Q 3131 -325 2973 -648 
Q 2816 -972 2473 -1159 
Q 2131 -1347 1631 -1347 
Q 1038 -1347 672 -1080 
Q 306 -813 319 -275 
z
M 784 1719 
Q 784 1066 1043 766 
Q 1303 466 1694 466 
Q 2081 466 2343 764 
Q 2606 1063 2606 1700 
Q 2606 2309 2336 2618 
Q 2066 2928 1684 2928 
Q 1309 2928 1046 2623 
Q 784 2319 784 1719 
z
" transform="scale(0.015625)"/>
     </defs>
     <use xlink:href="#ArialMT-62"/>
     <use xlink:href="#ArialMT-6c" transform="translate(55.615234 0)"/>
     <use xlink:href="#ArialMT-65" transform="translate(77.832031 0)"/>
     <use xlink:href="#ArialMT-65" transform="translate(133.447266 0)"/>
     <use xlink:href="#ArialMT-64" transform="translate(189.0625 0)"/>
     <use xlink:href="#ArialMT-69" transform="translate(244.677734 0)"/>
     <use xlink:href="#ArialMT-6e" transform="translate(266.894531 0)"/>
     <use xlink:href="#ArialMT-67" transform="translate(322.509766 0)"/>
    </g>
   </g>
   <g id="text_4">
    <!-- hypotensio -->
    <g style="fill: #262626" transform="translate(407.332237 143.793815) rotate(-0.221139) scale(0.07 -0.07)">
     <defs>
      <path id="ArialMT-68" d="M 422 0 
L 422 4581 
L 984 4581 
L 984 2938 
Q 1378 3394 1978 3394 
Q 2347 3394 2619 3248 
Q 2891 3103 3008 2847 
Q 3125 2591 3125 2103 
L 3125 0 
L 2563 0 
L 2563 2103 
Q 2563 2525 2380 2717 
Q 2197 2909 1863 2909 
Q 1613 2909 1392 2779 
Q 1172 2650 1078 2428 
Q 984 2206 984 1816 
L 984 0 
L 422 0 
z
" transform="scale(0.015625)"/>
      <path id="ArialMT-79" d="M 397 -1278 
L 334 -750 
Q 519 -800 656 -800 
Q 844 -800 956 -737 
Q 1069 -675 1141 -563 
Q 1194 -478 1313 -144 
Q 1328 -97 1363 -6 
L 103 3319 
L 709 3319 
L 1400 1397 
Q 1534 1031 1641 628 
Q 1738 1016 1872 1384 
L 2581 3319 
L 3144 3319 
L 1881 -56 
Q 1678 -603 1566 -809 
Q 1416 -1088 1222 -1217 
Q 1028 -1347 759 -1347 
Q 597 -1347 397 -1278 
z
" transform="scale(0.015625)"/>
      <path id="ArialMT-70" d="M 422 -1272 
L 422 3319 
L 934 3319 
L 934 2888 
Q 1116 3141 1344 3267 
Q 1572 3394 1897 3394 
Q 2322 3394 2647 3175 
Q 2972 2956 3137 2557 
Q 3303 2159 3303 1684 
Q 3303 1175 3120 767 
Q 2938 359 2589 142 
Q 2241 -75 1856 -75 
Q 1575 -75 1351 44 
Q 1128 163 984 344 
L 984 -1272 
L 422 -1272 
z
M 931 1641 
Q 931 1000 1190 694 
Q 1450 388 1819 388 
Q 2194 388 2461 705 
Q 2728 1022 2728 1688 
Q 2728 2322 2467 2637 
Q 2206 2953 1844 2953 
Q 1484 2953 1207 2617 
Q 931 2281 931 1641 
z
" transform="scale(0.015625)"/>
      <path id="ArialMT-6f" d="M 213 1659 
Q 213 2581 725 3025 
Q 1153 3394 1769 3394 
Q 2453 3394 2887 2945 
Q 3322 2497 3322 1706 
Q 3322 1066 3130 698 
Q 2938 331 2570 128 
Q 2203 -75 1769 -75 
Q 1072 -75 642 372 
Q 213 819 213 1659 
z
M 791 1659 
Q 791 1022 1069 705 
Q 1347 388 1769 388 
Q 2188 388 2466 706 
Q 2744 1025 2744 1678 
Q 2744 2294 2464 2611 
Q 2184 2928 1769 2928 
Q 1347 2928 1069 2612 
Q 791 2297 791 1659 
z
" transform="scale(0.015625)"/>
      <path id="ArialMT-74" d="M 1650 503 
L 1731 6 
Q 1494 -44 1306 -44 
Q 1000 -44 831 53 
Q 663 150 594 308 
Q 525 466 525 972 
L 525 2881 
L 113 2881 
L 113 3319 
L 525 3319 
L 525 4141 
L 1084 4478 
L 1084 3319 
L 1650 3319 
L 1650 2881 
L 1084 2881 
L 1084 941 
Q 1084 700 1114 631 
Q 1144 563 1211 522 
Q 1278 481 1403 481 
Q 1497 481 1650 503 
z
" transform="scale(0.015625)"/>
      <path id="ArialMT-73" d="M 197 991 
L 753 1078 
Q 800 744 1014 566 
Q 1228 388 1613 388 
Q 2000 388 2187 545 
Q 2375 703 2375 916 
Q 2375 1106 2209 1216 
Q 2094 1291 1634 1406 
Q 1016 1563 777 1677 
Q 538 1791 414 1992 
Q 291 2194 291 2438 
Q 291 2659 392 2848 
Q 494 3038 669 3163 
Q 800 3259 1026 3326 
Q 1253 3394 1513 3394 
Q 1903 3394 2198 3281 
Q 2494 3169 2634 2976 
Q 2775 2784 2828 2463 
L 2278 2388 
Q 2241 2644 2061 2787 
Q 1881 2931 1553 2931 
Q 1166 2931 1000 2803 
Q 834 2675 834 2503 
Q 834 2394 903 2306 
Q 972 2216 1119 2156 
Q 1203 2125 1616 2013 
Q 2213 1853 2448 1751 
Q 2684 1650 2818 1456 
Q 2953 1263 2953 975 
Q 2953 694 2789 445 
Q 2625 197 2315 61 
Q 2006 -75 1616 -75 
Q 969 -75 630 194 
Q 291 463 197 991 
z
" transform="scale(0.015625)"/>
     </defs>
     <use xlink:href="#ArialMT-68"/>
     <use xlink:href="#ArialMT-79" transform="translate(55.615234 0)"/>
     <use xlink:href="#ArialMT-70" transform="translate(105.615234 0)"/>
     <use xlink:href="#ArialMT-6f" transform="translate(161.230469 0)"/>
     <use xlink:href="#ArialMT-74" transform="translate(216.845703 0)"/>
     <use xlink:href="#ArialMT-65" transform="translate(244.628906 0)"/>
     <use xlink:href="#ArialMT-6e" transform="translate(300.244141 0)"/>
     <use xlink:href="#ArialMT-73" transform="translate(355.859375 0)"/>
     <use xlink:href="#ArialMT-69" transform="translate(405.859375 0)"/>
     <use xlink:href="#ArialMT-6f" transform="translate(428.076172 0)"/>
    </g>
   </g>
   <g id="text_5">
    <!-- hyperkalem -->
    <g style="fill: #262626" transform="translate(203.912043 235.333218) rotate(-41.840336) scale(0.07 -0.07)">
     <defs>
      <path id="ArialMT-72" d="M 416 0 
L 416 3319 
L 922 3319 
L 922 2816 
Q 1116 3169 1280 3281 
Q 1444 3394 1641 3394 
Q 1925 3394 2219 3213 
L 2025 2691 
Q 1819 2813 1613 2813 
Q 1428 2813 1281 2702 
Q 1134 2591 1072 2394 
Q 978 2094 978 1738 
L 978 0 
L 416 0 
z
" transform="scale(0.015625)"/>
      <path id="ArialMT-6b" d="M 425 0 
L 425 4581 
L 988 4581 
L 988 1969 
L 2319 3319 
L 3047 3319 
L 1778 2088 
L 3175 0 
L 2481 0 
L 1384 1697 
L 988 1316 
L 988 0 
L 425 0 
z
" transform="scale(0.015625)"/>
      <path id="ArialMT-61" d="M 2588 409 
Q 2275 144 1986 34 
Q 1697 -75 1366 -75 
Q 819 -75 525 192 
Q 231 459 231 875 
Q 231 1119 342 1320 
Q 453 1522 633 1644 
Q 813 1766 1038 1828 
Q 1203 1872 1538 1913 
Q 2219 1994 2541 2106 
Q 2544 2222 2544 2253 
Q 2544 2597 2384 2738 
Q 2169 2928 1744 2928 
Q 1347 2928 1158 2789 
Q 969 2650 878 2297 
L 328 2372 
Q 403 2725 575 2942 
Q 747 3159 1072 3276 
Q 1397 3394 1825 3394 
Q 2250 3394 2515 3294 
Q 2781 3194 2906 3042 
Q 3031 2891 3081 2659 
Q 3109 2516 3109 2141 
L 3109 1391 
Q 3109 606 3145 398 
Q 3181 191 3288 0 
L 2700 0 
Q 2613 175 2588 409 
z
M 2541 1666 
Q 2234 1541 1622 1453 
Q 1275 1403 1131 1340 
Q 988 1278 909 1158 
Q 831 1038 831 891 
Q 831 666 1001 516 
Q 1172 366 1500 366 
Q 1825 366 2078 508 
Q 2331 650 2450 897 
Q 2541 1088 2541 1459 
L 2541 1666 
z
" transform="scale(0.015625)"/>
      <path id="ArialMT-6d" d="M 422 0 
L 422 3319 
L 925 3319 
L 925 2853 
Q 1081 3097 1340 3245 
Q 1600 3394 1931 3394 
Q 2300 3394 2536 3241 
Q 2772 3088 2869 2813 
Q 3263 3394 3894 3394 
Q 4388 3394 4653 3120 
Q 4919 2847 4919 2278 
L 4919 0 
L 4359 0 
L 4359 2091 
Q 4359 2428 4304 2576 
Q 4250 2725 4106 2815 
Q 3963 2906 3769 2906 
Q 3419 2906 3187 2673 
Q 2956 2441 2956 1928 
L 2956 0 
L 2394 0 
L 2394 2156 
Q 2394 2531 2256 2718 
Q 2119 2906 1806 2906 
Q 1569 2906 1367 2781 
Q 1166 2656 1075 2415 
Q 984 2175 984 1722 
L 984 0 
L 422 0 
z
" transform="scale(0.015625)"/>
     </defs>
     <use xlink:href="#ArialMT-68"/>
     <use xlink:href="#ArialMT-79" transform="translate(55.615234 0)"/>
     <use xlink:href="#ArialMT-70" transform="translate(105.615234 0)"/>
     <use xlink:href="#ArialMT-65" transform="translate(161.230469 0)"/>
     <use xlink:href="#ArialMT-72" transform="translate(216.845703 0)"/>
     <use xlink:href="#ArialMT-6b" transform="translate(250.146484 0)"/>
     <use xlink:href="#ArialMT-61" transform="translate(300.146484 0)"/>
     <use xlink:href="#ArialMT-6c" transform="translate(355.761719 0)"/>
     <use xlink:href="#ArialMT-65" transform="translate(377.978516 0)"/>
     <use xlink:href="#ArialMT-6d" transform="translate(433.59375 0)"/>
    </g>
   </g>
   <g id="text_6">
    <!-- cns -->
    <g style="fill: #262626" transform="translate(127.721676 350.887217) rotate(-69.62557) scale(0.07 -0.07)">
     <defs>
      <path id="ArialMT-63" d="M 2588 1216 
L 3141 1144 
Q 3050 572 2676 248 
Q 2303 -75 1759 -75 
Q 1078 -75 664 370 
Q 250 816 250 1647 
Q 250 2184 428 2587 
Q 606 2991 970 3192 
Q 1334 3394 1763 3394 
Q 2303 3394 2647 3120 
Q 2991 2847 3088 2344 
L 2541 2259 
Q 2463 2594 2264 2762 
Q 2066 2931 1784 2931 
Q 1359 2931 1093 2626 
Q 828 2322 828 1663 
Q 828 994 1084 691 
Q 1341 388 1753 388 
Q 2084 388 2306 591 
Q 2528 794 2588 1216 
z
" transform="scale(0.015625)"/>
     </defs>
     <use xlink:href="#ArialMT-63"/>
     <use xlink:href="#ArialMT-6e" transform="translate(50 0)"/>
     <use xlink:href="#ArialMT-73" transform="translate(105.615234 0)"/>
    </g>
    <!-- depres -->
    <g style="fill: #262626" transform="translate(132.832957 358.390529) rotate(-69.62557) scale(0.07 -0.07)">
     <use xlink:href="#ArialMT-64"/>
     <use xlink:href="#ArialMT-65" transform="translate(55.615234 0)"/>
     <use xlink:href="#ArialMT-70" transform="translate(111.230469 0)"/>
     <use xlink:href="#ArialMT-72" transform="translate(166.845703 0)"/>
     <use xlink:href="#ArialMT-65" transform="translate(200.146484 0)"/>
     <use xlink:href="#ArialMT-73" transform="translate(255.761719 0)"/>
    </g>
   </g>
   <g id="text_7">
    <!-- nephrotoxi -->
    <g style="fill: #262626" transform="translate(113.436813 469.090903) rotate(-89.465902) scale(0.07 -0.07)">
     <defs>
      <path id="ArialMT-78" d="M 47 0 
L 1259 1725 
L 138 3319 
L 841 3319 
L 1350 2541 
Q 1494 2319 1581 2169 
Q 1719 2375 1834 2534 
L 2394 3319 
L 3066 3319 
L 1919 1756 
L 3153 0 
L 2463 0 
L 1781 1031 
L 1600 1309 
L 728 0 
L 47 0 
z
" transform="scale(0.015625)"/>
     </defs>
     <use xlink:href="#ArialMT-6e"/>
     <use xlink:href="#ArialMT-65" transform="translate(55.615234 0)"/>
     <use xlink:href="#ArialMT-70" transform="translate(111.230469 0)"/>
     <use xlink:href="#ArialMT-68" transform="translate(166.845703 0)"/>
     <use xlink:href="#ArialMT-72" transform="translate(222.460938 0)"/>
     <use xlink:href="#ArialMT-6f" transform="translate(255.761719 0)"/>
     <use xlink:href="#ArialMT-74" transform="translate(311.376953 0)"/>
     <use xlink:href="#ArialMT-6f" transform="translate(339.160156 0)"/>
     <use xlink:href="#ArialMT-78" transform="translate(394.775391 0)"/>
     <use xlink:href="#ArialMT-69" transform="translate(444.775391 0)"/>
    </g>
   </g>
   <g id="text_8">
    <!-- hypotensio -->
    <g style="fill: #262626" transform="translate(329.911999 753.071644) rotate(-159.082834) scale(0.07 -0.07)">
     <use xlink:href="#ArialMT-68"/>
     <use xlink:href="#ArialMT-79" transform="translate(55.615234 0)"/>
     <use xlink:href="#ArialMT-70" transform="translate(105.615234 0)"/>
     <use xlink:href="#ArialMT-6f" transform="translate(161.230469 0)"/>
     <use xlink:href="#ArialMT-74" transform="translate(216.845703 0)"/>
     <use xlink:href="#ArialMT-65" transform="translate(244.628906 0)"/>
     <use xlink:href="#ArialMT-6e" transform="translate(300.244141 0)"/>
     <use xlink:href="#ArialMT-73" transform="translate(355.859375 0)"/>
     <use xlink:href="#ArialMT-69" transform="translate(405.859375 0)"/>
     <use xlink:href="#ArialMT-6f" transform="translate(428.076172 0)"/>
    </g>
   </g>
   <g id="text_9">
    <!-- hyperkalem -->
    <g style="fill: #262626" transform="translate(647.578858 675.410415) rotate(-221.986909) scale(0.07 -0.07)">
     <use xlink:href="#ArialMT-68"/>
     <use xlink:href="#ArialMT-79" transform="translate(55.615234 0)"/>
     <use xlink:href="#ArialMT-70" transform="translate(105.615234 0)"/>
     <use xlink:href="#ArialMT-65" transform="translate(161.230469 0)"/>
     <use xlink:href="#ArialMT-72" transform="translate(216.845703 0)"/>
     <use xlink:href="#ArialMT-6b" transform="translate(250.146484 0)"/>
     <use xlink:href="#ArialMT-61" transform="translate(300.146484 0)"/>
     <use xlink:href="#ArialMT-6c" transform="translate(355.761719 0)"/>
     <use xlink:href="#ArialMT-65" transform="translate(377.978516 0)"/>
     <use xlink:href="#ArialMT-6d" transform="translate(433.59375 0)"/>
    </g>
   </g>
   <g id="text_10">
    <!-- nephrotoxi -->
    <g style="fill: #262626" transform="translate(731.037554 520.202266) rotate(-255.073038) scale(0.07 -0.07)">
     <use xlink:href="#ArialMT-6e"/>
     <use xlink:href="#ArialMT-65" transform="translate(55.615234 0)"/>
     <use xlink:href="#ArialMT-70" transform="translate(111.230469 0)"/>
     <use xlink:href="#ArialMT-68" transform="translate(166.845703 0)"/>
     <use xlink:href="#ArialMT-72" transform="translate(222.460938 0)"/>
     <use xlink:href="#ArialMT-6f" transform="translate(255.761719 0)"/>
     <use xlink:href="#ArialMT-74" transform="translate(311.376953 0)"/>
     <use xlink:href="#ArialMT-6f" transform="translate(339.160156 0)"/>
     <use xlink:href="#ArialMT-78" transform="translate(394.775391 0)"/>
     <use xlink:href="#ArialMT-69" transform="translate(444.775391 0)"/>
    </g>
   </g>
   <g id="text_11">
    <!-- DDI Severity Distribution with Phenotype Breakdown -->
    <g style="fill: #262626" transform="translate(262.4515 17.391563) scale(0.14 -0.14)">
     <defs>
      <path id="ArialMT-44" d="M 494 0 
L 494 4581 
L 2072 4581 
Q 2606 4581 2888 4516 
Q 3281 4425 3559 4188 
Q 3922 3881 4101 3404 
Q 4281 2928 4281 2316 
Q 4281 1794 4159 1391 
Q 4038 988 3847 723 
Q 3656 459 3429 307 
Q 3203 156 2883 78 
Q 2563 0 2147 0 
L 494 0 
z
M 1100 541 
L 2078 541 
Q 2531 541 2789 625 
Q 3047 709 3200 863 
Q 3416 1078 3536 1442 
Q 3656 1806 3656 2325 
Q 3656 3044 3420 3430 
Q 3184 3816 2847 3947 
Q 2603 4041 2063 4041 
L 1100 4041 
L 1100 541 
z
" transform="scale(0.015625)"/>
      <path id="ArialMT-49" d="M 597 0 
L 597 4581 
L 1203 4581 
L 1203 0 
L 597 0 
z
" transform="scale(0.015625)"/>
      <path id="ArialMT-20" transform="scale(0.015625)"/>
      <path id="ArialMT-53" d="M 288 1472 
L 859 1522 
Q 900 1178 1048 958 
Q 1197 738 1509 602 
Q 1822 466 2213 466 
Q 2559 466 2825 569 
Q 3091 672 3220 851 
Q 3350 1031 3350 1244 
Q 3350 1459 3225 1620 
Q 3100 1781 2813 1891 
Q 2628 1963 1997 2114 
Q 1366 2266 1113 2400 
Q 784 2572 623 2826 
Q 463 3081 463 3397 
Q 463 3744 659 4045 
Q 856 4347 1234 4503 
Q 1613 4659 2075 4659 
Q 2584 4659 2973 4495 
Q 3363 4331 3572 4012 
Q 3781 3694 3797 3291 
L 3216 3247 
Q 3169 3681 2898 3903 
Q 2628 4125 2100 4125 
Q 1550 4125 1298 3923 
Q 1047 3722 1047 3438 
Q 1047 3191 1225 3031 
Q 1400 2872 2139 2705 
Q 2878 2538 3153 2413 
Q 3553 2228 3743 1945 
Q 3934 1663 3934 1294 
Q 3934 928 3725 604 
Q 3516 281 3123 101 
Q 2731 -78 2241 -78 
Q 1619 -78 1198 103 
Q 778 284 539 648 
Q 300 1013 288 1472 
z
" transform="scale(0.015625)"/>
      <path id="ArialMT-76" d="M 1344 0 
L 81 3319 
L 675 3319 
L 1388 1331 
Q 1503 1009 1600 663 
Q 1675 925 1809 1294 
L 2547 3319 
L 3125 3319 
L 1869 0 
L 1344 0 
z
" transform="scale(0.015625)"/>
      <path id="ArialMT-75" d="M 2597 0 
L 2597 488 
Q 2209 -75 1544 -75 
Q 1250 -75 995 37 
Q 741 150 617 320 
Q 494 491 444 738 
Q 409 903 409 1263 
L 409 3319 
L 972 3319 
L 972 1478 
Q 972 1038 1006 884 
Q 1059 663 1231 536 
Q 1403 409 1656 409 
Q 1909 409 2131 539 
Q 2353 669 2445 892 
Q 2538 1116 2538 1541 
L 2538 3319 
L 3100 3319 
L 3100 0 
L 2597 0 
z
" transform="scale(0.015625)"/>
      <path id="ArialMT-77" d="M 1034 0 
L 19 3319 
L 600 3319 
L 1128 1403 
L 1325 691 
Q 1338 744 1497 1375 
L 2025 3319 
L 2603 3319 
L 3100 1394 
L 3266 759 
L 3456 1400 
L 4025 3319 
L 4572 3319 
L 3534 0 
L 2950 0 
L 2422 1988 
L 2294 2553 
L 1622 0 
L 1034 0 
z
" transform="scale(0.015625)"/>
      <path id="ArialMT-50" d="M 494 0 
L 494 4581 
L 2222 4581 
Q 2678 4581 2919 4538 
Q 3256 4481 3484 4323 
Q 3713 4166 3852 3881 
Q 3991 3597 3991 3256 
Q 3991 2672 3619 2267 
Q 3247 1863 2275 1863 
L 1100 1863 
L 1100 0 
L 494 0 
z
M 1100 2403 
L 2284 2403 
Q 2872 2403 3119 2622 
Q 3366 2841 3366 3238 
Q 3366 3525 3220 3729 
Q 3075 3934 2838 4000 
Q 2684 4041 2272 4041 
L 1100 4041 
L 1100 2403 
z
" transform="scale(0.015625)"/>
      <path id="ArialMT-42" d="M 469 0 
L 469 4581 
L 2188 4581 
Q 2713 4581 3030 4442 
Q 3347 4303 3526 4014 
Q 3706 3725 3706 3409 
Q 3706 3116 3547 2856 
Q 3388 2597 3066 2438 
Q 3481 2316 3704 2022 
Q 3928 1728 3928 1328 
Q 3928 1006 3792 729 
Q 3656 453 3456 303 
Q 3256 153 2954 76 
Q 2653 0 2216 0 
L 469 0 
z
M 1075 2656 
L 2066 2656 
Q 2469 2656 2644 2709 
Q 2875 2778 2992 2937 
Q 3109 3097 3109 3338 
Q 3109 3566 3000 3739 
Q 2891 3913 2687 3977 
Q 2484 4041 1991 4041 
L 1075 4041 
L 1075 2656 
z
M 1075 541 
L 2216 541 
Q 2509 541 2628 563 
Q 2838 600 2978 687 
Q 3119 775 3209 942 
Q 3300 1109 3300 1328 
Q 3300 1584 3169 1773 
Q 3038 1963 2805 2039 
Q 2572 2116 2134 2116 
L 1075 2116 
L 1075 541 
z
" transform="scale(0.015625)"/>
     </defs>
     <use xlink:href="#ArialMT-44"/>
     <use xlink:href="#ArialMT-44" transform="translate(72.216797 0)"/>
     <use xlink:href="#ArialMT-49" transform="translate(144.433594 0)"/>
     <use xlink:href="#ArialMT-20" transform="translate(172.216797 0)"/>
     <use xlink:href="#ArialMT-53" transform="translate(200 0)"/>
     <use xlink:href="#ArialMT-65" transform="translate(266.699219 0)"/>
     <use xlink:href="#ArialMT-76" transform="translate(322.314453 0)"/>
     <use xlink:href="#ArialMT-65" transform="translate(372.314453 0)"/>
     <use xlink:href="#ArialMT-72" transform="translate(427.929688 0)"/>
     <use xlink:href="#ArialMT-69" transform="translate(461.230469 0)"/>
     <use xlink:href="#ArialMT-74" transform="translate(483.447266 0)"/>
     <use xlink:href="#ArialMT-79" transform="translate(511.230469 0)"/>
     <use xlink:href="#ArialMT-20" transform="translate(561.230469 0)"/>
     <use xlink:href="#ArialMT-44" transform="translate(589.013672 0)"/>
     <use xlink:href="#ArialMT-69" transform="translate(661.230469 0)"/>
     <use xlink:href="#ArialMT-73" transform="translate(683.447266 0)"/>
     <use xlink:href="#ArialMT-74" transform="translate(733.447266 0)"/>
     <use xlink:href="#ArialMT-72" transform="translate(761.230469 0)"/>
     <use xlink:href="#ArialMT-69" transform="translate(794.53125 0)"/>
     <use xlink:href="#ArialMT-62" transform="translate(816.748047 0)"/>
     <use xlink:href="#ArialMT-75" transform="translate(872.363281 0)"/>
     <use xlink:href="#ArialMT-74" transform="translate(927.978516 0)"/>
     <use xlink:href="#ArialMT-69" transform="translate(955.761719 0)"/>
     <use xlink:href="#ArialMT-6f" transform="translate(977.978516 0)"/>
     <use xlink:href="#ArialMT-6e" transform="translate(1033.59375 0)"/>
     <use xlink:href="#ArialMT-20" transform="translate(1089.208984 0)"/>
     <use xlink:href="#ArialMT-77" transform="translate(1116.992188 0)"/>
     <use xlink:href="#ArialMT-69" transform="translate(1189.208984 0)"/>
     <use xlink:href="#ArialMT-74" transform="translate(1211.425781 0)"/>
     <use xlink:href="#ArialMT-68" transform="translate(1239.208984 0)"/>
     <use xlink:href="#ArialMT-20" transform="translate(1294.824219 0)"/>
     <use xlink:href="#ArialMT-50" transform="translate(1322.607422 0)"/>
     <use xlink:href="#ArialMT-68" transform="translate(1389.306641 0)"/>
     <use xlink:href="#ArialMT-65" transform="translate(1444.921875 0)"/>
     <use xlink:href="#ArialMT-6e" transform="translate(1500.537109 0)"/>
     <use xlink:href="#ArialMT-6f" transform="translate(1556.152344 0)"/>
     <use xlink:href="#ArialMT-74" transform="translate(1611.767578 0)"/>
     <use xlink:href="#ArialMT-79" transform="translate(1639.550781 0)"/>
     <use xlink:href="#ArialMT-70" transform="translate(1689.550781 0)"/>
     <use xlink:href="#ArialMT-65" transform="translate(1745.166016 0)"/>
     <use xlink:href="#ArialMT-20" transform="translate(1800.78125 0)"/>
     <use xlink:href="#ArialMT-42" transform="translate(1828.564453 0)"/>
     <use xlink:href="#ArialMT-72" transform="translate(1895.263672 0)"/>
     <use xlink:href="#ArialMT-65" transform="translate(1928.564453 0)"/>
     <use xlink:href="#ArialMT-61" transform="translate(1984.179688 0)"/>
     <use xlink:href="#ArialMT-6b" transform="translate(2039.794922 0)"/>
     <use xlink:href="#ArialMT-64" transform="translate(2089.794922 0)"/>
     <use xlink:href="#ArialMT-6f" transform="translate(2145.410156 0)"/>
     <use xlink:href="#ArialMT-77" transform="translate(2201.025391 0)"/>
     <use xlink:href="#ArialMT-6e" transform="translate(2273.242188 0)"/>
    </g>
   </g>
   <g id="legend_1">
    <g id="patch_2">
     <path d="M 903.994538 53.549375 
L 923.994538 53.549375 
L 923.994538 46.549375 
L 903.994538 46.549375 
z
" style="fill: #d62728"/>
    </g>
    <g id="text_12">
     <!-- Contraindicated -->
     <g style="fill: #262626" transform="translate(931.994538 53.549375) scale(0.1 -0.1)">
      <defs>
       <path id="ArialMT-43" d="M 3763 1606 
L 4369 1453 
Q 4178 706 3683 314 
Q 3188 -78 2472 -78 
Q 1731 -78 1267 223 
Q 803 525 561 1097 
Q 319 1669 319 2325 
Q 319 3041 592 3573 
Q 866 4106 1370 4382 
Q 1875 4659 2481 4659 
Q 3169 4659 3637 4309 
Q 4106 3959 4291 3325 
L 3694 3184 
Q 3534 3684 3231 3912 
Q 2928 4141 2469 4141 
Q 1941 4141 1586 3887 
Q 1231 3634 1087 3207 
Q 944 2781 944 2328 
Q 944 1744 1114 1308 
Q 1284 872 1643 656 
Q 2003 441 2422 441 
Q 2931 441 3284 734 
Q 3638 1028 3763 1606 
z
" transform="scale(0.015625)"/>
      </defs>
      <use xlink:href="#ArialMT-43"/>
      <use xlink:href="#ArialMT-6f" transform="translate(72.216797 0)"/>
      <use xlink:href="#ArialMT-6e" transform="translate(127.832031 0)"/>
      <use xlink:href="#ArialMT-74" transform="translate(183.447266 0)"/>
      <use xlink:href="#ArialMT-72" transform="translate(211.230469 0)"/>
      <use xlink:href="#ArialMT-61" transform="translate(244.53125 0)"/>
      <use xlink:href="#ArialMT-69" transform="translate(300.146484 0)"/>
      <use xlink:href="#ArialMT-6e" transform="translate(322.363281 0)"/>
      <use xlink:href="#ArialMT-64" transform="translate(377.978516 0)"/>
      <use xlink:href="#ArialMT-69" transform="translate(433.59375 0)"/>
      <use xlink:href="#ArialMT-63" transform="translate(455.810547 0)"/>
      <use xlink:href="#ArialMT-61" transform="translate(505.810547 0)"/>
      <use xlink:href="#ArialMT-74" transform="translate(561.425781 0)"/>
      <use xlink:href="#ArialMT-65" transform="translate(589.208984 0)"/>
      <use xlink:href="#ArialMT-64" transform="translate(644.824219 0)"/>
     </g>
    </g>
    <g id="patch_3">
     <path d="M 903.994538 67.694688 
L 923.994538 67.694688 
L 923.994538 60.694688 
L 903.994538 60.694688 
z
" style="fill: #ff7f0e"/>
    </g>
    <g id="text_13">
     <!-- Major -->
     <g style="fill: #262626" transform="translate(931.994538 67.694688) scale(0.1 -0.1)">
      <defs>
       <path id="ArialMT-4d" d="M 475 0 
L 475 4581 
L 1388 4581 
L 2472 1338 
Q 2622 884 2691 659 
Q 2769 909 2934 1394 
L 4031 4581 
L 4847 4581 
L 4847 0 
L 4263 0 
L 4263 3834 
L 2931 0 
L 2384 0 
L 1059 3900 
L 1059 0 
L 475 0 
z
" transform="scale(0.015625)"/>
       <path id="ArialMT-6a" d="M 419 3928 
L 419 4581 
L 981 4581 
L 981 3928 
L 419 3928 
z
M -294 -1288 
L -188 -809 
Q -19 -853 78 -853 
Q 250 -853 334 -739 
Q 419 -625 419 -169 
L 419 3319 
L 981 3319 
L 981 -181 
Q 981 -794 822 -1034 
Q 619 -1347 147 -1347 
Q -81 -1347 -294 -1288 
z
" transform="scale(0.015625)"/>
      </defs>
      <use xlink:href="#ArialMT-4d"/>
      <use xlink:href="#ArialMT-61" transform="translate(83.300781 0)"/>
      <use xlink:href="#ArialMT-6a" transform="translate(138.916016 0)"/>
      <use xlink:href="#ArialMT-6f" transform="translate(161.132812 0)"/>
      <use xlink:href="#ArialMT-72" transform="translate(216.748047 0)"/>
     </g>
    </g>
    <g id="patch_4">
     <path d="M 903.994538 81.957188 
L 923.994538 81.957188 
L 923.994538 74.957188 
L 903.994538 74.957188 
z
" style="fill: #2ca02c"/>
    </g>
    <g id="text_14">
     <!-- Moderate -->
     <g style="fill: #262626" transform="translate(931.994538 81.957188) scale(0.1 -0.1)">
      <use xlink:href="#ArialMT-4d"/>
      <use xlink:href="#ArialMT-6f" transform="translate(83.300781 0)"/>
      <use xlink:href="#ArialMT-64" transform="translate(138.916016 0)"/>
      <use xlink:href="#ArialMT-65" transform="translate(194.53125 0)"/>
      <use xlink:href="#ArialMT-72" transform="translate(250.146484 0)"/>
      <use xlink:href="#ArialMT-61" transform="translate(283.447266 0)"/>
      <use xlink:href="#ArialMT-74" transform="translate(339.0625 0)"/>
      <use xlink:href="#ArialMT-65" transform="translate(366.845703 0)"/>
     </g>
    </g>
    <g id="patch_5">
     <path d="M 903.994538 96.1025 
L 923.994538 96.1025 
L 923.994538 89.1025 
L 903.994538 89.1025 
z
" style="fill: #1f77b4"/>
    </g>
    <g id="text_15">
     <!-- Minor -->
     <g style="fill: #262626" transform="translate(931.994538 96.1025) scale(0.1 -0.1)">
      <use xlink:href="#ArialMT-4d"/>
      <use xlink:href="#ArialMT-69" transform="translate(83.300781 0)"/>
      <use xlink:href="#ArialMT-6e" transform="translate(105.517578 0)"/>
      <use xlink:href="#ArialMT-6f" transform="translate(161.132812 0)"/>
      <use xlink:href="#ArialMT-72" transform="translate(216.748047 0)"/>
     </g>
    </g>
   </g>
  </g>
 </g>
 <defs>
  <clipPath id="pe0b4a2ecd0">
   <path d="M 843.728 455.655563 
C 843.728 400.729637 832.90879 346.337797 811.889549 295.592859 
C 790.870307 244.847921 760.059805 198.736746 721.221311 159.898252 
C 682.382817 121.059758 636.271641 90.249255 585.526703 69.230014 
C 534.781765 48.210772 480.389925 37.391563 425.464 37.391563 
C 370.538075 37.391563 316.146235 48.210772 265.401297 69.230014 
C 214.656359 90.249255 168.545183 121.059758 129.706689 159.898252 
C 90.868195 198.736746 60.057693 244.847921 39.038451 295.592859 
C 18.01921 346.337797 7.2 400.729637 7.2 455.655562 
C 7.2 510.581488 18.01921 564.973328 39.038451 615.718266 
C 60.057693 666.463204 90.868195 712.574379 129.706689 751.412873 
C 168.545183 790.251367 214.656359 821.06187 265.401297 842.081111 
C 316.146235 863.100353 370.538075 873.919563 425.464 873.919563 
C 480.389925 873.919563 534.781765 863.100353 585.526703 842.081111 
C 636.271641 821.06187 682.382817 790.251367 721.221311 751.412873 
C 760.059805 712.574379 790.870307 666.463204 811.889549 615.718266 
C 832.90879 564.973328 843.728 510.581488 843.728 455.655563 
M 425.464 455.655563 
C 425.464 455.655563 425.464 455.655563 425.464 455.655563 
C 425.464 455.655563 425.464 455.655563 425.464 455.655563 
C 425.464 455.655563 425.464 455.655563 425.464 455.655563 
C 425.464 455.655563 425.464 455.655563 425.464 455.655563 
C 425.464 455.655563 425.464 455.655563 425.464 455.655563 
C 425.464 455.655563 425.464 455.655563 425.464 455.655563 
C 425.464 455.655563 425.464 455.655563 425.464 455.655563 
C 425.464 455.655563 425.464 455.655563 425.464 455.655563 
C 425.464 455.655563 425.464 455.655563 425.464 455.655563 
C 425.464 455.655563 425.464 455.655563 425.464 455.655563 
C 425.464 455.655563 425.464 455.655563 425.464 455.655563 
C 425.464 455.655563 425.464 455.655563 425.464 455.655563 
C 425.464 455.655563 425.464 455.655563 425.464 455.655563 
C 425.464 455.655563 425.464 455.655563 425.464 455.655563 
C 425.464 455.655563 425.464 455.655563 425.464 455.655563 
C 425.464 455.655563 425.464 455.655563 425.464 455.655563 
z
"/>
  </clipPath>
 </defs>
</svg>
