<?xml version="1.0" encoding="utf-8" standalone="no"?>
<!DOCTYPE svg PUBLIC "-//W3C//DTD SVG 1.1//EN"
  "http://www.w3.org/Graphics/SVG/1.1/DTD/svg11.dtd">
<svg xmlns:xlink="http://www.w3.org/1999/xlink" width="996.258125pt" height="420.045469pt" viewBox="0 0 996.258125 420.045469" xmlns="http://www.w3.org/2000/svg" version="1.1">
 <metadata>
  <rdf:RDF xmlns:dc="http://purl.org/dc/elements/1.1/" xmlns:cc="http://creativecommons.org/ns#" xmlns:rdf="http://www.w3.org/1999/02/22-rdf-syntax-ns#">
   <cc:Work>
    <dc:type rdf:resource="http://purl.org/dc/dcmitype/StillImage"/>
    <dc:date>2026-02-12T22:59:58.776647</dc:date>
    <dc:format>image/svg+xml</dc:format>
    <dc:creator>
     <cc:Agent>
      <dc:title>Matplotlib v3.10.8, https://matplotlib.org/</dc:title>
     </cc:Agent>
    </dc:creator>
   </cc:Work>
  </rdf:RDF>
 </metadata>
 <defs>
  <style type="text/css">*{stroke-linejoin: round; stroke-linecap: butt}</style>
 </defs>
 <g id="figure_1">
  <g id="patch_1">
   <path d="M 0 420.045469 
L 996.258125 420.045469 
L 996.258125 0 
L 0 0 
z
" style="fill: #ffffff"/>
  </g>
  <g id="axes_1">
   <g id="patch_2">
    <path d="M 43.128125 382.1475 
L 488.418125 382.1475 
L 488.418125 24.8475 
L 43.128125 24.8475 
z
" style="fill: #ffffff"/>
   </g>
   <g id="matplotlib.axis_1">
    <g id="xtick_1">
     <g id="line2d_1"/>
     <g id="text_1">
      <!-- Cardiovascular -->
      <g style="fill: #262626" transform="translate(117.770781 393.521094) scale(0.11 -0.11)">
       <defs>
        <path id="ArialMT-43" d="M 3763 1606 
L 4369 1453 
Q 4178 706 3683 314 
Q 3188 -78 2472 -78 
Q 1731 -78 1267 223 
Q 803 525 561 1097 
Q 319 1669 319 2325 
Q 319 3041 592 3573 
Q 866 4106 1370 4382 
Q 1875 4659 2481 4659 
Q 3169 4659 3637 4309 
Q 4106 3959 4291 3325 
L 3694 3184 
Q 3534 3684 3231 3912 
Q 2928 4141 2469 4141 
Q 1941 4141 1586 3887 
Q 1231 3634 1087 3207 
Q 944 2781 944 2328 
Q 944 1744 1114 1308 
Q 1284 872 1643 656 
Q 2003 441 2422 441 
Q 2931 441 3284 734 
Q 3638 1028 3763 1606 
z
" transform="scale(0.015625)"/>
        <path id="ArialMT-61" d="M 2588 409 
Q 2275 144 1986 34 
Q 1697 -75 1366 -75 
Q 819 -75 525 192 
Q 231 459 231 875 
Q 231 1119 342 1320 
Q 453 1522 633 1644 
Q 813 1766 1038 1828 
Q 1203 1872 1538 1913 
Q 2219 1994 2541 2106 
Q 2544 2222 2544 2253 
Q 2544 2597 2384 2738 
Q 2169 2928 1744 2928 
Q 1347 2928 1158 2789 
Q 969 2650 878 2297 
L 328 2372 
Q 403 2725 575 2942 
Q 747 3159 1072 3276 
Q 1397 3394 1825 3394 
Q 2250 3394 2515 3294 
Q 2781 3194 2906 3042 
Q 3031 2891 3081 2659 
Q 3109 2516 3109 2141 
L 3109 1391 
Q 3109 606 3145 398 
Q 3181 191 3288 0 
L 2700 0 
Q 2613 175 2588 409 
z
M 2541 1666 
Q 2234 1541 1622 1453 
Q 1275 1403 1131 1340 
Q 988 1278 909 1158 
Q 831 1038 831 891 
Q 831 666 1001 516 
Q 1172 366 1500 366 
Q 1825 366 2078 508 
Q 2331 650 2450 897 
Q 2541 1088 2541 1459 
L 2541 1666 
z
" transform="scale(0.015625)"/>
        <path id="ArialMT-72" d="M 416 0 
L 416 3319 
L 922 3319 
L 922 2816 
Q 1116 3169 1280 3281 
Q 1444 3394 1641 3394 
Q 1925 3394 2219 3213 
L 2025 2691 
Q 1819 2813 1613 2813 
Q 1428 2813 1281 2702 
Q 1134 2591 1072 2394 
Q 978 2094 978 1738 
L 978 0 
L 416 0 
z
" transform="scale(0.015625)"/>
        <path id="ArialMT-64" d="M 2575 0 
L 2575 419 
Q 2259 -75 1647 -75 
Q 1250 -75 917 144 
Q 584 363 401 755 
Q 219 1147 219 1656 
Q 219 2153 384 2558 
Q 550 2963 881 3178 
Q 1213 3394 1622 3394 
Q 1922 3394 2156 3267 
Q 2391 3141 2538 2938 
L 2538 4581 
L 3097 4581 
L 3097 0 
L 2575 0 
z
M 797 1656 
Q 797 1019 1065 703 
Q 1334 388 1700 388 
Q 2069 388 2326 689 
Q 2584 991 2584 1609 
Q 2584 2291 2321 2609 
Q 2059 2928 1675 2928 
Q 1300 2928 1048 2622 
Q 797 2316 797 1656 
z
" transform="scale(0.015625)"/>
        <path id="ArialMT-69" d="M 425 3934 
L 425 4581 
L 988 4581 
L 988 3934 
L 425 3934 
z
M 425 0 
L 425 3319 
L 988 3319 
L 988 0 
L 425 0 
z
" transform="scale(0.015625)"/>
        <path id="ArialMT-6f" d="M 213 1659 
Q 213 2581 725 3025 
Q 1153 3394 1769 3394 
Q 2453 3394 2887 2945 
Q 3322 2497 3322 1706 
Q 3322 1066 3130 698 
Q 2938 331 2570 128 
Q 2203 -75 1769 -75 
Q 1072 -75 642 372 
Q 213 819 213 1659 
z
M 791 1659 
Q 791 1022 1069 705 
Q 1347 388 1769 388 
Q 2188 388 2466 706 
Q 2744 1025 2744 1678 
Q 2744 2294 2464 2611 
Q 2184 2928 1769 2928 
Q 1347 2928 1069 2612 
Q 791 2297 791 1659 
z
" transform="scale(0.015625)"/>
        <path id="ArialMT-76" d="M 1344 0 
L 81 3319 
L 675 3319 
L 1388 1331 
Q 1503 1009 1600 663 
Q 1675 925 1809 1294 
L 2547 3319 
L 3125 3319 
L 1869 0 
L 1344 0 
z
" transform="scale(0.015625)"/>
        <path id="ArialMT-73" d="M 197 991 
L 753 1078 
Q 800 744 1014 566 
Q 1228 388 1613 388 
Q 2000 388 2187 545 
Q 2375 703 2375 916 
Q 2375 1106 2209 1216 
Q 2094 1291 1634 1406 
Q 1016 1563 777 1677 
Q 538 1791 414 1992 
Q 291 2194 291 2438 
Q 291 2659 392 2848 
Q 494 3038 669 3163 
Q 800 3259 1026 3326 
Q 1253 3394 1513 3394 
Q 1903 3394 2198 3281 
Q 2494 3169 2634 2976 
Q 2775 2784 2828 2463 
L 2278 2388 
Q 2241 2644 2061 2787 
Q 1881 2931 1553 2931 
Q 1166 2931 1000 2803 
Q 834 2675 834 2503 
Q 834 2394 903 2306 
Q 972 2216 1119 2156 
Q 1203 2125 1616 2013 
Q 2213 1853 2448 1751 
Q 2684 1650 2818 1456 
Q 2953 1263 2953 975 
Q 2953 694 2789 445 
Q 2625 197 2315 61 
Q 2006 -75 1616 -75 
Q 969 -75 630 194 
Q 291 463 197 991 
z
" transform="scale(0.015625)"/>
        <path id="ArialMT-63" d="M 2588 1216 
L 3141 1144 
Q 3050 572 2676 248 
Q 2303 -75 1759 -75 
Q 1078 -75 664 370 
Q 250 816 250 1647 
Q 250 2184 428 2587 
Q 606 2991 970 3192 
Q 1334 3394 1763 3394 
Q 2303 3394 2647 3120 
Q 2991 2847 3088 2344 
L 2541 2259 
Q 2463 2594 2264 2762 
Q 2066 2931 1784 2931 
Q 1359 2931 1093 2626 
Q 828 2322 828 1663 
Q 828 994 1084 691 
Q 1341 388 1753 388 
Q 2084 388 2306 591 
Q 2528 794 2588 1216 
z
" transform="scale(0.015625)"/>
        <path id="ArialMT-75" d="M 2597 0 
L 2597 488 
Q 2209 -75 1544 -75 
Q 1250 -75 995 37 
Q 741 150 617 320 
Q 494 491 444 738 
Q 409 903 409 1263 
L 409 3319 
L 972 3319 
L 972 1478 
Q 972 1038 1006 884 
Q 1059 663 1231 536 
Q 1403 409 1656 409 
Q 1909 409 2131 539 
Q 2353 669 2445 892 
Q 2538 1116 2538 1541 
L 2538 3319 
L 3100 3319 
L 3100 0 
L 2597 0 
z
" transform="scale(0.015625)"/>
        <path id="ArialMT-6c" d="M 409 0 
L 409 4581 
L 972 4581 
L 972 0 
L 409 0 
z
" transform="scale(0.015625)"/>
       </defs>
       <use xlink:href="#ArialMT-43"/>
       <use xlink:href="#ArialMT-61" transform="translate(72.216797 0)"/>
       <use xlink:href="#ArialMT-72" transform="translate(127.832031 0)"/>
       <use xlink:href="#ArialMT-64" transform="translate(161.132812 0)"/>
       <use xlink:href="#ArialMT-69" transform="translate(216.748047 0)"/>
       <use xlink:href="#ArialMT-6f" transform="translate(238.964844 0)"/>
       <use xlink:href="#ArialMT-76" transform="translate(294.580078 0)"/>
       <use xlink:href="#ArialMT-61" transform="translate(344.580078 0)"/>
       <use xlink:href="#ArialMT-73" transform="translate(400.195312 0)"/>
       <use xlink:href="#ArialMT-63" transform="translate(450.195312 0)"/>
       <use xlink:href="#ArialMT-75" transform="translate(500.195312 0)"/>
       <use xlink:href="#ArialMT-6c" transform="translate(555.810547 0)"/>
       <use xlink:href="#ArialMT-61" transform="translate(578.027344 0)"/>
       <use xlink:href="#ArialMT-72" transform="translate(633.642578 0)"/>
      </g>
     </g>
    </g>
    <g id="xtick_2">
     <g id="line2d_2"/>
     <g id="text_2">
      <!-- Other -->
      <g style="fill: #262626" transform="translate(363.341328 393.521094) scale(0.11 -0.11)">
       <defs>
        <path id="ArialMT-4f" d="M 309 2231 
Q 309 3372 921 4017 
Q 1534 4663 2503 4663 
Q 3138 4663 3647 4359 
Q 4156 4056 4423 3514 
Q 4691 2972 4691 2284 
Q 4691 1588 4409 1038 
Q 4128 488 3612 205 
Q 3097 -78 2500 -78 
Q 1853 -78 1343 234 
Q 834 547 571 1087 
Q 309 1628 309 2231 
z
M 934 2222 
Q 934 1394 1379 917 
Q 1825 441 2497 441 
Q 3181 441 3623 922 
Q 4066 1403 4066 2288 
Q 4066 2847 3877 3264 
Q 3688 3681 3323 3911 
Q 2959 4141 2506 4141 
Q 1863 4141 1398 3698 
Q 934 3256 934 2222 
z
" transform="scale(0.015625)"/>
        <path id="ArialMT-74" d="M 1650 503 
L 1731 6 
Q 1494 -44 1306 -44 
Q 1000 -44 831 53 
Q 663 150 594 308 
Q 525 466 525 972 
L 525 2881 
L 113 2881 
L 113 3319 
L 525 3319 
L 525 4141 
L 1084 4478 
L 1084 3319 
L 1650 3319 
L 1650 2881 
L 1084 2881 
L 1084 941 
Q 1084 700 1114 631 
Q 1144 563 1211 522 
Q 1278 481 1403 481 
Q 1497 481 1650 503 
z
" transform="scale(0.015625)"/>
        <path id="ArialMT-68" d="M 422 0 
L 422 4581 
L 984 4581 
L 984 2938 
Q 1378 3394 1978 3394 
Q 2347 3394 2619 3248 
Q 2891 3103 3008 2847 
Q 3125 2591 3125 2103 
L 3125 0 
L 2563 0 
L 2563 2103 
Q 2563 2525 2380 2717 
Q 2197 2909 1863 2909 
Q 1613 2909 1392 2779 
Q 1172 2650 1078 2428 
Q 984 2206 984 1816 
L 984 0 
L 422 0 
z
" transform="scale(0.015625)"/>
        <path id="ArialMT-65" d="M 2694 1069 
L 3275 997 
Q 3138 488 2766 206 
Q 2394 -75 1816 -75 
Q 1088 -75 661 373 
Q 234 822 234 1631 
Q 234 2469 665 2931 
Q 1097 3394 1784 3394 
Q 2450 3394 2872 2941 
Q 3294 2488 3294 1666 
Q 3294 1616 3291 1516 
L 816 1516 
Q 847 969 1125 678 
Q 1403 388 1819 388 
Q 2128 388 2347 550 
Q 2566 713 2694 1069 
z
M 847 1978 
L 2700 1978 
Q 2663 2397 2488 2606 
Q 2219 2931 1791 2931 
Q 1403 2931 1139 2672 
Q 875 2413 847 1978 
z
" transform="scale(0.015625)"/>
       </defs>
       <use xlink:href="#ArialMT-4f"/>
       <use xlink:href="#ArialMT-74" transform="translate(77.783203 0)"/>
       <use xlink:href="#ArialMT-68" transform="translate(105.566406 0)"/>
       <use xlink:href="#ArialMT-65" transform="translate(161.181641 0)"/>
       <use xlink:href="#ArialMT-72" transform="translate(216.796875 0)"/>
      </g>
     </g>
    </g>
    <g id="text_3">
     <!-- Drug Category -->
     <g style="fill: #262626" transform="translate(220.255625 409.898906) scale(0.14 -0.14)">
      <defs>
       <path id="ArialMT-44" d="M 494 0 
L 494 4581 
L 2072 4581 
Q 2606 4581 2888 4516 
Q 3281 4425 3559 4188 
Q 3922 3881 4101 3404 
Q 4281 2928 4281 2316 
Q 4281 1794 4159 1391 
Q 4038 988 3847 723 
Q 3656 459 3429 307 
Q 3203 156 2883 78 
Q 2563 0 2147 0 
L 494 0 
z
M 1100 541 
L 2078 541 
Q 2531 541 2789 625 
Q 3047 709 3200 863 
Q 3416 1078 3536 1442 
Q 3656 1806 3656 2325 
Q 3656 3044 3420 3430 
Q 3184 3816 2847 3947 
Q 2603 4041 2063 4041 
L 1100 4041 
L 1100 541 
z
" transform="scale(0.015625)"/>
       <path id="ArialMT-67" d="M 319 -275 
L 866 -356 
Q 900 -609 1056 -725 
Q 1266 -881 1628 -881 
Q 2019 -881 2231 -725 
Q 2444 -569 2519 -288 
Q 2563 -116 2559 434 
Q 2191 0 1641 0 
Q 956 0 581 494 
Q 206 988 206 1678 
Q 206 2153 378 2554 
Q 550 2956 876 3175 
Q 1203 3394 1644 3394 
Q 2231 3394 2613 2919 
L 2613 3319 
L 3131 3319 
L 3131 450 
Q 3131 -325 2973 -648 
Q 2816 -972 2473 -1159 
Q 2131 -1347 1631 -1347 
Q 1038 -1347 672 -1080 
Q 306 -813 319 -275 
z
M 784 1719 
Q 784 1066 1043 766 
Q 1303 466 1694 466 
Q 2081 466 2343 764 
Q 2606 1063 2606 1700 
Q 2606 2309 2336 2618 
Q 2066 2928 1684 2928 
Q 1309 2928 1046 2623 
Q 784 2319 784 1719 
z
" transform="scale(0.015625)"/>
       <path id="ArialMT-20" transform="scale(0.015625)"/>
       <path id="ArialMT-79" d="M 397 -1278 
L 334 -750 
Q 519 -800 656 -800 
Q 844 -800 956 -737 
Q 1069 -675 1141 -563 
Q 1194 -478 1313 -144 
Q 1328 -97 1363 -6 
L 103 3319 
L 709 3319 
L 1400 1397 
Q 1534 1031 1641 628 
Q 1738 1016 1872 1384 
L 2581 3319 
L 3144 3319 
L 1881 -56 
Q 1678 -603 1566 -809 
Q 1416 -1088 1222 -1217 
Q 1028 -1347 759 -1347 
Q 597 -1347 397 -1278 
z
" transform="scale(0.015625)"/>
      </defs>
      <use xlink:href="#ArialMT-44"/>
      <use xlink:href="#ArialMT-72" transform="translate(72.216797 0)"/>
      <use xlink:href="#ArialMT-75" transform="translate(105.517578 0)"/>
      <use xlink:href="#ArialMT-67" transform="translate(161.132812 0)"/>
      <use xlink:href="#ArialMT-20" transform="translate(216.748047 0)"/>
      <use xlink:href="#ArialMT-43" transform="translate(244.53125 0)"/>
      <use xlink:href="#ArialMT-61" transform="translate(316.748047 0)"/>
      <use xlink:href="#ArialMT-74" transform="translate(372.363281 0)"/>
      <use xlink:href="#ArialMT-65" transform="translate(400.146484 0)"/>
      <use xlink:href="#ArialMT-67" transform="translate(455.761719 0)"/>
      <use xlink:href="#ArialMT-6f" transform="translate(511.376953 0)"/>
      <use xlink:href="#ArialMT-72" transform="translate(566.992188 0)"/>
      <use xlink:href="#ArialMT-79" transform="translate(600.292969 0)"/>
     </g>
    </g>
   </g>
   <g id="matplotlib.axis_2">
    <g id="ytick_1">
     <g id="line2d_3">
      <path d="M 43.128125 377.199872 
L 488.418125 377.199872 
" clip-path="url(#p774e71e6b1)" style="fill: none; stroke: #cccccc; stroke-width: 0.8; stroke-linecap: round"/>
     </g>
     <g id="line2d_4"/>
     <g id="text_4">
      <!-- 0.0 -->
      <g style="fill: #262626" transform="translate(24.338125 381.136669) scale(0.11 -0.11)">
       <defs>
        <path id="ArialMT-30" d="M 266 2259 
Q 266 3072 433 3567 
Q 600 4063 929 4331 
Q 1259 4600 1759 4600 
Q 2128 4600 2406 4451 
Q 2684 4303 2865 4023 
Q 3047 3744 3150 3342 
Q 3253 2941 3253 2259 
Q 3253 1453 3087 958 
Q 2922 463 2592 192 
Q 2263 -78 1759 -78 
Q 1097 -78 719 397 
Q 266 969 266 2259 
z
M 844 2259 
Q 844 1131 1108 757 
Q 1372 384 1759 384 
Q 2147 384 2411 759 
Q 2675 1134 2675 2259 
Q 2675 3391 2411 3762 
Q 2147 4134 1753 4134 
Q 1366 4134 1134 3806 
Q 844 3388 844 2259 
z
" transform="scale(0.015625)"/>
        <path id="ArialMT-2e" d="M 581 0 
L 581 641 
L 1222 641 
L 1222 0 
L 581 0 
z
" transform="scale(0.015625)"/>
       </defs>
       <use xlink:href="#ArialMT-30"/>
       <use xlink:href="#ArialMT-2e" transform="translate(55.615234 0)"/>
       <use xlink:href="#ArialMT-30" transform="translate(83.398438 0)"/>
      </g>
     </g>
    </g>
    <g id="ytick_2">
     <g id="line2d_5">
      <path d="M 43.128125 337.346679 
L 488.418125 337.346679 
" clip-path="url(#p774e71e6b1)" style="fill: none; stroke: #cccccc; stroke-width: 0.8; stroke-linecap: round"/>
     </g>
     <g id="line2d_6"/>
     <g id="text_5">
      <!-- 0.1 -->
      <g style="fill: #262626" transform="translate(24.338125 341.283476) scale(0.11 -0.11)">
       <defs>
        <path id="ArialMT-31" d="M 2384 0 
L 1822 0 
L 1822 3584 
Q 1619 3391 1289 3197 
Q 959 3003 697 2906 
L 697 3450 
Q 1169 3672 1522 3987 
Q 1875 4303 2022 4600 
L 2384 4600 
L 2384 0 
z
" transform="scale(0.015625)"/>
       </defs>
       <use xlink:href="#ArialMT-30"/>
       <use xlink:href="#ArialMT-2e" transform="translate(55.615234 0)"/>
       <use xlink:href="#ArialMT-31" transform="translate(83.398438 0)"/>
      </g>
     </g>
    </g>
    <g id="ytick_3">
     <g id="line2d_7">
      <path d="M 43.128125 297.493486 
L 488.418125 297.493486 
" clip-path="url(#p774e71e6b1)" style="fill: none; stroke: #cccccc; stroke-width: 0.8; stroke-linecap: round"/>
     </g>
     <g id="line2d_8"/>
     <g id="text_6">
      <!-- 0.2 -->
      <g style="fill: #262626" transform="translate(24.338125 301.430282) scale(0.11 -0.11)">
       <defs>
        <path id="ArialMT-32" d="M 3222 541 
L 3222 0 
L 194 0 
Q 188 203 259 391 
Q 375 700 629 1000 
Q 884 1300 1366 1694 
Q 2113 2306 2375 2664 
Q 2638 3022 2638 3341 
Q 2638 3675 2398 3904 
Q 2159 4134 1775 4134 
Q 1369 4134 1125 3890 
Q 881 3647 878 3216 
L 300 3275 
Q 359 3922 746 4261 
Q 1134 4600 1788 4600 
Q 2447 4600 2831 4234 
Q 3216 3869 3216 3328 
Q 3216 3053 3103 2787 
Q 2991 2522 2730 2228 
Q 2469 1934 1863 1422 
Q 1356 997 1212 845 
Q 1069 694 975 541 
L 3222 541 
z
" transform="scale(0.015625)"/>
       </defs>
       <use xlink:href="#ArialMT-30"/>
       <use xlink:href="#ArialMT-2e" transform="translate(55.615234 0)"/>
       <use xlink:href="#ArialMT-32" transform="translate(83.398438 0)"/>
      </g>
     </g>
    </g>
    <g id="ytick_4">
     <g id="line2d_9">
      <path d="M 43.128125 257.640292 
L 488.418125 257.640292 
" clip-path="url(#p774e71e6b1)" style="fill: none; stroke: #cccccc; stroke-width: 0.8; stroke-linecap: round"/>
     </g>
     <g id="line2d_10"/>
     <g id="text_7">
      <!-- 0.3 -->
      <g style="fill: #262626" transform="translate(24.338125 261.577089) scale(0.11 -0.11)">
       <defs>
        <path id="ArialMT-33" d="M 269 1209 
L 831 1284 
Q 928 806 1161 595 
Q 1394 384 1728 384 
Q 2125 384 2398 659 
Q 2672 934 2672 1341 
Q 2672 1728 2419 1979 
Q 2166 2231 1775 2231 
Q 1616 2231 1378 2169 
L 1441 2663 
Q 1497 2656 1531 2656 
Q 1891 2656 2178 2843 
Q 2466 3031 2466 3422 
Q 2466 3731 2256 3934 
Q 2047 4138 1716 4138 
Q 1388 4138 1169 3931 
Q 950 3725 888 3313 
L 325 3413 
Q 428 3978 793 4289 
Q 1159 4600 1703 4600 
Q 2078 4600 2393 4439 
Q 2709 4278 2876 4000 
Q 3044 3722 3044 3409 
Q 3044 3113 2884 2869 
Q 2725 2625 2413 2481 
Q 2819 2388 3044 2092 
Q 3269 1797 3269 1353 
Q 3269 753 2831 336 
Q 2394 -81 1725 -81 
Q 1122 -81 723 278 
Q 325 638 269 1209 
z
" transform="scale(0.015625)"/>
       </defs>
       <use xlink:href="#ArialMT-30"/>
       <use xlink:href="#ArialMT-2e" transform="translate(55.615234 0)"/>
       <use xlink:href="#ArialMT-33" transform="translate(83.398438 0)"/>
      </g>
     </g>
    </g>
    <g id="ytick_5">
     <g id="line2d_11">
      <path d="M 43.128125 217.787099 
L 488.418125 217.787099 
" clip-path="url(#p774e71e6b1)" style="fill: none; stroke: #cccccc; stroke-width: 0.8; stroke-linecap: round"/>
     </g>
     <g id="line2d_12"/>
     <g id="text_8">
      <!-- 0.4 -->
      <g style="fill: #262626" transform="translate(24.338125 221.723896) scale(0.11 -0.11)">
       <defs>
        <path id="ArialMT-34" d="M 2069 0 
L 2069 1097 
L 81 1097 
L 81 1613 
L 2172 4581 
L 2631 4581 
L 2631 1613 
L 3250 1613 
L 3250 1097 
L 2631 1097 
L 2631 0 
L 2069 0 
z
M 2069 1613 
L 2069 3678 
L 634 1613 
L 2069 1613 
z
" transform="scale(0.015625)"/>
       </defs>
       <use xlink:href="#ArialMT-30"/>
       <use xlink:href="#ArialMT-2e" transform="translate(55.615234 0)"/>
       <use xlink:href="#ArialMT-34" transform="translate(83.398438 0)"/>
      </g>
     </g>
    </g>
    <g id="ytick_6">
     <g id="line2d_13">
      <path d="M 43.128125 177.933906 
L 488.418125 177.933906 
" clip-path="url(#p774e71e6b1)" style="fill: none; stroke: #cccccc; stroke-width: 0.8; stroke-linecap: round"/>
     </g>
     <g id="line2d_14"/>
     <g id="text_9">
      <!-- 0.5 -->
      <g style="fill: #262626" transform="translate(24.338125 181.870702) scale(0.11 -0.11)">
       <defs>
        <path id="ArialMT-35" d="M 266 1200 
L 856 1250 
Q 922 819 1161 601 
Q 1400 384 1738 384 
Q 2144 384 2425 690 
Q 2706 997 2706 1503 
Q 2706 1984 2436 2262 
Q 2166 2541 1728 2541 
Q 1456 2541 1237 2417 
Q 1019 2294 894 2097 
L 366 2166 
L 809 4519 
L 3088 4519 
L 3088 3981 
L 1259 3981 
L 1013 2750 
Q 1425 3038 1878 3038 
Q 2478 3038 2890 2622 
Q 3303 2206 3303 1553 
Q 3303 931 2941 478 
Q 2500 -78 1738 -78 
Q 1113 -78 717 272 
Q 322 622 266 1200 
z
" transform="scale(0.015625)"/>
       </defs>
       <use xlink:href="#ArialMT-30"/>
       <use xlink:href="#ArialMT-2e" transform="translate(55.615234 0)"/>
       <use xlink:href="#ArialMT-35" transform="translate(83.398438 0)"/>
      </g>
     </g>
    </g>
    <g id="ytick_7">
     <g id="line2d_15">
      <path d="M 43.128125 138.080712 
L 488.418125 138.080712 
" clip-path="url(#p774e71e6b1)" style="fill: none; stroke: #cccccc; stroke-width: 0.8; stroke-linecap: round"/>
     </g>
     <g id="line2d_16"/>
     <g id="text_10">
      <!-- 0.6 -->
      <g style="fill: #262626" transform="translate(24.338125 142.017509) scale(0.11 -0.11)">
       <defs>
        <path id="ArialMT-36" d="M 3184 3459 
L 2625 3416 
Q 2550 3747 2413 3897 
Q 2184 4138 1850 4138 
Q 1581 4138 1378 3988 
Q 1113 3794 959 3422 
Q 806 3050 800 2363 
Q 1003 2672 1297 2822 
Q 1591 2972 1913 2972 
Q 2475 2972 2870 2558 
Q 3266 2144 3266 1488 
Q 3266 1056 3080 686 
Q 2894 316 2569 119 
Q 2244 -78 1831 -78 
Q 1128 -78 684 439 
Q 241 956 241 2144 
Q 241 3472 731 4075 
Q 1159 4600 1884 4600 
Q 2425 4600 2770 4297 
Q 3116 3994 3184 3459 
z
M 888 1484 
Q 888 1194 1011 928 
Q 1134 663 1356 523 
Q 1578 384 1822 384 
Q 2178 384 2434 671 
Q 2691 959 2691 1453 
Q 2691 1928 2437 2201 
Q 2184 2475 1800 2475 
Q 1419 2475 1153 2201 
Q 888 1928 888 1484 
z
" transform="scale(0.015625)"/>
       </defs>
       <use xlink:href="#ArialMT-30"/>
       <use xlink:href="#ArialMT-2e" transform="translate(55.615234 0)"/>
       <use xlink:href="#ArialMT-36" transform="translate(83.398438 0)"/>
      </g>
     </g>
    </g>
    <g id="ytick_8">
     <g id="line2d_17">
      <path d="M 43.128125 98.227519 
L 488.418125 98.227519 
" clip-path="url(#p774e71e6b1)" style="fill: none; stroke: #cccccc; stroke-width: 0.8; stroke-linecap: round"/>
     </g>
     <g id="line2d_18"/>
     <g id="text_11">
      <!-- 0.7 -->
      <g style="fill: #262626" transform="translate(24.338125 102.164316) scale(0.11 -0.11)">
       <defs>
        <path id="ArialMT-37" d="M 303 3981 
L 303 4522 
L 3269 4522 
L 3269 4084 
Q 2831 3619 2401 2847 
Q 1972 2075 1738 1259 
Q 1569 684 1522 0 
L 944 0 
Q 953 541 1156 1306 
Q 1359 2072 1739 2783 
Q 2119 3494 2547 3981 
L 303 3981 
z
" transform="scale(0.015625)"/>
       </defs>
       <use xlink:href="#ArialMT-30"/>
       <use xlink:href="#ArialMT-2e" transform="translate(55.615234 0)"/>
       <use xlink:href="#ArialMT-37" transform="translate(83.398438 0)"/>
      </g>
     </g>
    </g>
    <g id="ytick_9">
     <g id="line2d_19">
      <path d="M 43.128125 58.374326 
L 488.418125 58.374326 
" clip-path="url(#p774e71e6b1)" style="fill: none; stroke: #cccccc; stroke-width: 0.8; stroke-linecap: round"/>
     </g>
     <g id="line2d_20"/>
     <g id="text_12">
      <!-- 0.8 -->
      <g style="fill: #262626" transform="translate(24.338125 62.311123) scale(0.11 -0.11)">
       <defs>
        <path id="ArialMT-38" d="M 1131 2484 
Q 781 2613 612 2850 
Q 444 3088 444 3419 
Q 444 3919 803 4259 
Q 1163 4600 1759 4600 
Q 2359 4600 2725 4251 
Q 3091 3903 3091 3403 
Q 3091 3084 2923 2848 
Q 2756 2613 2416 2484 
Q 2838 2347 3058 2040 
Q 3278 1734 3278 1309 
Q 3278 722 2862 322 
Q 2447 -78 1769 -78 
Q 1091 -78 675 323 
Q 259 725 259 1325 
Q 259 1772 486 2073 
Q 713 2375 1131 2484 
z
M 1019 3438 
Q 1019 3113 1228 2906 
Q 1438 2700 1772 2700 
Q 2097 2700 2305 2904 
Q 2513 3109 2513 3406 
Q 2513 3716 2298 3927 
Q 2084 4138 1766 4138 
Q 1444 4138 1231 3931 
Q 1019 3725 1019 3438 
z
M 838 1322 
Q 838 1081 952 856 
Q 1066 631 1291 507 
Q 1516 384 1775 384 
Q 2178 384 2440 643 
Q 2703 903 2703 1303 
Q 2703 1709 2433 1975 
Q 2163 2241 1756 2241 
Q 1359 2241 1098 1978 
Q 838 1716 838 1322 
z
" transform="scale(0.015625)"/>
       </defs>
       <use xlink:href="#ArialMT-30"/>
       <use xlink:href="#ArialMT-2e" transform="translate(55.615234 0)"/>
       <use xlink:href="#ArialMT-38" transform="translate(83.398438 0)"/>
      </g>
     </g>
    </g>
    <g id="text_13">
     <!-- Polypharmacy Risk Index (PRI) -->
     <g style="fill: #262626" transform="translate(17.391562 300.745) rotate(-90) scale(0.14 -0.14)">
      <defs>
       <path id="ArialMT-50" d="M 494 0 
L 494 4581 
L 2222 4581 
Q 2678 4581 2919 4538 
Q 3256 4481 3484 4323 
Q 3713 4166 3852 3881 
Q 3991 3597 3991 3256 
Q 3991 2672 3619 2267 
Q 3247 1863 2275 1863 
L 1100 1863 
L 1100 0 
L 494 0 
z
M 1100 2403 
L 2284 2403 
Q 2872 2403 3119 2622 
Q 3366 2841 3366 3238 
Q 3366 3525 3220 3729 
Q 3075 3934 2838 4000 
Q 2684 4041 2272 4041 
L 1100 4041 
L 1100 2403 
z
" transform="scale(0.015625)"/>
       <path id="ArialMT-70" d="M 422 -1272 
L 422 3319 
L 934 3319 
L 934 2888 
Q 1116 3141 1344 3267 
Q 1572 3394 1897 3394 
Q 2322 3394 2647 3175 
Q 2972 2956 3137 2557 
Q 3303 2159 3303 1684 
Q 3303 1175 3120 767 
Q 2938 359 2589 142 
Q 2241 -75 1856 -75 
Q 1575 -75 1351 44 
Q 1128 163 984 344 
L 984 -1272 
L 422 -1272 
z
M 931 1641 
Q 931 1000 1190 694 
Q 1450 388 1819 388 
Q 2194 388 2461 705 
Q 2728 1022 2728 1688 
Q 2728 2322 2467 2637 
Q 2206 2953 1844 2953 
Q 1484 2953 1207 2617 
Q 931 2281 931 1641 
z
" transform="scale(0.015625)"/>
       <path id="ArialMT-6d" d="M 422 0 
L 422 3319 
L 925 3319 
L 925 2853 
Q 1081 3097 1340 3245 
Q 1600 3394 1931 3394 
Q 2300 3394 2536 3241 
Q 2772 3088 2869 2813 
Q 3263 3394 3894 3394 
Q 4388 3394 4653 3120 
Q 4919 2847 4919 2278 
L 4919 0 
L 4359 0 
L 4359 2091 
Q 4359 2428 4304 2576 
Q 4250 2725 4106 2815 
Q 3963 2906 3769 2906 
Q 3419 2906 3187 2673 
Q 2956 2441 2956 1928 
L 2956 0 
L 2394 0 
L 2394 2156 
Q 2394 2531 2256 2718 
Q 2119 2906 1806 2906 
Q 1569 2906 1367 2781 
Q 1166 2656 1075 2415 
Q 984 2175 984 1722 
L 984 0 
L 422 0 
z
" transform="scale(0.015625)"/>
       <path id="ArialMT-52" d="M 503 0 
L 503 4581 
L 2534 4581 
Q 3147 4581 3465 4457 
Q 3784 4334 3975 4021 
Q 4166 3709 4166 3331 
Q 4166 2844 3850 2509 
Q 3534 2175 2875 2084 
Q 3116 1969 3241 1856 
Q 3506 1613 3744 1247 
L 4541 0 
L 3778 0 
L 3172 953 
Q 2906 1366 2734 1584 
Q 2563 1803 2427 1890 
Q 2291 1978 2150 2013 
Q 2047 2034 1813 2034 
L 1109 2034 
L 1109 0 
L 503 0 
z
M 1109 2559 
L 2413 2559 
Q 2828 2559 3062 2645 
Q 3297 2731 3419 2920 
Q 3541 3109 3541 3331 
Q 3541 3656 3305 3865 
Q 3069 4075 2559 4075 
L 1109 4075 
L 1109 2559 
z
" transform="scale(0.015625)"/>
       <path id="ArialMT-6b" d="M 425 0 
L 425 4581 
L 988 4581 
L 988 1969 
L 2319 3319 
L 3047 3319 
L 1778 2088 
L 3175 0 
L 2481 0 
L 1384 1697 
L 988 1316 
L 988 0 
L 425 0 
z
" transform="scale(0.015625)"/>
       <path id="ArialMT-49" d="M 597 0 
L 597 4581 
L 1203 4581 
L 1203 0 
L 597 0 
z
" transform="scale(0.015625)"/>
       <path id="ArialMT-6e" d="M 422 0 
L 422 3319 
L 928 3319 
L 928 2847 
Q 1294 3394 1984 3394 
Q 2284 3394 2536 3286 
Q 2788 3178 2913 3003 
Q 3038 2828 3088 2588 
Q 3119 2431 3119 2041 
L 3119 0 
L 2556 0 
L 2556 2019 
Q 2556 2363 2490 2533 
Q 2425 2703 2258 2804 
Q 2091 2906 1866 2906 
Q 1506 2906 1245 2678 
Q 984 2450 984 1813 
L 984 0 
L 422 0 
z
" transform="scale(0.015625)"/>
       <path id="ArialMT-78" d="M 47 0 
L 1259 1725 
L 138 3319 
L 841 3319 
L 1350 2541 
Q 1494 2319 1581 2169 
Q 1719 2375 1834 2534 
L 2394 3319 
L 3066 3319 
L 1919 1756 
L 3153 0 
L 2463 0 
L 1781 1031 
L 1600 1309 
L 728 0 
L 47 0 
z
" transform="scale(0.015625)"/>
       <path id="ArialMT-28" d="M 1497 -1347 
Q 1031 -759 709 28 
Q 388 816 388 1659 
Q 388 2403 628 3084 
Q 909 3875 1497 4659 
L 1900 4659 
Q 1522 4009 1400 3731 
Q 1209 3300 1100 2831 
Q 966 2247 966 1656 
Q 966 153 1900 -1347 
L 1497 -1347 
z
" transform="scale(0.015625)"/>
       <path id="ArialMT-29" d="M 791 -1347 
L 388 -1347 
Q 1322 153 1322 1656 
Q 1322 2244 1188 2822 
Q 1081 3291 891 3722 
Q 769 4003 388 4659 
L 791 4659 
Q 1378 3875 1659 3084 
Q 1900 2403 1900 1659 
Q 1900 816 1576 28 
Q 1253 -759 791 -1347 
z
" transform="scale(0.015625)"/>
      </defs>
      <use xlink:href="#ArialMT-50"/>
      <use xlink:href="#ArialMT-6f" transform="translate(66.699219 0)"/>
      <use xlink:href="#ArialMT-6c" transform="translate(122.314453 0)"/>
      <use xlink:href="#ArialMT-79" transform="translate(144.53125 0)"/>
      <use xlink:href="#ArialMT-70" transform="translate(194.53125 0)"/>
      <use xlink:href="#ArialMT-68" transform="translate(250.146484 0)"/>
      <use xlink:href="#ArialMT-61" transform="translate(305.761719 0)"/>
      <use xlink:href="#ArialMT-72" transform="translate(361.376953 0)"/>
      <use xlink:href="#ArialMT-6d" transform="translate(394.677734 0)"/>
      <use xlink:href="#ArialMT-61" transform="translate(477.978516 0)"/>
      <use xlink:href="#ArialMT-63" transform="translate(533.59375 0)"/>
      <use xlink:href="#ArialMT-79" transform="translate(583.59375 0)"/>
      <use xlink:href="#ArialMT-20" transform="translate(633.59375 0)"/>
      <use xlink:href="#ArialMT-52" transform="translate(661.376953 0)"/>
      <use xlink:href="#ArialMT-69" transform="translate(733.59375 0)"/>
      <use xlink:href="#ArialMT-73" transform="translate(755.810547 0)"/>
      <use xlink:href="#ArialMT-6b" transform="translate(805.810547 0)"/>
      <use xlink:href="#ArialMT-20" transform="translate(855.810547 0)"/>
      <use xlink:href="#ArialMT-49" transform="translate(883.59375 0)"/>
      <use xlink:href="#ArialMT-6e" transform="translate(911.376953 0)"/>
      <use xlink:href="#ArialMT-64" transform="translate(966.992188 0)"/>
      <use xlink:href="#ArialMT-65" transform="translate(1022.607422 0)"/>
      <use xlink:href="#ArialMT-78" transform="translate(1078.222656 0)"/>
      <use xlink:href="#ArialMT-20" transform="translate(1128.222656 0)"/>
      <use xlink:href="#ArialMT-28" transform="translate(1156.005859 0)"/>
      <use xlink:href="#ArialMT-50" transform="translate(1189.306641 0)"/>
      <use xlink:href="#ArialMT-52" transform="translate(1256.005859 0)"/>
      <use xlink:href="#ArialMT-49" transform="translate(1328.222656 0)"/>
      <use xlink:href="#ArialMT-29" transform="translate(1356.005859 0)"/>
     </g>
    </g>
   </g>
   <g id="patch_3">
    <path d="M 65.392625 249.41652 
L 243.508625 249.41652 
L 243.508625 196.615901 
L 65.392625 196.615901 
L 65.392625 249.41652 
z
" clip-path="url(#p774e71e6b1)" style="fill: #cb3335; stroke: #4c4c4c; stroke-linejoin: miter"/>
   </g>
   <g id="line2d_21">
    <path d="M 154.450625 249.41652 
L 154.450625 305.256067 
" clip-path="url(#p774e71e6b1)" style="fill: none; stroke: #4c4c4c"/>
   </g>
   <g id="line2d_22">
    <path d="M 154.450625 196.615901 
L 154.450625 122.098362 
" clip-path="url(#p774e71e6b1)" style="fill: none; stroke: #4c4c4c"/>
   </g>
   <g id="line2d_23">
    <path d="M 109.921625 305.256067 
L 198.979625 305.256067 
" clip-path="url(#p774e71e6b1)" style="fill: none; stroke: #4c4c4c; stroke-linecap: round"/>
   </g>
   <g id="line2d_24">
    <path d="M 109.921625 122.098362 
L 198.979625 122.098362 
" clip-path="url(#p774e71e6b1)" style="fill: none; stroke: #4c4c4c; stroke-linecap: round"/>
   </g>
   <g id="line2d_25">
    <defs>
     <path id="m19fe4be394" d="M 0 3 
C 0.795609 3 1.55874 2.683901 2.12132 2.12132 
C 2.683901 1.55874 3 0.795609 3 0 
C 3 -0.795609 2.683901 -1.55874 2.12132 -2.12132 
C 1.55874 -2.683901 0.795609 -3 0 -3 
C -0.795609 -3 -1.55874 -2.683901 -2.12132 -2.12132 
C -2.683901 -1.55874 -3 -0.795609 -3 0 
C -3 0.795609 -2.683901 1.55874 -2.12132 2.12132 
C -1.55874 2.683901 -0.795609 3 0 3 
z
" style="stroke: #4c4c4c"/>
    </defs>
    <g clip-path="url(#p774e71e6b1)">
     <use xlink:href="#m19fe4be394" x="154.450625" y="92.783118" style="fill-opacity: 0; stroke: #4c4c4c"/>
     <use xlink:href="#m19fe4be394" x="154.450625" y="91.349291" style="fill-opacity: 0; stroke: #4c4c4c"/>
     <use xlink:href="#m19fe4be394" x="154.450625" y="41.088409" style="fill-opacity: 0; stroke: #4c4c4c"/>
     <use xlink:href="#m19fe4be394" x="154.450625" y="111.747537" style="fill-opacity: 0; stroke: #4c4c4c"/>
    </g>
   </g>
   <g id="patch_4">
    <path d="M 288.037625 288.523227 
L 466.153625 288.523227 
L 466.153625 276.548023 
L 288.037625 276.548023 
L 288.037625 288.523227 
z
" clip-path="url(#p774e71e6b1)" style="fill: #999999; stroke: #4c4c4c; stroke-linejoin: miter"/>
   </g>
   <g id="line2d_26">
    <path d="M 377.095625 288.523227 
L 377.095625 306.445644 
" clip-path="url(#p774e71e6b1)" style="fill: none; stroke: #4c4c4c"/>
   </g>
   <g id="line2d_27">
    <path d="M 377.095625 276.548023 
L 377.095625 258.72264 
" clip-path="url(#p774e71e6b1)" style="fill: none; stroke: #4c4c4c"/>
   </g>
   <g id="line2d_28">
    <path d="M 332.566625 306.445644 
L 421.624625 306.445644 
" clip-path="url(#p774e71e6b1)" style="fill: none; stroke: #4c4c4c; stroke-linecap: round"/>
   </g>
   <g id="line2d_29">
    <path d="M 332.566625 258.72264 
L 421.624625 258.72264 
" clip-path="url(#p774e71e6b1)" style="fill: none; stroke: #4c4c4c; stroke-linecap: round"/>
   </g>
   <g id="line2d_30">
    <g clip-path="url(#p774e71e6b1)">
     <use xlink:href="#m19fe4be394" x="377.095625" y="307.397305" style="fill-opacity: 0; stroke: #4c4c4c"/>
     <use xlink:href="#m19fe4be394" x="377.095625" y="307.278347" style="fill-opacity: 0; stroke: #4c4c4c"/>
     <use xlink:href="#m19fe4be394" x="377.095625" y="306.743038" style="fill-opacity: 0; stroke: #4c4c4c"/>
     <use xlink:href="#m19fe4be394" x="377.095625" y="307.337826" style="fill-opacity: 0; stroke: #4c4c4c"/>
     <use xlink:href="#m19fe4be394" x="377.095625" y="307.337826" style="fill-opacity: 0; stroke: #4c4c4c"/>
     <use xlink:href="#m19fe4be394" x="377.095625" y="306.861995" style="fill-opacity: 0; stroke: #4c4c4c"/>
     <use xlink:href="#m19fe4be394" x="377.095625" y="306.624072" style="fill-opacity: 0; stroke: #4c4c4c"/>
     <use xlink:href="#m19fe4be394" x="377.095625" y="307.397305" style="fill-opacity: 0; stroke: #4c4c4c"/>
     <use xlink:href="#m19fe4be394" x="377.095625" y="306.861996" style="fill-opacity: 0; stroke: #4c4c4c"/>
     <use xlink:href="#m19fe4be394" x="377.095625" y="306.861996" style="fill-opacity: 0; stroke: #4c4c4c"/>
     <use xlink:href="#m19fe4be394" x="377.095625" y="307.278347" style="fill-opacity: 0; stroke: #4c4c4c"/>
     <use xlink:href="#m19fe4be394" x="377.095625" y="306.743038" style="fill-opacity: 0; stroke: #4c4c4c"/>
     <use xlink:href="#m19fe4be394" x="377.095625" y="307.397305" style="fill-opacity: 0; stroke: #4c4c4c"/>
     <use xlink:href="#m19fe4be394" x="377.095625" y="306.861996" style="fill-opacity: 0; stroke: #4c4c4c"/>
     <use xlink:href="#m19fe4be394" x="377.095625" y="316.236527" style="fill-opacity: 0; stroke: #4c4c4c"/>
     <use xlink:href="#m19fe4be394" x="377.095625" y="307.397305" style="fill-opacity: 0; stroke: #4c4c4c"/>
     <use xlink:href="#m19fe4be394" x="377.095625" y="306.921474" style="fill-opacity: 0; stroke: #4c4c4c"/>
     <use xlink:href="#m19fe4be394" x="377.095625" y="307.218869" style="fill-opacity: 0; stroke: #4c4c4c"/>
     <use xlink:href="#m19fe4be394" x="377.095625" y="307.337826" style="fill-opacity: 0; stroke: #4c4c4c"/>
     <use xlink:href="#m19fe4be394" x="377.095625" y="306.980953" style="fill-opacity: 0; stroke: #4c4c4c"/>
     <use xlink:href="#m19fe4be394" x="377.095625" y="306.743038" style="fill-opacity: 0; stroke: #4c4c4c"/>
     <use xlink:href="#m19fe4be394" x="377.095625" y="306.921474" style="fill-opacity: 0; stroke: #4c4c4c"/>
     <use xlink:href="#m19fe4be394" x="377.095625" y="311.597765" style="fill-opacity: 0; stroke: #4c4c4c"/>
     <use xlink:href="#m19fe4be394" x="377.095625" y="306.861996" style="fill-opacity: 0; stroke: #4c4c4c"/>
     <use xlink:href="#m19fe4be394" x="377.095625" y="306.743038" style="fill-opacity: 0; stroke: #4c4c4c"/>
     <use xlink:href="#m19fe4be394" x="377.095625" y="306.861996" style="fill-opacity: 0; stroke: #4c4c4c"/>
     <use xlink:href="#m19fe4be394" x="377.095625" y="306.980953" style="fill-opacity: 0; stroke: #4c4c4c"/>
     <use xlink:href="#m19fe4be394" x="377.095625" y="306.861996" style="fill-opacity: 0; stroke: #4c4c4c"/>
     <use xlink:href="#m19fe4be394" x="377.095625" y="306.980953" style="fill-opacity: 0; stroke: #4c4c4c"/>
     <use xlink:href="#m19fe4be394" x="377.095625" y="307.337826" style="fill-opacity: 0; stroke: #4c4c4c"/>
     <use xlink:href="#m19fe4be394" x="377.095625" y="306.861996" style="fill-opacity: 0; stroke: #4c4c4c"/>
     <use xlink:href="#m19fe4be394" x="377.095625" y="306.861995" style="fill-opacity: 0; stroke: #4c4c4c"/>
     <use xlink:href="#m19fe4be394" x="377.095625" y="306.980953" style="fill-opacity: 0; stroke: #4c4c4c"/>
     <use xlink:href="#m19fe4be394" x="377.095625" y="306.861995" style="fill-opacity: 0; stroke: #4c4c4c"/>
     <use xlink:href="#m19fe4be394" x="377.095625" y="307.397305" style="fill-opacity: 0; stroke: #4c4c4c"/>
     <use xlink:href="#m19fe4be394" x="377.095625" y="306.861996" style="fill-opacity: 0; stroke: #4c4c4c"/>
     <use xlink:href="#m19fe4be394" x="377.095625" y="307.397305" style="fill-opacity: 0; stroke: #4c4c4c"/>
     <use xlink:href="#m19fe4be394" x="377.095625" y="307.397305" style="fill-opacity: 0; stroke: #4c4c4c"/>
     <use xlink:href="#m19fe4be394" x="377.095625" y="307.099911" style="fill-opacity: 0; stroke: #4c4c4c"/>
     <use xlink:href="#m19fe4be394" x="377.095625" y="306.861996" style="fill-opacity: 0; stroke: #4c4c4c"/>
     <use xlink:href="#m19fe4be394" x="377.095625" y="306.743038" style="fill-opacity: 0; stroke: #4c4c4c"/>
     <use xlink:href="#m19fe4be394" x="377.095625" y="307.278347" style="fill-opacity: 0; stroke: #4c4c4c"/>
     <use xlink:href="#m19fe4be394" x="377.095625" y="306.861996" style="fill-opacity: 0; stroke: #4c4c4c"/>
     <use xlink:href="#m19fe4be394" x="377.095625" y="306.861996" style="fill-opacity: 0; stroke: #4c4c4c"/>
     <use xlink:href="#m19fe4be394" x="377.095625" y="306.743038" style="fill-opacity: 0; stroke: #4c4c4c"/>
     <use xlink:href="#m19fe4be394" x="377.095625" y="307.397305" style="fill-opacity: 0; stroke: #4c4c4c"/>
     <use xlink:href="#m19fe4be394" x="377.095625" y="306.861996" style="fill-opacity: 0; stroke: #4c4c4c"/>
     <use xlink:href="#m19fe4be394" x="377.095625" y="306.743038" style="fill-opacity: 0; stroke: #4c4c4c"/>
     <use xlink:href="#m19fe4be394" x="377.095625" y="306.861996" style="fill-opacity: 0; stroke: #4c4c4c"/>
     <use xlink:href="#m19fe4be394" x="377.095625" y="306.743038" style="fill-opacity: 0; stroke: #4c4c4c"/>
     <use xlink:href="#m19fe4be394" x="377.095625" y="307.397305" style="fill-opacity: 0; stroke: #4c4c4c"/>
     <use xlink:href="#m19fe4be394" x="377.095625" y="306.861996" style="fill-opacity: 0; stroke: #4c4c4c"/>
     <use xlink:href="#m19fe4be394" x="377.095625" y="306.861996" style="fill-opacity: 0; stroke: #4c4c4c"/>
     <use xlink:href="#m19fe4be394" x="377.095625" y="306.743038" style="fill-opacity: 0; stroke: #4c4c4c"/>
     <use xlink:href="#m19fe4be394" x="377.095625" y="306.921474" style="fill-opacity: 0; stroke: #4c4c4c"/>
     <use xlink:href="#m19fe4be394" x="377.095625" y="306.861995" style="fill-opacity: 0; stroke: #4c4c4c"/>
     <use xlink:href="#m19fe4be394" x="377.095625" y="306.743038" style="fill-opacity: 0; stroke: #4c4c4c"/>
     <use xlink:href="#m19fe4be394" x="377.095625" y="306.861996" style="fill-opacity: 0; stroke: #4c4c4c"/>
     <use xlink:href="#m19fe4be394" x="377.095625" y="306.861996" style="fill-opacity: 0; stroke: #4c4c4c"/>
     <use xlink:href="#m19fe4be394" x="377.095625" y="307.397305" style="fill-opacity: 0; stroke: #4c4c4c"/>
     <use xlink:href="#m19fe4be394" x="377.095625" y="307.099911" style="fill-opacity: 0; stroke: #4c4c4c"/>
     <use xlink:href="#m19fe4be394" x="377.095625" y="306.743038" style="fill-opacity: 0; stroke: #4c4c4c"/>
     <use xlink:href="#m19fe4be394" x="377.095625" y="307.337826" style="fill-opacity: 0; stroke: #4c4c4c"/>
     <use xlink:href="#m19fe4be394" x="377.095625" y="307.099911" style="fill-opacity: 0; stroke: #4c4c4c"/>
     <use xlink:href="#m19fe4be394" x="377.095625" y="306.743038" style="fill-opacity: 0; stroke: #4c4c4c"/>
     <use xlink:href="#m19fe4be394" x="377.095625" y="307.040432" style="fill-opacity: 0; stroke: #4c4c4c"/>
     <use xlink:href="#m19fe4be394" x="377.095625" y="306.921474" style="fill-opacity: 0; stroke: #4c4c4c"/>
     <use xlink:href="#m19fe4be394" x="377.095625" y="307.337826" style="fill-opacity: 0; stroke: #4c4c4c"/>
     <use xlink:href="#m19fe4be394" x="377.095625" y="307.337826" style="fill-opacity: 0; stroke: #4c4c4c"/>
     <use xlink:href="#m19fe4be394" x="377.095625" y="306.743038" style="fill-opacity: 0; stroke: #4c4c4c"/>
     <use xlink:href="#m19fe4be394" x="377.095625" y="306.921466" style="fill-opacity: 0; stroke: #4c4c4c"/>
     <use xlink:href="#m19fe4be394" x="377.095625" y="306.861996" style="fill-opacity: 0; stroke: #4c4c4c"/>
     <use xlink:href="#m19fe4be394" x="377.095625" y="307.337826" style="fill-opacity: 0; stroke: #4c4c4c"/>
     <use xlink:href="#m19fe4be394" x="377.095625" y="306.980953" style="fill-opacity: 0; stroke: #4c4c4c"/>
     <use xlink:href="#m19fe4be394" x="377.095625" y="306.743038" style="fill-opacity: 0; stroke: #4c4c4c"/>
     <use xlink:href="#m19fe4be394" x="377.095625" y="307.397305" style="fill-opacity: 0; stroke: #4c4c4c"/>
     <use xlink:href="#m19fe4be394" x="377.095625" y="306.980953" style="fill-opacity: 0; stroke: #4c4c4c"/>
     <use xlink:href="#m19fe4be394" x="377.095625" y="306.980953" style="fill-opacity: 0; stroke: #4c4c4c"/>
     <use xlink:href="#m19fe4be394" x="377.095625" y="306.683559" style="fill-opacity: 0; stroke: #4c4c4c"/>
     <use xlink:href="#m19fe4be394" x="377.095625" y="306.861996" style="fill-opacity: 0; stroke: #4c4c4c"/>
     <use xlink:href="#m19fe4be394" x="377.095625" y="307.337826" style="fill-opacity: 0; stroke: #4c4c4c"/>
     <use xlink:href="#m19fe4be394" x="377.095625" y="307.397305" style="fill-opacity: 0; stroke: #4c4c4c"/>
     <use xlink:href="#m19fe4be394" x="377.095625" y="306.743038" style="fill-opacity: 0; stroke: #4c4c4c"/>
     <use xlink:href="#m19fe4be394" x="377.095625" y="307.397305" style="fill-opacity: 0; stroke: #4c4c4c"/>
     <use xlink:href="#m19fe4be394" x="377.095625" y="307.397305" style="fill-opacity: 0; stroke: #4c4c4c"/>
     <use xlink:href="#m19fe4be394" x="377.095625" y="307.15939" style="fill-opacity: 0; stroke: #4c4c4c"/>
     <use xlink:href="#m19fe4be394" x="377.095625" y="307.15939" style="fill-opacity: 0; stroke: #4c4c4c"/>
     <use xlink:href="#m19fe4be394" x="377.095625" y="307.278347" style="fill-opacity: 0; stroke: #4c4c4c"/>
     <use xlink:href="#m19fe4be394" x="377.095625" y="306.62408" style="fill-opacity: 0; stroke: #4c4c4c"/>
     <use xlink:href="#m19fe4be394" x="377.095625" y="307.337826" style="fill-opacity: 0; stroke: #4c4c4c"/>
     <use xlink:href="#m19fe4be394" x="377.095625" y="307.15939" style="fill-opacity: 0; stroke: #4c4c4c"/>
     <use xlink:href="#m19fe4be394" x="377.095625" y="365.906591" style="fill-opacity: 0; stroke: #4c4c4c"/>
     <use xlink:href="#m19fe4be394" x="377.095625" y="307.040432" style="fill-opacity: 0; stroke: #4c4c4c"/>
     <use xlink:href="#m19fe4be394" x="377.095625" y="307.397305" style="fill-opacity: 0; stroke: #4c4c4c"/>
     <use xlink:href="#m19fe4be394" x="377.095625" y="306.743038" style="fill-opacity: 0; stroke: #4c4c4c"/>
     <use xlink:href="#m19fe4be394" x="377.095625" y="307.278347" style="fill-opacity: 0; stroke: #4c4c4c"/>
     <use xlink:href="#m19fe4be394" x="377.095625" y="307.337826" style="fill-opacity: 0; stroke: #4c4c4c"/>
     <use xlink:href="#m19fe4be394" x="377.095625" y="307.397305" style="fill-opacity: 0; stroke: #4c4c4c"/>
     <use xlink:href="#m19fe4be394" x="377.095625" y="306.743038" style="fill-opacity: 0; stroke: #4c4c4c"/>
     <use xlink:href="#m19fe4be394" x="377.095625" y="306.742344" style="fill-opacity: 0; stroke: #4c4c4c"/>
     <use xlink:href="#m19fe4be394" x="377.095625" y="307.397305" style="fill-opacity: 0; stroke: #4c4c4c"/>
     <use xlink:href="#m19fe4be394" x="377.095625" y="306.505123" style="fill-opacity: 0; stroke: #4c4c4c"/>
     <use xlink:href="#m19fe4be394" x="377.095625" y="307.278347" style="fill-opacity: 0; stroke: #4c4c4c"/>
     <use xlink:href="#m19fe4be394" x="377.095625" y="307.337826" style="fill-opacity: 0; stroke: #4c4c4c"/>
     <use xlink:href="#m19fe4be394" x="377.095625" y="306.861995" style="fill-opacity: 0; stroke: #4c4c4c"/>
     <use xlink:href="#m19fe4be394" x="377.095625" y="307.278347" style="fill-opacity: 0; stroke: #4c4c4c"/>
     <use xlink:href="#m19fe4be394" x="377.095625" y="306.861996" style="fill-opacity: 0; stroke: #4c4c4c"/>
     <use xlink:href="#m19fe4be394" x="377.095625" y="307.397305" style="fill-opacity: 0; stroke: #4c4c4c"/>
     <use xlink:href="#m19fe4be394" x="377.095625" y="307.337826" style="fill-opacity: 0; stroke: #4c4c4c"/>
     <use xlink:href="#m19fe4be394" x="377.095625" y="307.099911" style="fill-opacity: 0; stroke: #4c4c4c"/>
     <use xlink:href="#m19fe4be394" x="377.095625" y="307.099911" style="fill-opacity: 0; stroke: #4c4c4c"/>
     <use xlink:href="#m19fe4be394" x="377.095625" y="306.861996" style="fill-opacity: 0; stroke: #4c4c4c"/>
     <use xlink:href="#m19fe4be394" x="377.095625" y="306.980953" style="fill-opacity: 0; stroke: #4c4c4c"/>
     <use xlink:href="#m19fe4be394" x="377.095625" y="307.099911" style="fill-opacity: 0; stroke: #4c4c4c"/>
     <use xlink:href="#m19fe4be394" x="377.095625" y="307.099911" style="fill-opacity: 0; stroke: #4c4c4c"/>
     <use xlink:href="#m19fe4be394" x="377.095625" y="306.861996" style="fill-opacity: 0; stroke: #4c4c4c"/>
     <use xlink:href="#m19fe4be394" x="377.095625" y="306.861996" style="fill-opacity: 0; stroke: #4c4c4c"/>
     <use xlink:href="#m19fe4be394" x="377.095625" y="306.980953" style="fill-opacity: 0; stroke: #4c4c4c"/>
     <use xlink:href="#m19fe4be394" x="377.095625" y="306.980953" style="fill-opacity: 0; stroke: #4c4c4c"/>
     <use xlink:href="#m19fe4be394" x="377.095625" y="306.861996" style="fill-opacity: 0; stroke: #4c4c4c"/>
     <use xlink:href="#m19fe4be394" x="377.095625" y="307.099911" style="fill-opacity: 0; stroke: #4c4c4c"/>
     <use xlink:href="#m19fe4be394" x="377.095625" y="307.099911" style="fill-opacity: 0; stroke: #4c4c4c"/>
     <use xlink:href="#m19fe4be394" x="377.095625" y="307.099911" style="fill-opacity: 0; stroke: #4c4c4c"/>
     <use xlink:href="#m19fe4be394" x="377.095625" y="307.099911" style="fill-opacity: 0; stroke: #4c4c4c"/>
     <use xlink:href="#m19fe4be394" x="377.095625" y="307.397305" style="fill-opacity: 0; stroke: #4c4c4c"/>
     <use xlink:href="#m19fe4be394" x="377.095625" y="306.861996" style="fill-opacity: 0; stroke: #4c4c4c"/>
     <use xlink:href="#m19fe4be394" x="377.095625" y="306.62408" style="fill-opacity: 0; stroke: #4c4c4c"/>
     <use xlink:href="#m19fe4be394" x="377.095625" y="307.15939" style="fill-opacity: 0; stroke: #4c4c4c"/>
     <use xlink:href="#m19fe4be394" x="377.095625" y="307.337826" style="fill-opacity: 0; stroke: #4c4c4c"/>
     <use xlink:href="#m19fe4be394" x="377.095625" y="307.337826" style="fill-opacity: 0; stroke: #4c4c4c"/>
     <use xlink:href="#m19fe4be394" x="377.095625" y="306.861996" style="fill-opacity: 0; stroke: #4c4c4c"/>
     <use xlink:href="#m19fe4be394" x="377.095625" y="306.743038" style="fill-opacity: 0; stroke: #4c4c4c"/>
     <use xlink:href="#m19fe4be394" x="377.095625" y="307.278347" style="fill-opacity: 0; stroke: #4c4c4c"/>
     <use xlink:href="#m19fe4be394" x="377.095625" y="307.278347" style="fill-opacity: 0; stroke: #4c4c4c"/>
     <use xlink:href="#m19fe4be394" x="377.095625" y="307.15939" style="fill-opacity: 0; stroke: #4c4c4c"/>
     <use xlink:href="#m19fe4be394" x="377.095625" y="307.15939" style="fill-opacity: 0; stroke: #4c4c4c"/>
     <use xlink:href="#m19fe4be394" x="377.095625" y="307.15939" style="fill-opacity: 0; stroke: #4c4c4c"/>
     <use xlink:href="#m19fe4be394" x="377.095625" y="307.15939" style="fill-opacity: 0; stroke: #4c4c4c"/>
     <use xlink:href="#m19fe4be394" x="377.095625" y="306.743038" style="fill-opacity: 0; stroke: #4c4c4c"/>
     <use xlink:href="#m19fe4be394" x="377.095625" y="306.743038" style="fill-opacity: 0; stroke: #4c4c4c"/>
     <use xlink:href="#m19fe4be394" x="377.095625" y="306.683559" style="fill-opacity: 0; stroke: #4c4c4c"/>
     <use xlink:href="#m19fe4be394" x="377.095625" y="306.861995" style="fill-opacity: 0; stroke: #4c4c4c"/>
     <use xlink:href="#m19fe4be394" x="377.095625" y="306.921474" style="fill-opacity: 0; stroke: #4c4c4c"/>
     <use xlink:href="#m19fe4be394" x="377.095625" y="258.250561" style="fill-opacity: 0; stroke: #4c4c4c"/>
     <use xlink:href="#m19fe4be394" x="377.095625" y="258.068329" style="fill-opacity: 0; stroke: #4c4c4c"/>
     <use xlink:href="#m19fe4be394" x="377.095625" y="258.360206" style="fill-opacity: 0; stroke: #4c4c4c"/>
     <use xlink:href="#m19fe4be394" x="377.095625" y="258.128116" style="fill-opacity: 0; stroke: #4c4c4c"/>
     <use xlink:href="#m19fe4be394" x="377.095625" y="256.151269" style="fill-opacity: 0; stroke: #4c4c4c"/>
     <use xlink:href="#m19fe4be394" x="377.095625" y="257.31408" style="fill-opacity: 0; stroke: #4c4c4c"/>
     <use xlink:href="#m19fe4be394" x="377.095625" y="258.204511" style="fill-opacity: 0; stroke: #4c4c4c"/>
     <use xlink:href="#m19fe4be394" x="377.095625" y="256.706164" style="fill-opacity: 0; stroke: #4c4c4c"/>
     <use xlink:href="#m19fe4be394" x="377.095625" y="256.764492" style="fill-opacity: 0; stroke: #4c4c4c"/>
     <use xlink:href="#m19fe4be394" x="377.095625" y="257.192497" style="fill-opacity: 0; stroke: #4c4c4c"/>
     <use xlink:href="#m19fe4be394" x="377.095625" y="258.466903" style="fill-opacity: 0; stroke: #4c4c4c"/>
     <use xlink:href="#m19fe4be394" x="377.095625" y="257.89559" style="fill-opacity: 0; stroke: #4c4c4c"/>
     <use xlink:href="#m19fe4be394" x="377.095625" y="256.455432" style="fill-opacity: 0; stroke: #4c4c4c"/>
     <use xlink:href="#m19fe4be394" x="377.095625" y="258.373248" style="fill-opacity: 0; stroke: #4c4c4c"/>
     <use xlink:href="#m19fe4be394" x="377.095625" y="257.612702" style="fill-opacity: 0; stroke: #4c4c4c"/>
     <use xlink:href="#m19fe4be394" x="377.095625" y="257.557246" style="fill-opacity: 0; stroke: #4c4c4c"/>
     <use xlink:href="#m19fe4be394" x="377.095625" y="258.422674" style="fill-opacity: 0; stroke: #4c4c4c"/>
     <use xlink:href="#m19fe4be394" x="377.095625" y="258.286745" style="fill-opacity: 0; stroke: #4c4c4c"/>
     <use xlink:href="#m19fe4be394" x="377.095625" y="256.706164" style="fill-opacity: 0; stroke: #4c4c4c"/>
     <use xlink:href="#m19fe4be394" x="377.095625" y="256.706164" style="fill-opacity: 0; stroke: #4c4c4c"/>
     <use xlink:href="#m19fe4be394" x="377.095625" y="256.706164" style="fill-opacity: 0; stroke: #4c4c4c"/>
     <use xlink:href="#m19fe4be394" x="377.095625" y="258.408328" style="fill-opacity: 0; stroke: #4c4c4c"/>
     <use xlink:href="#m19fe4be394" x="377.095625" y="256.706164" style="fill-opacity: 0; stroke: #4c4c4c"/>
    </g>
   </g>
   <g id="line2d_31">
    <path d="M 65.392625 225.505911 
L 243.508625 225.505911 
" clip-path="url(#p774e71e6b1)" style="fill: none; stroke: #4c4c4c"/>
   </g>
   <g id="line2d_32">
    <path d="M 288.037625 277.491819 
L 466.153625 277.491819 
" clip-path="url(#p774e71e6b1)" style="fill: none; stroke: #4c4c4c"/>
   </g>
   <g id="patch_5">
    <path d="M 43.128125 382.1475 
L 43.128125 24.8475 
" style="fill: none; stroke: #cccccc; stroke-linejoin: miter; stroke-linecap: square"/>
   </g>
   <g id="patch_6">
    <path d="M 488.418125 382.1475 
L 488.418125 24.8475 
" style="fill: none; stroke: #cccccc; stroke-linejoin: miter; stroke-linecap: square"/>
   </g>
   <g id="patch_7">
    <path d="M 43.128125 382.1475 
L 488.418125 382.1475 
" style="fill: none; stroke: #cccccc; stroke-linejoin: miter; stroke-linecap: square"/>
   </g>
   <g id="patch_8">
    <path d="M 43.128125 24.8475 
L 488.418125 24.8475 
" style="fill: none; stroke: #cccccc; stroke-linejoin: miter; stroke-linecap: square"/>
   </g>
   <g id="text_14">
    <!-- A. PRI Distribution by Drug Category -->
    <g style="fill: #262626" transform="translate(135.505625 18.8475) scale(0.16 -0.16)">
     <defs>
      <path id="ArialMT-41" d="M -9 0 
L 1750 4581 
L 2403 4581 
L 4278 0 
L 3588 0 
L 3053 1388 
L 1138 1388 
L 634 0 
L -9 0 
z
M 1313 1881 
L 2866 1881 
L 2388 3150 
Q 2169 3728 2063 4100 
Q 1975 3659 1816 3225 
L 1313 1881 
z
" transform="scale(0.015625)"/>
      <path id="ArialMT-62" d="M 941 0 
L 419 0 
L 419 4581 
L 981 4581 
L 981 2947 
Q 1338 3394 1891 3394 
Q 2197 3394 2470 3270 
Q 2744 3147 2920 2923 
Q 3097 2700 3197 2384 
Q 3297 2069 3297 1709 
Q 3297 856 2875 390 
Q 2453 -75 1863 -75 
Q 1275 -75 941 416 
L 941 0 
z
M 934 1684 
Q 934 1088 1097 822 
Q 1363 388 1816 388 
Q 2184 388 2453 708 
Q 2722 1028 2722 1663 
Q 2722 2313 2464 2622 
Q 2206 2931 1841 2931 
Q 1472 2931 1203 2611 
Q 934 2291 934 1684 
z
" transform="scale(0.015625)"/>
     </defs>
     <use xlink:href="#ArialMT-41"/>
     <use xlink:href="#ArialMT-2e" transform="translate(66.699219 0)"/>
     <use xlink:href="#ArialMT-20" transform="translate(94.482422 0)"/>
     <use xlink:href="#ArialMT-50" transform="translate(122.265625 0)"/>
     <use xlink:href="#ArialMT-52" transform="translate(188.964844 0)"/>
     <use xlink:href="#ArialMT-49" transform="translate(261.181641 0)"/>
     <use xlink:href="#ArialMT-20" transform="translate(288.964844 0)"/>
     <use xlink:href="#ArialMT-44" transform="translate(316.748047 0)"/>
     <use xlink:href="#ArialMT-69" transform="translate(388.964844 0)"/>
     <use xlink:href="#ArialMT-73" transform="translate(411.181641 0)"/>
     <use xlink:href="#ArialMT-74" transform="translate(461.181641 0)"/>
     <use xlink:href="#ArialMT-72" transform="translate(488.964844 0)"/>
     <use xlink:href="#ArialMT-69" transform="translate(522.265625 0)"/>
     <use xlink:href="#ArialMT-62" transform="translate(544.482422 0)"/>
     <use xlink:href="#ArialMT-75" transform="translate(600.097656 0)"/>
     <use xlink:href="#ArialMT-74" transform="translate(655.712891 0)"/>
     <use xlink:href="#ArialMT-69" transform="translate(683.496094 0)"/>
     <use xlink:href="#ArialMT-6f" transform="translate(705.712891 0)"/>
     <use xlink:href="#ArialMT-6e" transform="translate(761.328125 0)"/>
     <use xlink:href="#ArialMT-20" transform="translate(816.943359 0)"/>
     <use xlink:href="#ArialMT-62" transform="translate(844.726562 0)"/>
     <use xlink:href="#ArialMT-79" transform="translate(900.341797 0)"/>
     <use xlink:href="#ArialMT-20" transform="translate(950.341797 0)"/>
     <use xlink:href="#ArialMT-44" transform="translate(978.125 0)"/>
     <use xlink:href="#ArialMT-72" transform="translate(1050.341797 0)"/>
     <use xlink:href="#ArialMT-75" transform="translate(1083.642578 0)"/>
     <use xlink:href="#ArialMT-67" transform="translate(1139.257812 0)"/>
     <use xlink:href="#ArialMT-20" transform="translate(1194.873047 0)"/>
     <use xlink:href="#ArialMT-43" transform="translate(1222.65625 0)"/>
     <use xlink:href="#ArialMT-61" transform="translate(1294.873047 0)"/>
     <use xlink:href="#ArialMT-74" transform="translate(1350.488281 0)"/>
     <use xlink:href="#ArialMT-65" transform="translate(1378.271484 0)"/>
     <use xlink:href="#ArialMT-67" transform="translate(1433.886719 0)"/>
     <use xlink:href="#ArialMT-6f" transform="translate(1489.501953 0)"/>
     <use xlink:href="#ArialMT-72" transform="translate(1545.117188 0)"/>
     <use xlink:href="#ArialMT-79" transform="translate(1578.417969 0)"/>
    </g>
   </g>
  </g>
  <g id="axes_2">
   <g id="patch_9">
    <path d="M 543.768125 382.1475 
L 989.058125 382.1475 
L 989.058125 24.8475 
L 543.768125 24.8475 
z
" style="fill: #ffffff"/>
   </g>
   <g id="matplotlib.axis_3">
    <g id="xtick_3">
     <g id="line2d_33"/>
     <g id="text_15">
      <!-- Cardiovascular -->
      <g style="fill: #262626" transform="translate(618.410781 393.521094) scale(0.11 -0.11)">
       <use xlink:href="#ArialMT-43"/>
       <use xlink:href="#ArialMT-61" transform="translate(72.216797 0)"/>
       <use xlink:href="#ArialMT-72" transform="translate(127.832031 0)"/>
       <use xlink:href="#ArialMT-64" transform="translate(161.132812 0)"/>
       <use xlink:href="#ArialMT-69" transform="translate(216.748047 0)"/>
       <use xlink:href="#ArialMT-6f" transform="translate(238.964844 0)"/>
       <use xlink:href="#ArialMT-76" transform="translate(294.580078 0)"/>
       <use xlink:href="#ArialMT-61" transform="translate(344.580078 0)"/>
       <use xlink:href="#ArialMT-73" transform="translate(400.195312 0)"/>
       <use xlink:href="#ArialMT-63" transform="translate(450.195312 0)"/>
       <use xlink:href="#ArialMT-75" transform="translate(500.195312 0)"/>
       <use xlink:href="#ArialMT-6c" transform="translate(555.810547 0)"/>
       <use xlink:href="#ArialMT-61" transform="translate(578.027344 0)"/>
       <use xlink:href="#ArialMT-72" transform="translate(633.642578 0)"/>
      </g>
     </g>
    </g>
    <g id="xtick_4">
     <g id="line2d_34"/>
     <g id="text_16">
      <!-- Other -->
      <g style="fill: #262626" transform="translate(863.981328 393.521094) scale(0.11 -0.11)">
       <use xlink:href="#ArialMT-4f"/>
       <use xlink:href="#ArialMT-74" transform="translate(77.783203 0)"/>
       <use xlink:href="#ArialMT-68" transform="translate(105.566406 0)"/>
       <use xlink:href="#ArialMT-65" transform="translate(161.181641 0)"/>
       <use xlink:href="#ArialMT-72" transform="translate(216.796875 0)"/>
      </g>
     </g>
    </g>
    <g id="text_17">
     <!-- Drug Category -->
     <g style="fill: #262626" transform="translate(720.895625 409.898906) scale(0.14 -0.14)">
      <use xlink:href="#ArialMT-44"/>
      <use xlink:href="#ArialMT-72" transform="translate(72.216797 0)"/>
      <use xlink:href="#ArialMT-75" transform="translate(105.517578 0)"/>
      <use xlink:href="#ArialMT-67" transform="translate(161.132812 0)"/>
      <use xlink:href="#ArialMT-20" transform="translate(216.748047 0)"/>
      <use xlink:href="#ArialMT-43" transform="translate(244.53125 0)"/>
      <use xlink:href="#ArialMT-61" transform="translate(316.748047 0)"/>
      <use xlink:href="#ArialMT-74" transform="translate(372.363281 0)"/>
      <use xlink:href="#ArialMT-65" transform="translate(400.146484 0)"/>
      <use xlink:href="#ArialMT-67" transform="translate(455.761719 0)"/>
      <use xlink:href="#ArialMT-6f" transform="translate(511.376953 0)"/>
      <use xlink:href="#ArialMT-72" transform="translate(566.992188 0)"/>
      <use xlink:href="#ArialMT-79" transform="translate(600.292969 0)"/>
     </g>
    </g>
   </g>
   <g id="matplotlib.axis_4">
    <g id="ytick_10">
     <g id="line2d_35">
      <path d="M 543.768125 378.238945 
L 989.058125 378.238945 
" clip-path="url(#pa04728e1e5)" style="fill: none; stroke: #cccccc; stroke-width: 0.8; stroke-linecap: round"/>
     </g>
     <g id="line2d_36"/>
     <g id="text_18">
      <!-- 0.1 -->
      <g style="fill: #262626" transform="translate(518.553438 382.175742) scale(0.11 -0.11)">
       <defs>
        <path id="ArialMT-2212" d="M 3381 1997 
L 356 1997 
L 356 2522 
L 3381 2522 
L 3381 1997 
z
" transform="scale(0.015625)"/>
       </defs>
       <use xlink:href="#ArialMT-2212"/>
       <use xlink:href="#ArialMT-30" transform="translate(58.398438 0)"/>
       <use xlink:href="#ArialMT-2e" transform="translate(114.013672 0)"/>
       <use xlink:href="#ArialMT-31" transform="translate(141.796875 0)"/>
      </g>
     </g>
    </g>
    <g id="ytick_11">
     <g id="line2d_37">
      <path d="M 543.768125 331.925428 
L 989.058125 331.925428 
" clip-path="url(#pa04728e1e5)" style="fill: none; stroke: #cccccc; stroke-width: 0.8; stroke-linecap: round"/>
     </g>
     <g id="line2d_38"/>
     <g id="text_19">
      <!-- 0.0 -->
      <g style="fill: #262626" transform="translate(524.978125 335.862225) scale(0.11 -0.11)">
       <use xlink:href="#ArialMT-30"/>
       <use xlink:href="#ArialMT-2e" transform="translate(55.615234 0)"/>
       <use xlink:href="#ArialMT-30" transform="translate(83.398438 0)"/>
      </g>
     </g>
    </g>
    <g id="ytick_12">
     <g id="line2d_39">
      <path d="M 543.768125 285.611912 
L 989.058125 285.611912 
" clip-path="url(#pa04728e1e5)" style="fill: none; stroke: #cccccc; stroke-width: 0.8; stroke-linecap: round"/>
     </g>
     <g id="line2d_40"/>
     <g id="text_20">
      <!-- 0.1 -->
      <g style="fill: #262626" transform="translate(524.978125 289.548709) scale(0.11 -0.11)">
       <use xlink:href="#ArialMT-30"/>
       <use xlink:href="#ArialMT-2e" transform="translate(55.615234 0)"/>
       <use xlink:href="#ArialMT-31" transform="translate(83.398438 0)"/>
      </g>
     </g>
    </g>
    <g id="ytick_13">
     <g id="line2d_41">
      <path d="M 543.768125 239.298396 
L 989.058125 239.298396 
" clip-path="url(#pa04728e1e5)" style="fill: none; stroke: #cccccc; stroke-width: 0.8; stroke-linecap: round"/>
     </g>
     <g id="line2d_42"/>
     <g id="text_21">
      <!-- 0.2 -->
      <g style="fill: #262626" transform="translate(524.978125 243.235193) scale(0.11 -0.11)">
       <use xlink:href="#ArialMT-30"/>
       <use xlink:href="#ArialMT-2e" transform="translate(55.615234 0)"/>
       <use xlink:href="#ArialMT-32" transform="translate(83.398438 0)"/>
      </g>
     </g>
    </g>
    <g id="ytick_14">
     <g id="line2d_43">
      <path d="M 543.768125 192.984879 
L 989.058125 192.984879 
" clip-path="url(#pa04728e1e5)" style="fill: none; stroke: #cccccc; stroke-width: 0.8; stroke-linecap: round"/>
     </g>
     <g id="line2d_44"/>
     <g id="text_22">
      <!-- 0.3 -->
      <g style="fill: #262626" transform="translate(524.978125 196.921676) scale(0.11 -0.11)">
       <use xlink:href="#ArialMT-30"/>
       <use xlink:href="#ArialMT-2e" transform="translate(55.615234 0)"/>
       <use xlink:href="#ArialMT-33" transform="translate(83.398438 0)"/>
      </g>
     </g>
    </g>
    <g id="ytick_15">
     <g id="line2d_45">
      <path d="M 543.768125 146.671363 
L 989.058125 146.671363 
" clip-path="url(#pa04728e1e5)" style="fill: none; stroke: #cccccc; stroke-width: 0.8; stroke-linecap: round"/>
     </g>
     <g id="line2d_46"/>
     <g id="text_23">
      <!-- 0.4 -->
      <g style="fill: #262626" transform="translate(524.978125 150.60816) scale(0.11 -0.11)">
       <use xlink:href="#ArialMT-30"/>
       <use xlink:href="#ArialMT-2e" transform="translate(55.615234 0)"/>
       <use xlink:href="#ArialMT-34" transform="translate(83.398438 0)"/>
      </g>
     </g>
    </g>
    <g id="ytick_16">
     <g id="line2d_47">
      <path d="M 543.768125 100.357847 
L 989.058125 100.357847 
" clip-path="url(#pa04728e1e5)" style="fill: none; stroke: #cccccc; stroke-width: 0.8; stroke-linecap: round"/>
     </g>
     <g id="line2d_48"/>
     <g id="text_24">
      <!-- 0.5 -->
      <g style="fill: #262626" transform="translate(524.978125 104.294644) scale(0.11 -0.11)">
       <use xlink:href="#ArialMT-30"/>
       <use xlink:href="#ArialMT-2e" transform="translate(55.615234 0)"/>
       <use xlink:href="#ArialMT-35" transform="translate(83.398438 0)"/>
      </g>
     </g>
    </g>
    <g id="ytick_17">
     <g id="line2d_49">
      <path d="M 543.768125 54.04433 
L 989.058125 54.04433 
" clip-path="url(#pa04728e1e5)" style="fill: none; stroke: #cccccc; stroke-width: 0.8; stroke-linecap: round"/>
     </g>
     <g id="line2d_50"/>
     <g id="text_25">
      <!-- 0.6 -->
      <g style="fill: #262626" transform="translate(524.978125 57.981127) scale(0.11 -0.11)">
       <use xlink:href="#ArialMT-30"/>
       <use xlink:href="#ArialMT-2e" transform="translate(55.615234 0)"/>
       <use xlink:href="#ArialMT-36" transform="translate(83.398438 0)"/>
      </g>
     </g>
    </g>
    <g id="text_26">
     <!-- Degree Centrality -->
     <g style="fill: #262626" transform="translate(511.606875 257.962969) rotate(-90) scale(0.14 -0.14)">
      <use xlink:href="#ArialMT-44"/>
      <use xlink:href="#ArialMT-65" transform="translate(72.216797 0)"/>
      <use xlink:href="#ArialMT-67" transform="translate(127.832031 0)"/>
      <use xlink:href="#ArialMT-72" transform="translate(183.447266 0)"/>
      <use xlink:href="#ArialMT-65" transform="translate(216.748047 0)"/>
      <use xlink:href="#ArialMT-65" transform="translate(272.363281 0)"/>
      <use xlink:href="#ArialMT-20" transform="translate(327.978516 0)"/>
      <use xlink:href="#ArialMT-43" transform="translate(355.761719 0)"/>
      <use xlink:href="#ArialMT-65" transform="translate(427.978516 0)"/>
      <use xlink:href="#ArialMT-6e" transform="translate(483.59375 0)"/>
      <use xlink:href="#ArialMT-74" transform="translate(539.208984 0)"/>
      <use xlink:href="#ArialMT-72" transform="translate(566.992188 0)"/>
      <use xlink:href="#ArialMT-61" transform="translate(600.292969 0)"/>
      <use xlink:href="#ArialMT-6c" transform="translate(655.908203 0)"/>
      <use xlink:href="#ArialMT-69" transform="translate(678.125 0)"/>
      <use xlink:href="#ArialMT-74" transform="translate(700.341797 0)"/>
      <use xlink:href="#ArialMT-79" transform="translate(728.125 0)"/>
     </g>
    </g>
   </g>
   <g id="FillBetweenPolyCollection_1">
    <defs>
     <path id="m6061a74e69" d="M 658.250866 -54.138878 
L 651.930384 -54.138878 
L 650.3895 -57.41987 
L 648.335949 -60.700861 
L 645.714008 -63.981853 
L 642.511082 -67.262845 
L 638.774201 -70.543837 
L 634.620268 -73.824828 
L 630.235759 -77.10582 
L 625.86316 -80.386812 
L 621.774131 -83.667803 
L 618.232769 -86.948795 
L 615.455313 -90.229787 
L 613.574325 -93.510779 
L 612.615047 -96.79177 
L 612.489284 -100.072762 
L 613.008272 -103.353754 
L 613.911679 -106.634746 
L 614.90633 -109.915737 
L 615.706404 -113.196729 
L 616.067206 -116.477721 
L 615.806971 -119.758713 
L 614.814753 -123.039704 
L 613.046247 -126.320696 
L 610.512244 -129.601688 
L 607.265505 -132.882679 
L 603.390937 -136.163671 
L 599.001469 -139.444663 
L 594.23877 -142.725655 
L 589.275347 -146.006646 
L 584.313332 -149.287638 
L 579.576153 -152.56863 
L 575.291729 -155.849622 
L 571.669041 -159.130613 
L 568.872686 -162.411605 
L 567.00121 -165.692597 
L 566.074418 -168.973589 
L 566.032625 -172.25458 
L 566.747884 -175.535572 
L 568.044512 -178.816564 
L 569.724509 -182.097556 
L 571.593016 -185.378547 
L 573.479703 -188.659539 
L 575.253454 -191.940531 
L 576.829447 -195.221522 
L 578.169299 -198.502514 
L 579.27602 -201.783506 
L 580.185908 -205.064498 
L 580.959367 -208.345489 
L 581.671912 -211.626481 
L 582.40589 -214.907473 
L 583.242784 -218.188465 
L 584.255834 -221.469456 
L 585.502975 -224.750448 
L 587.020671 -228.03144 
L 588.819704 -231.312432 
L 590.88409 -234.593423 
L 593.173853 -237.874415 
L 595.631545 -241.155407 
L 598.191413 -244.436399 
L 600.789393 -247.71739 
L 603.371863 -250.998382 
L 605.90145 -254.279374 
L 608.358956 -257.560365 
L 610.741471 -260.841357 
L 613.057588 -264.122349 
L 615.321247 -267.403341 
L 617.545875 -270.684332 
L 619.740191 -273.965324 
L 621.906486 -277.246316 
L 624.041411 -280.527308 
L 626.138613 -283.808299 
L 628.192091 -287.089291 
L 630.19902 -290.370283 
L 632.161042 -293.651275 
L 634.083544 -296.932266 
L 635.973097 -300.213258 
L 637.833816 -303.49425 
L 639.663752 -306.775241 
L 641.45245 -310.056233 
L 643.180539 -313.337225 
L 644.82165 -316.618217 
L 646.346343 -319.899208 
L 647.727167 -323.1802 
L 648.943637 -326.461192 
L 649.985949 -329.742184 
L 650.856572 -333.023175 
L 651.569417 -336.304167 
L 652.146919 -339.585159 
L 652.615857 -342.866151 
L 653.002946 -346.147142 
L 653.33121 -349.428134 
L 653.617778 -352.709126 
L 653.873301 -355.990118 
L 654.10278 -359.271109 
L 654.307267 -362.552101 
L 654.485837 -365.833093 
L 654.637319 -369.114084 
L 654.761453 -372.395076 
L 654.859392 -375.676068 
L 654.933657 -378.95706 
L 655.247593 -378.95706 
L 655.247593 -378.95706 
L 655.321858 -375.676068 
L 655.419797 -372.395076 
L 655.543931 -369.114084 
L 655.695413 -365.833093 
L 655.873983 -362.552101 
L 656.07847 -359.271109 
L 656.307949 -355.990118 
L 656.563472 -352.709126 
L 656.85004 -349.428134 
L 657.178304 -346.147142 
L 657.565393 -342.866151 
L 658.034331 -339.585159 
L 658.611833 -336.304167 
L 659.324678 -333.023175 
L 660.195301 -329.742184 
L 661.237613 -326.461192 
L 662.454083 -323.1802 
L 663.834907 -319.899208 
L 665.3596 -316.618217 
L 667.000711 -313.337225 
L 668.7288 -310.056233 
L 670.517498 -306.775241 
L 672.347434 -303.49425 
L 674.208153 -300.213258 
L 676.097706 -296.932266 
L 678.020208 -293.651275 
L 679.98223 -290.370283 
L 681.989159 -287.089291 
L 684.042637 -283.808299 
L 686.139839 -280.527308 
L 688.274764 -277.246316 
L 690.441059 -273.965324 
L 692.635375 -270.684332 
L 694.860003 -267.403341 
L 697.123662 -264.122349 
L 699.439779 -260.841357 
L 701.822294 -257.560365 
L 704.2798 -254.279374 
L 706.809387 -250.998382 
L 709.391857 -247.71739 
L 711.989837 -244.436399 
L 714.549705 -241.155407 
L 717.007397 -237.874415 
L 719.29716 -234.593423 
L 721.361546 -231.312432 
L 723.160579 -228.03144 
L 724.678275 -224.750448 
L 725.925416 -221.469456 
L 726.938466 -218.188465 
L 727.77536 -214.907473 
L 728.509338 -211.626481 
L 729.221883 -208.345489 
L 729.995342 -205.064498 
L 730.90523 -201.783506 
L 732.011951 -198.502514 
L 733.351803 -195.221522 
L 734.927796 -191.940531 
L 736.701547 -188.659539 
L 738.588234 -185.378547 
L 740.456741 -182.097556 
L 742.136738 -178.816564 
L 743.433366 -175.535572 
L 744.148625 -172.25458 
L 744.106832 -168.973589 
L 743.18004 -165.692597 
L 741.308564 -162.411605 
L 738.512209 -159.130613 
L 734.889521 -155.849622 
L 730.605097 -152.56863 
L 725.867918 -149.287638 
L 720.905903 -146.006646 
L 715.94248 -142.725655 
L 711.179781 -139.444663 
L 706.790313 -136.163671 
L 702.915745 -132.882679 
L 699.669006 -129.601688 
L 697.135003 -126.320696 
L 695.366497 -123.039704 
L 694.374279 -119.758713 
L 694.114044 -116.477721 
L 694.474846 -113.196729 
L 695.27492 -109.915737 
L 696.269571 -106.634746 
L 697.172978 -103.353754 
L 697.691966 -100.072762 
L 697.566203 -96.79177 
L 696.606925 -93.510779 
L 694.725937 -90.229787 
L 691.948481 -86.948795 
L 688.407119 -83.667803 
L 684.31809 -80.386812 
L 679.945491 -77.10582 
L 675.560982 -73.824828 
L 671.407049 -70.543837 
L 667.670168 -67.262845 
L 664.467242 -63.981853 
L 661.845301 -60.700861 
L 659.79175 -57.41987 
L 658.250866 -54.138878 
z
" style="stroke: #4c4c4c; stroke-width: 1.25"/>
    </defs>
    <g clip-path="url(#pa04728e1e5)">
     <use xlink:href="#m6061a74e69" x="0" y="420.045469" style="fill: #cb3335; stroke: #4c4c4c; stroke-width: 1.25"/>
    </g>
   </g>
   <g id="FillBetweenPolyCollection_2">
    <defs>
     <path id="mbfdd841e6b" d="M 882.456304 -84.672119 
L 873.014946 -84.672119 
L 869.426318 -85.135505 
L 864.002321 -85.598891 
L 856.410126 -86.062277 
L 846.599623 -86.525663 
L 834.952669 -86.989049 
L 822.345599 -87.452435 
L 810.066487 -87.915822 
L 799.577051 -88.379208 
L 792.176576 -88.842594 
L 788.677625 -89.30598 
L 789.209414 -89.769366 
L 793.217339 -90.232752 
L 799.649356 -90.696138 
L 807.25138 -91.159524 
L 814.86567 -91.62291 
L 821.644462 -92.086296 
L 827.138061 -92.549682 
L 831.265948 -93.013068 
L 834.211668 -93.476455 
L 836.291597 -93.939841 
L 837.838625 -94.403227 
L 839.123424 -94.866613 
L 840.317105 -95.329999 
L 841.486352 -95.793385 
L 842.608527 -96.256771 
L 843.597986 -96.720157 
L 844.340575 -97.183543 
L 844.735027 -97.646929 
L 844.735895 -98.110315 
L 844.386119 -98.573702 
L 843.82508 -99.037088 
L 843.264256 -99.500474 
L 842.935755 -99.96386 
L 843.031741 -100.427246 
L 843.657292 -100.890632 
L 844.812606 -101.354018 
L 846.406733 -101.817404 
L 848.292238 -102.28079 
L 850.304741 -102.744176 
L 852.294389 -103.207562 
L 854.143862 -103.670948 
L 855.774284 -104.134335 
L 857.14337 -104.597721 
L 858.239654 -105.061107 
L 859.075076 -105.524493 
L 859.677288 -105.987879 
L 860.082956 -106.451265 
L 860.333252 -106.914651 
L 860.471852 -107.378037 
L 860.544554 -107.841423 
L 860.598789 -108.304809 
L 860.681606 -108.768195 
L 860.835721 -109.231581 
L 861.094423 -109.694968 
L 861.476768 -110.158354 
L 861.984578 -110.62174 
L 862.602442 -111.085126 
L 863.301285 -111.548512 
L 864.04512 -112.011898 
L 864.799333 -112.475284 
L 865.537915 -112.93867 
L 866.247085 -113.402056 
L 866.92401 -113.865442 
L 867.571449 -114.328828 
L 868.191014 -114.792214 
L 868.778289 -115.255601 
L 869.322041 -115.718987 
L 869.807487 -116.182373 
L 870.221412 -116.645759 
L 870.555867 -117.109145 
L 870.808144 -117.572531 
L 870.977167 -118.035917 
L 871.059259 -118.499303 
L 871.047412 -118.962689 
L 870.936743 -119.426075 
L 870.735071 -119.889461 
L 870.473514 -120.352847 
L 870.210435 -120.816234 
L 870.024158 -121.27962 
L 869.995167 -121.743006 
L 870.183973 -122.206392 
L 870.613434 -122.669778 
L 871.262523 -123.133164 
L 872.073358 -123.59655 
L 872.967726 -124.059936 
L 873.866229 -124.523322 
L 874.703586 -124.986708 
L 875.436662 -125.450094 
L 876.04525 -125.91348 
L 876.527918 -126.376867 
L 876.895803 -126.840253 
L 877.166577 -127.303639 
L 877.359772 -127.767025 
L 877.493761 -128.230411 
L 877.584222 -128.693797 
L 877.643668 -129.157183 
L 877.681622 -129.620569 
L 877.705083 -130.083955 
L 877.719061 -130.547341 
L 877.752189 -130.547341 
L 877.752189 -130.547341 
L 877.766167 -130.083955 
L 877.789628 -129.620569 
L 877.827582 -129.157183 
L 877.887028 -128.693797 
L 877.977489 -128.230411 
L 878.111478 -127.767025 
L 878.304673 -127.303639 
L 878.575447 -126.840253 
L 878.943332 -126.376867 
L 879.426 -125.91348 
L 880.034588 -125.450094 
L 880.767664 -124.986708 
L 881.605021 -124.523322 
L 882.503524 -124.059936 
L 883.397892 -123.59655 
L 884.208727 -123.133164 
L 884.857816 -122.669778 
L 885.287277 -122.206392 
L 885.476083 -121.743006 
L 885.447092 -121.27962 
L 885.260815 -120.816234 
L 884.997736 -120.352847 
L 884.736179 -119.889461 
L 884.534507 -119.426075 
L 884.423838 -118.962689 
L 884.411991 -118.499303 
L 884.494083 -118.035917 
L 884.663106 -117.572531 
L 884.915383 -117.109145 
L 885.249838 -116.645759 
L 885.663763 -116.182373 
L 886.149209 -115.718987 
L 886.692961 -115.255601 
L 887.280236 -114.792214 
L 887.899801 -114.328828 
L 888.54724 -113.865442 
L 889.224165 -113.402056 
L 889.933335 -112.93867 
L 890.671917 -112.475284 
L 891.42613 -112.011898 
L 892.169965 -111.548512 
L 892.868808 -111.085126 
L 893.486672 -110.62174 
L 893.994482 -110.158354 
L 894.376827 -109.694968 
L 894.635529 -109.231581 
L 894.789644 -108.768195 
L 894.872461 -108.304809 
L 894.926696 -107.841423 
L 894.999398 -107.378037 
L 895.137998 -106.914651 
L 895.388294 -106.451265 
L 895.793962 -105.987879 
L 896.396174 -105.524493 
L 897.231596 -105.061107 
L 898.32788 -104.597721 
L 899.696966 -104.134335 
L 901.327388 -103.670948 
L 903.176861 -103.207562 
L 905.166509 -102.744176 
L 907.179012 -102.28079 
L 909.064517 -101.817404 
L 910.658644 -101.354018 
L 911.813958 -100.890632 
L 912.439509 -100.427246 
L 912.535495 -99.96386 
L 912.206994 -99.500474 
L 911.64617 -99.037088 
L 911.085131 -98.573702 
L 910.735355 -98.110315 
L 910.736223 -97.646929 
L 911.130675 -97.183543 
L 911.873264 -96.720157 
L 912.862723 -96.256771 
L 913.984898 -95.793385 
L 915.154145 -95.329999 
L 916.347826 -94.866613 
L 917.632625 -94.403227 
L 919.179653 -93.939841 
L 921.259582 -93.476455 
L 924.205302 -93.013068 
L 928.333189 -92.549682 
L 933.826788 -92.086296 
L 940.60558 -91.62291 
L 948.21987 -91.159524 
L 955.821894 -90.696138 
L 962.253911 -90.232752 
L 966.261836 -89.769366 
L 966.793625 -89.30598 
L 963.294674 -88.842594 
L 955.894199 -88.379208 
L 945.404763 -87.915822 
L 933.125651 -87.452435 
L 920.518581 -86.989049 
L 908.871627 -86.525663 
L 899.061124 -86.062277 
L 891.468929 -85.598891 
L 886.044932 -85.135505 
L 882.456304 -84.672119 
z
" style="stroke: #4c4c4c; stroke-width: 1.25"/>
    </defs>
    <g clip-path="url(#pa04728e1e5)">
     <use xlink:href="#mbfdd841e6b" x="0" y="420.045469" style="fill: #999999; stroke: #4c4c4c; stroke-width: 1.25"/>
    </g>
   </g>
   <g id="line2d_51">
    <path d="M 655.090625 331.818047 
L 655.090625 105.99536 
" clip-path="url(#pa04728e1e5)" style="fill: none; stroke: #4c4c4c; stroke-width: 1.875; stroke-linecap: round"/>
   </g>
   <g id="line2d_52">
    <path d="M 655.090625 264.060503 
L 655.090625 190.719136 
" clip-path="url(#pa04728e1e5)" style="fill: none; stroke: #4c4c4c; stroke-width: 5.625; stroke-linecap: round"/>
   </g>
   <g id="line2d_53">
    <path d="M 655.090625 237.322581 
" clip-path="url(#pa04728e1e5)" style="fill: none; stroke: #4c4c4c; stroke-width: 1.5; stroke-linecap: round"/>
    <defs>
     <path id="m9981d105a3" d="M 2.34375 0 
L -2.34375 -0 
" style="stroke: #ffffff; stroke-width: 1.125"/>
    </defs>
    <g clip-path="url(#pa04728e1e5)">
     <use xlink:href="#m9981d105a3" x="655.090625" y="237.322581" style="fill: #ffffff; stroke: #ffffff; stroke-width: 1.125"/>
    </g>
   </g>
   <g id="line2d_54">
    <path d="M 877.735625 331.818047 
L 877.735625 298.100347 
" clip-path="url(#pa04728e1e5)" style="fill: none; stroke: #4c4c4c; stroke-width: 1.875; stroke-linecap: round"/>
   </g>
   <g id="line2d_55">
    <path d="M 877.735625 330.529473 
L 877.735625 317.536346 
" clip-path="url(#pa04728e1e5)" style="fill: none; stroke: #4c4c4c; stroke-width: 5.625; stroke-linecap: round"/>
   </g>
   <g id="line2d_56">
    <path d="M 877.735625 325.482556 
" clip-path="url(#pa04728e1e5)" style="fill: none; stroke: #4c4c4c; stroke-width: 1.5; stroke-linecap: round"/>
    <g clip-path="url(#pa04728e1e5)">
     <use xlink:href="#m9981d105a3" x="877.735625" y="325.482556" style="fill: #ffffff; stroke: #ffffff; stroke-width: 1.125"/>
    </g>
   </g>
   <g id="patch_10">
    <path d="M 543.768125 382.1475 
L 543.768125 24.8475 
" style="fill: none; stroke: #cccccc; stroke-linejoin: miter; stroke-linecap: square"/>
   </g>
   <g id="patch_11">
    <path d="M 989.058125 382.1475 
L 989.058125 24.8475 
" style="fill: none; stroke: #cccccc; stroke-linejoin: miter; stroke-linecap: square"/>
   </g>
   <g id="patch_12">
    <path d="M 543.768125 382.1475 
L 989.058125 382.1475 
" style="fill: none; stroke: #cccccc; stroke-linejoin: miter; stroke-linecap: square"/>
   </g>
   <g id="patch_13">
    <path d="M 543.768125 24.8475 
L 989.058125 24.8475 
" style="fill: none; stroke: #cccccc; stroke-linejoin: miter; stroke-linecap: square"/>
   </g>
   <g id="text_27">
    <!-- B. Degree Centrality by Drug Category -->
    <g style="fill: #262626" transform="translate(629.471875 18.8475) scale(0.16 -0.16)">
     <defs>
      <path id="ArialMT-42" d="M 469 0 
L 469 4581 
L 2188 4581 
Q 2713 4581 3030 4442 
Q 3347 4303 3526 4014 
Q 3706 3725 3706 3409 
Q 3706 3116 3547 2856 
Q 3388 2597 3066 2438 
Q 3481 2316 3704 2022 
Q 3928 1728 3928 1328 
Q 3928 1006 3792 729 
Q 3656 453 3456 303 
Q 3256 153 2954 76 
Q 2653 0 2216 0 
L 469 0 
z
M 1075 2656 
L 2066 2656 
Q 2469 2656 2644 2709 
Q 2875 2778 2992 2937 
Q 3109 3097 3109 3338 
Q 3109 3566 3000 3739 
Q 2891 3913 2687 3977 
Q 2484 4041 1991 4041 
L 1075 4041 
L 1075 2656 
z
M 1075 541 
L 2216 541 
Q 2509 541 2628 563 
Q 2838 600 2978 687 
Q 3119 775 3209 942 
Q 3300 1109 3300 1328 
Q 3300 1584 3169 1773 
Q 3038 1963 2805 2039 
Q 2572 2116 2134 2116 
L 1075 2116 
L 1075 541 
z
" transform="scale(0.015625)"/>
     </defs>
     <use xlink:href="#ArialMT-42"/>
     <use xlink:href="#ArialMT-2e" transform="translate(66.699219 0)"/>
     <use xlink:href="#ArialMT-20" transform="translate(94.482422 0)"/>
     <use xlink:href="#ArialMT-44" transform="translate(122.265625 0)"/>
     <use xlink:href="#ArialMT-65" transform="translate(194.482422 0)"/>
     <use xlink:href="#ArialMT-67" transform="translate(250.097656 0)"/>
     <use xlink:href="#ArialMT-72" transform="translate(305.712891 0)"/>
     <use xlink:href="#ArialMT-65" transform="translate(339.013672 0)"/>
     <use xlink:href="#ArialMT-65" transform="translate(394.628906 0)"/>
     <use xlink:href="#ArialMT-20" transform="translate(450.244141 0)"/>
     <use xlink:href="#ArialMT-43" transform="translate(478.027344 0)"/>
     <use xlink:href="#ArialMT-65" transform="translate(550.244141 0)"/>
     <use xlink:href="#ArialMT-6e" transform="translate(605.859375 0)"/>
     <use xlink:href="#ArialMT-74" transform="translate(661.474609 0)"/>
     <use xlink:href="#ArialMT-72" transform="translate(689.257812 0)"/>
     <use xlink:href="#ArialMT-61" transform="translate(722.558594 0)"/>
     <use xlink:href="#ArialMT-6c" transform="translate(778.173828 0)"/>
     <use xlink:href="#ArialMT-69" transform="translate(800.390625 0)"/>
     <use xlink:href="#ArialMT-74" transform="translate(822.607422 0)"/>
     <use xlink:href="#ArialMT-79" transform="translate(850.390625 0)"/>
     <use xlink:href="#ArialMT-20" transform="translate(900.390625 0)"/>
     <use xlink:href="#ArialMT-62" transform="translate(928.173828 0)"/>
     <use xlink:href="#ArialMT-79" transform="translate(983.789062 0)"/>
     <use xlink:href="#ArialMT-20" transform="translate(1033.789062 0)"/>
     <use xlink:href="#ArialMT-44" transform="translate(1061.572266 0)"/>
     <use xlink:href="#ArialMT-72" transform="translate(1133.789062 0)"/>
     <use xlink:href="#ArialMT-75" transform="translate(1167.089844 0)"/>
     <use xlink:href="#ArialMT-67" transform="translate(1222.705078 0)"/>
     <use xlink:href="#ArialMT-20" transform="translate(1278.320312 0)"/>
     <use xlink:href="#ArialMT-43" transform="translate(1306.103516 0)"/>
     <use xlink:href="#ArialMT-61" transform="translate(1378.320312 0)"/>
     <use xlink:href="#ArialMT-74" transform="translate(1433.935547 0)"/>
     <use xlink:href="#ArialMT-65" transform="translate(1461.71875 0)"/>
     <use xlink:href="#ArialMT-67" transform="translate(1517.333984 0)"/>
     <use xlink:href="#ArialMT-6f" transform="translate(1572.949219 0)"/>
     <use xlink:href="#ArialMT-72" transform="translate(1628.564453 0)"/>
     <use xlink:href="#ArialMT-79" transform="translate(1661.865234 0)"/>
    </g>
   </g>
  </g>
 </g>
 <defs>
  <clipPath id="p774e71e6b1">
   <rect x="43.128125" y="24.8475" width="445.29" height="357.3"/>
  </clipPath>
  <clipPath id="pa04728e1e5">
   <rect x="543.768125" y="24.8475" width="445.29" height="357.3"/>
  </clipPath>
 </defs>
</svg>
